SplineFontDB: 3.2
FontName: MusiQwikCustom
FullName: MusiQwikCustom
FamilyName: MusiQwikCustom
Weight: Book
Copyright: Copyright (c) 2001, 2008 by Robert Allgeyer. SIL Open Font License.\nEdited by Samuel-Anton Jansen 2025
Version: 5.002
ItalicAngle: 0
UnderlinePosition: -256
UnderlineWidth: 102
Ascent: 1638
Descent: 410
InvalidEm: 0
sfntRevision: 0x00050083
LayerCount: 2
Layer: 0 1 "Back" 1
Layer: 1 1 "Fore" 0
XUID: [1021 339 -1154760863 14497323]
StyleMap: 0x0040
FSType: 0
OS2Version: 3
OS2_WeightWidthSlopeOnly: 0
OS2_UseTypoMetrics: 0
CreationTime: 1199856660
ModificationTime: 1770562214
PfmFamily: 17
TTFWeight: 400
TTFWidth: 5
LineGap: 56
VLineGap: 0
Panose: 2 0 0 0 0 0 0 0 0 0
OS2TypoAscent: 1802
OS2TypoAOffset: 0
OS2TypoDescent: -1055
OS2TypoDOffset: 0
OS2TypoLinegap: 111
OS2WinAscent: 2726
OS2WinAOffset: 0
OS2WinDescent: 1251
OS2WinDOffset: 0
HheadAscent: 2726
HheadAOffset: 0
HheadDescent: -1251
HheadDOffset: 0
OS2SubXSize: 418
OS2SubYSize: 418
OS2SubXOff: 0
OS2SubYOff: 586
OS2SupXSize: 418
OS2SupYSize: 418
OS2SupXOff: 0
OS2SupYOff: 586
OS2StrikeYSize: 102
OS2StrikeYPos: 512
OS2CapHeight: 1794
OS2XHeight: 1638
OS2Vendor: 'NONE'
OS2CodePages: 00000001.00000000
OS2UnicodeRanges: 00000003.00000000.00000000.00000000
DEI: 91125
TtTable: prep
PUSHB_1
 10
CALL
PUSHB_1
 0
CALL
EndTTInstrs
TtTable: fpgm
PUSHB_1
 0
FDEF
MPPEM
PUSHB_1
 18
LT
IF
PUSHB_2
 1
 1
INSTCTRL
EIF
PUSHW_1
 511
SCANCTRL
PUSHB_1
 68
SCVTCI
PUSHB_2
 18
 3
SDS
SDB
ENDF
PUSHB_1
 1
FDEF
DUP
DUP
RCVT
ROUND[Black]
WCVTP
PUSHB_1
 1
ADD
ENDF
PUSHB_1
 2
FDEF
PUSHB_1
 1
LOOPCALL
POP
ENDF
PUSHB_1
 3
FDEF
DUP
GC[cur]
PUSHB_1
 3
CINDEX
GC[cur]
GT
IF
SWAP
EIF
DUP
ROLL
DUP
ROLL
MD[grid]
ABS
ROLL
DUP
GC[cur]
DUP
ROUND[Grey]
SUB
ABS
PUSHB_1
 4
CINDEX
GC[cur]
DUP
ROUND[Grey]
SUB
ABS
GT
IF
SWAP
NEG
ROLL
EIF
MDAP[rnd]
DUP
PUSHB_1
 0
GTEQ
IF
ROUND[Black]
DUP
PUSHB_1
 0
EQ
IF
POP
PUSHB_1
 64
EIF
ELSE
ROUND[Black]
DUP
PUSHB_1
 0
EQ
IF
POP
PUSHB_1
 64
NEG
EIF
EIF
MSIRP[no-rp0]
ENDF
PUSHB_1
 4
FDEF
DUP
GC[cur]
PUSHB_1
 4

StartChar: exclam
Encoding: 33 33 4
Width: 480
GlyphClass: 1
Flags: W
LayerCount: 2
Fore
SplineSet
445 1229 m 1,0,-1
 445 1638 l 1,1,-1
 496 1638 l 1,2,-1
 496 -51 l 1,3,-1
 444 -51 l 1,4,-1
 445 1229 l 1,0,-1
EndSplineSet
EndChar

StartChar: quotedbl
Encoding: 34 34 5
Width: 480
GlyphClass: 1
Flags: W
LayerCount: 2
Fore
SplineSet
445 1229 m 1,0,-1
 445 1638 l 1,1,-1
 496 1638 l 1,2,-1
 496 -51 l 1,3,-1
 444 -51 l 1,4,-1
 445 1229 l 1,0,-1
188 1229 m 1,5,-1
 188 1638 l 1,6,-1
 239 1638 l 1,7,-1
 239 -51 l 1,8,-1
 187 -51 l 1,9,-1
 188 1229 l 1,5,-1
EndSplineSet
EndChar

StartChar: numbersign
Encoding: 35 35 6
Width: 20
GlyphClass: 1
Flags: W
LayerCount: 2
Fore
SplineSet
-16 1726 m 1,0,1
 2 1804 2 1804 62.5 1849 c 128,-1,2
 123 1894 123 1894 240 1894 c 256,3,4
 357 1894 357 1894 417.5 1849 c 128,-1,5
 478 1804 478 1804 496 1726 c 1,6,-1
 445 1726 l 1,7,8
 445 1751 445 1751 420.5 1764.5 c 128,-1,9
 396 1778 396 1778 362 1784 c 128,-1,10
 328 1790 328 1790 293 1791 c 128,-1,11
 258 1792 258 1792 240 1792 c 256,12,13
 222 1792 222 1792 187 1791 c 128,-1,14
 152 1790 152 1790 118 1784 c 128,-1,15
 84 1778 84 1778 59.5 1764.5 c 128,-1,16
 35 1751 35 1751 35 1726 c 1,17,-1
 -16 1726 l 1,0,1
EndSplineSet
EndChar

StartChar: dollar
Encoding: 36 36 7
Width: 20
GlyphClass: 1
Flags: W
LayerCount: 2
Fore
SplineSet
537 2099 m 2,0,1
 598 2099 598 2099 680 2079.5 c 128,-1,2
 762 2060 762 2060 835 2016 c 128,-1,3
 908 1972 908 1972 958 1901.5 c 128,-1,4
 1008 1831 1008 1831 1008 1726 c 1,5,-1
 957 1726 l 1,6,7
 926 1780 926 1780 894.5 1829 c 128,-1,8
 863 1878 863 1878 813.5 1915 c 128,-1,9
 764 1952 764 1952 689.5 1974.5 c 128,-1,10
 615 1997 615 1997 500 1997 c 0,11,12
 377 1997 377 1997 304.5 1977.5 c 128,-1,13
 232 1958 232 1958 186 1922 c 128,-1,14
 140 1886 140 1886 109 1836 c 128,-1,15
 78 1786 78 1786 37 1726 c 1,16,17
 -14 1726 -14 1726 -16 1726 c 1,18,19
 -16 1825 -16 1825 34 1895.5 c 128,-1,20
 84 1966 84 1966 158 2011 c 128,-1,21
 232 2056 232 2056 313 2077.5 c 128,-1,22
 394 2099 394 2099 455 2099 c 2,23,-1
 537 2099 l 2,0,1
EndSplineSet
EndChar

StartChar: percent
Encoding: 37 37 8
Width: 20
GlyphClass: 1
Flags: W
LayerCount: 2
Fore
SplineSet
793 2220 m 2,0,1
 934 2220 934 2220 1057 2177 c 128,-1,2
 1180 2134 1180 2134 1313 2040 c 1,3,4
 1311 2040 1311 2040 1325.5 2020.5 c 128,-1,5
 1340 2001 1340 2001 1360.5 1970 c 128,-1,6
 1381 1939 1381 1939 1406.5 1903.5 c 128,-1,7
 1432 1868 1432 1868 1454.5 1833 c 128,-1,8
 1477 1798 1477 1798 1491.5 1771.5 c 128,-1,9
 1506 1745 1506 1745 1506 1735 c 0,10,11
 1506 1726 1506 1726 1500 1726 c 0,12,13
 1497 1726 1497 1726 1494 1728.5 c 128,-1,14
 1491 1731 1491 1731 1487 1733 c 0,15,16
 1457 1751 1457 1751 1425 1785 c 128,-1,17
 1393 1819 1393 1819 1365.5 1854.5 c 128,-1,18
 1338 1890 1338 1890 1316.5 1918 c 128,-1,19
 1295 1946 1295 1946 1282 1952 c 0,20,21
 1153 2038 1153 2038 1023 2077 c 128,-1,22
 893 2116 893 2116 758 2116 c 0,23,24
 617 2116 617 2116 477.5 2081 c 128,-1,25
 338 2046 338 2046 203 1948 c 0,26,27
 191 1939 191 1939 170.5 1912.5 c 128,-1,28
 150 1886 150 1886 123.5 1853.5 c 128,-1,29
 97 1821 97 1821 65 1787 c 128,-1,30
 33 1753 33 1753 0 1733 c 0,31,32
 -6 1726 -6 1726 -10 1726 c 0,33,34
 -12 1726 -12 1726 -12 1731 c 0,35,36
 -12 1739 -12 1739 1.5 1764.5 c 128,-1,37
 15 1790 15 1790 34.5 1825 c 128,-1,38
 54 1860 54 1860 77.5 1897.5 c 128,-1,39
 101 1935 101 1935 122.5 1967 c 128,-1,40
 144 1999 144 1999 159 2019.5 c 128,-1,41
 174 2040 174 2040 181 2040 c 0,42,43
 316 2134 316 2134 443 2177 c 128,-1,44
 570 2220 570 2220 711 2220 c 2,45,-1
 793 2220 l 2,0,1
EndSplineSet
EndChar

StartChar: ampersand
Encoding: 38 38 9
Width: 992
GlyphClass: 1
Flags: W
LayerCount: 2
Fore
SplineSet
602 291 m 1,0,1
 562 509 562 509 562 509 c 2,2,3
 553 559 553 559 543 610 c 1,4,5
 471 588 471 588 428 531.5 c 128,-1,6
 385 475 385 475 379 410 c 1,7,8
 381 358 381 358 381 358 c 1,9,10
 387 315 387 315 414 278.5 c 128,-1,11
 441 242 441 242 490 215 c 1,12,13
 512 215 512 215 512 199 c 0,14,15
 512 186 512 186 498 188 c 0,16,17
 441 197 441 197 385 242 c 0,18,19
 324 291 324 291 299 358 c 0,20,21
 290 384 290 384 290 384 c 2,22,23
 285 410 285 410 285 410 c 2,24,25
 285 412 285 412 283 438 c 128,-1,26
 281 464 281 464 281 469 c 0,27,28
 281 473 281 473 281 477 c 128,-1,29
 281 481 281 481 281 484 c 128,-1,30
 281 487 281 487 281 490 c 0,31,32
 281 519 281 519 298 568 c 0,33,34
 318 624 318 624 340 657 c 0,35,36
 354 678 354 678 380 702 c 0,37,38
 415 732 415 732 424 741 c 0,39,40
 426 743 426 743 440.5 750.5 c 128,-1,41
 455 758 455 758 471 768 c 1,42,43
 505 778 505 778 505 778 c 129,-1,44
 505 778 505 778 497 814 c 2,45,-1
 474 926 l 2,46,47
 465 977 465 977 453 1032 c 1,48,49
 398 985 398 985 342.5 932 c 128,-1,50
 287 879 287 879 240 819 c 2,51,52
 240 819 240 819 201 768 c 1,53,54
 152 694 152 694 122.5 613 c 128,-1,55
 93 532 93 532 93 446 c 1,56,57
 93 446 93 446 96 407 c 2,58,-1
 103 358 l 1,59,60
 119 291 119 291 159 232.5 c 128,-1,61
 199 174 199 174 254.5 132 c 128,-1,62
 310 90 310 90 376.5 66.5 c 128,-1,63
 443 43 443 43 512 43 c 0,64,65
 514 43 514 43 536.5 46 c 128,-1,66
 559 49 559 49 584 53 c 128,-1,67
 609 57 609 57 630 62 c 0,68,69
 652 68 652 68 650 72 c 0,70,71
 649 75 649 75 641 109 c 0,72,73
 631 156 631 156 624 200 c 128,-1,74
 617 244 617 244 602 291 c 1,0,1
608 512 m 0,75,76
 667 222 667 222 667 222 c 2,77,78
 667 204 667 204 697 88 c 1,79,80
 775 117 775 117 810.5 179.5 c 128,-1,81
 846 242 846 242 846 317 c 0,82,83
 846 328 846 328 846 338 c 256,84,85
 846 348 846 348 844 358 c 0,86,87
 834 410 834 410 834 410 c 1,88,89
 811 496 811 496 748.5 556 c 128,-1,90
 686 616 686 616 588 616 c 1,91,92
 598 563 598 563 608 512 c 0,75,76
963 410 m 0,93,94
 961 358 961 358 961 358 c 1,95,96
 955 316 955 316 942 279 c 0,97,98
 918 210 918 210 872 154 c 0,99,100
 831 106 831 106 768 68 c 0,101,102
 748 56 748 56 734 51 c 0,103,104
 711 43 711 43 711 25 c 2,105,106
 711 25 711 25 711 18 c 2,107,-1
 713 0 l 1,108,-1
 725 -51 l 1,109,-1
 727 -66 l 1,110,111
 744 -117 744 -117 754 -180.5 c 128,-1,112
 764 -244 764 -244 770 -309 c 0,113,114
 770 -332 770 -332 770 -332 c 2,115,116
 770 -393 770 -393 746.5 -446.5 c 128,-1,117
 723 -500 723 -500 683 -539 c 128,-1,118
 643 -578 643 -578 590 -600.5 c 128,-1,119
 537 -623 537 -623 478 -623 c 0,120,121
 422 -623 422 -623 365 -600 c 0,122,123
 290 -570 290 -570 246 -519 c 0,124,125
 199 -465 199 -465 199 -385 c 0,126,127
 199 -336 199 -336 227.5 -284.5 c 128,-1,128
 256 -233 256 -233 303 -211 c 0,129,130
 340 -193 340 -193 371 -193 c 256,131,132
 402 -193 402 -193 427.5 -208 c 128,-1,133
 453 -223 453 -223 471.5 -247.5 c 128,-1,134
 490 -272 490 -272 499 -303 c 128,-1,135
 508 -334 508 -334 508 -365 c 0,136,137
 508 -418 508 -418 475.5 -461 c 128,-1,138
 443 -504 443 -504 367 -504 c 0,139,140
 353 -504 353 -504 353 -504 c 1,141,142
 373 -543 373 -543 404 -557 c 128,-1,143
 435 -571 435 -571 471 -571 c 0,144,145
 533 -571 533 -571 596 -538 c 0,146,147
 663 -504 663 -504 689 -467 c 0,148,149
 706 -443 706 -443 715 -391 c 0,150,151
 723 -344 723 -344 723 -297 c 0,152,153
 723 -262 723 -262 720 -231.5 c 128,-1,154
 717 -201 717 -201 709 -178 c 1,155,156
 704 -144 704 -144 694 -114 c 128,-1,157
 684 -84 684 -84 674 -51 c 2,158,159
 674 -51 674 -51 658 2 c 1,160,161
 649 14 649 14 633 14 c 0,162,163
 621 14 621 14 604.5 9.5 c 128,-1,164
 588 5 588 5 588 5 c 129,-1,165
 588 5 588 5 568 0 c 0,166,167
 552 -4 552 -4 515 -4 c 0,168,169
 513 -4 513 -4 478 -2 c 0,170,171
 457 -1 457 -1 457 0 c 0,172,173
 405 2 405 2 389 11 c 1,174,175
 258 46 258 46 167 141 c 128,-1,176
 76 236 76 236 29 358 c 0,177,178
 11 410 11 410 11 410 c 2,179,180
 -14 492 -14 492 -14 582 c 0,181,182
 -14 676 -14 676 17 768 c 1,183,184
 39 819 39 819 39 819 c 1,185,186
 90 920 90 920 153.5 1009 c 128,-1,187
 217 1098 217 1098 293 1178 c 0,188,189
 344 1229 344 1229 344 1229 c 2,190,191
 361 1243 361 1243 376.5 1257.5 c 128,-1,192
 392 1272 392 1272 408 1286 c 1,193,194
 387 1364 387 1364 372 1436.5 c 128,-1,195
 357 1509 357 1509 353 1587 c 0,196,197
 353 1638 353 1638 353 1638 c 2,198,199
 353 1702 353 1702 362 1780 c 128,-1,200
 371 1858 371 1858 395.5 1929.5 c 128,-1,201
 420 2001 420 2001 464 2060 c 0,202,203
 497 2104 497 2104 578 2144 c 0,204,205
 582 2146 582 2146 588 2146 c 0,206,207
 602 2146 602 2146 617.5 2131 c 128,-1,208
 633 2116 633 2116 645.5 2096.5 c 128,-1,209
 658 2077 658 2077 667 2058 c 0,210,211
 678 2036 678 2036 680 2032 c 0,212,213
 716 1960 716 1960 732 1887 c 0,214,215
 752 1801 752 1801 752 1735 c 0,216,217
 752 1722 752 1722 753 1710 c 128,-1,218
 754 1698 754 1698 754 1686 c 0,219,220
 754 1673 754 1673 753 1661 c 128,-1,221
 752 1649 752 1649 752 1638 c 2,222,223
 752 1638 752 1638 750 1587 c 0,224,225
 744 1509 744 1509 724.5 1435.5 c 128,-1,226
 705 1362 705 1362 668 1290 c 1,227,228
 668 1290 668 1290 630 1228 c 2,229,-1
 596 1178 l 2,230,231
 594 1176 594 1176 591 1171 c 0,232,233
 588 1167 588 1167 584 1163 c 0,234,235
 574 1153 574 1153 564 1144 c 0,236,237
 551 1130 551 1130 536 1116 c 128,-1,238
 521 1102 521 1102 509.5 1088.5 c 128,-1,239
 498 1075 498 1075 498 1073 c 0,240,241
 498 1026 498 1026 523 938 c 0,242,243
 533 907 533 907 538 877.5 c 128,-1,244
 543 848 543 848 549 819 c 2,245,246
 549 819 549 819 556 784 c 1,247,-1
 608 787 l 1,248,-1
 658 787 l 1,249,-1
 706 780 l 1,250,-1
 754 768 l 1,251,252
 854 713 854 713 908.5 616.5 c 128,-1,253
 963 520 963 520 963 410 c 0,93,94
425 1615 m 2,254,255
 425 1615 425 1615 422 1587 c 0,256,257
 416 1544 416 1544 416 1501 c 0,258,259
 416 1401 416 1401 449 1327 c 1,260,261
 512 1360 512 1360 562.5 1435.5 c 128,-1,262
 613 1511 613 1511 646 1587 c 0,263,264
 656 1612 656 1612 656 1612 c 129,-1,265
 656 1612 656 1612 666 1638 c 0,266,267
 669 1649 669 1649 672 1657 c 0,268,269
 675 1664 675 1664 678 1673 c 0,270,271
 686 1698 686 1698 692.5 1727.5 c 128,-1,272
 699 1757 699 1757 699 1786 c 0,273,274
 699 1825 699 1825 680 1864 c 0,275,276
 660 1905 660 1905 623 1905 c 0,277,278
 588 1905 588 1905 554 1879 c 0,279,280
 515 1848 515 1848 504 1831 c 0,281,282
 458 1760 458 1760 430 1638 c 2,283,284
 430 1638 430 1638 425 1615 c 2,254,255
EndSplineSet
EndChar

StartChar: quotesingle
Encoding: 39 39 10
Width: 480
GlyphClass: 1
Flags: W
LayerCount: 2
Fore
SplineSet
496 1638 m 1,0,-1
 496 1587 l 1,1,-1
 35 1587 l 1,2,-1
 35 1229 l 1,3,-1
 496 1229 l 1,4,-1
 496 1178 l 1,5,-1
 35 1178 l 1,6,-1
 35 819 l 1,7,-1
 496 819 l 1,8,-1
 496 768 l 1,9,-1
 35 768 l 1,10,-1
 35 410 l 1,11,-1
 496 410 l 1,12,-1
 496 358 l 1,13,-1
 35 358 l 1,14,-1
 35 0 l 1,15,-1
 496 0 l 1,16,-1
 496 -51 l 1,17,-1
 -16 -51 l 1,18,-1
 -16 1638 l 1,19,-1
 496 1638 l 1,0,-1
EndSplineSet
EndChar

StartChar: parenleft
Encoding: 40 40 11
Width: 992
GlyphClass: 1
Flags: W
LayerCount: 2
Fore
SplineSet
189 1638 m 1,0,-1
 189 -51 l 1,1,-1
 -16 -51 l 1,2,-1
 -16 1638 l 1,3,-1
 189 1638 l 1,0,-1
496 358 m 1,4,-1
 496 -51 l 1,5,-1
 394 -51 l 1,6,-1
 394 1638 l 1,7,-1
 496 1638 l 1,8,-1
 496 358 l 1,4,-1
803 999 m 1,9,10
 805 958 805 958 771.5 927.5 c 128,-1,11
 738 897 738 897 701 897 c 0,12,13
 666 897 666 897 632 924.5 c 128,-1,14
 598 952 598 952 598 999 c 0,15,16
 598 1038 598 1038 626 1070 c 128,-1,17
 654 1102 654 1102 701 1102 c 0,18,19
 750 1102 750 1102 778.5 1069 c 128,-1,20
 807 1036 807 1036 803 999 c 1,9,10
803 590 m 1,21,22
 805 549 805 549 771.5 518 c 128,-1,23
 738 487 738 487 701 487 c 0,24,25
 666 487 666 487 632 515 c 128,-1,26
 598 543 598 543 598 590 c 0,27,28
 598 629 598 629 626 660.5 c 128,-1,29
 654 692 654 692 701 692 c 0,30,31
 750 692 750 692 778.5 659.5 c 128,-1,32
 807 627 807 627 803 590 c 1,21,22
EndSplineSet
EndChar

StartChar: parenright
Encoding: 41 41 12
Width: 992
GlyphClass: 1
Flags: W
LayerCount: 2
Fore
SplineSet
803 -51 m 1,0,-1
 803 1638 l 1,1,-1
 1008 1638 l 1,2,-1
 1008 -51 l 1,3,-1
 803 -51 l 1,0,-1
496 1229 m 1,4,-1
 496 1638 l 1,5,-1
 598 1638 l 1,6,-1
 598 -51 l 1,7,-1
 496 -51 l 1,8,-1
 496 1229 l 1,4,-1
291 999 m 1,9,10
 293 958 293 958 259.5 927.5 c 128,-1,11
 226 897 226 897 189 897 c 0,12,13
 154 897 154 897 120 924.5 c 128,-1,14
 86 952 86 952 86 999 c 0,15,16
 86 1038 86 1038 114 1070 c 128,-1,17
 142 1102 142 1102 189 1102 c 0,18,19
 238 1102 238 1102 266.5 1069 c 128,-1,20
 295 1036 295 1036 291 999 c 1,9,10
291 592 m 1,21,22
 293 551 293 551 259.5 520 c 128,-1,23
 226 489 226 489 189 489 c 0,24,25
 154 489 154 489 120 517 c 128,-1,26
 86 545 86 545 86 592 c 0,27,28
 86 631 86 631 114 662.5 c 128,-1,29
 142 694 142 694 189 694 c 0,30,31
 238 694 238 694 266.5 661.5 c 128,-1,32
 295 629 295 629 291 592 c 1,21,22
EndSplineSet
EndChar

StartChar: asterisk
Encoding: 42 42 13
Width: 20
GlyphClass: 1
Flags: W
LayerCount: 2
Fore
SplineSet
35 -139 m 1,0,1
 35 -164 35 -164 59.5 -177 c 128,-1,2
 84 -190 84 -190 118 -196.5 c 128,-1,3
 152 -203 152 -203 187 -204 c 128,-1,4
 222 -205 222 -205 240 -205 c 256,5,6
 258 -205 258 -205 293 -204 c 128,-1,7
 328 -203 328 -203 362 -196.5 c 128,-1,8
 396 -190 396 -190 420.5 -177 c 128,-1,9
 445 -164 445 -164 445 -139 c 1,10,-1
 496 -139 l 1,11,12
 478 -217 478 -217 417.5 -262 c 128,-1,13
 357 -307 357 -307 240 -307 c 256,14,15
 123 -307 123 -307 62.5 -262 c 128,-1,16
 2 -217 2 -217 -16 -139 c 1,17,-1
 35 -139 l 1,0,1
EndSplineSet
EndChar

StartChar: plus
Encoding: 43 43 14
Width: 20
GlyphClass: 1
Flags: W
LayerCount: 2
Fore
SplineSet
455 -512 m 2,0,1
 394 -512 394 -512 313 -490.5 c 128,-1,2
 232 -469 232 -469 158 -424 c 128,-1,3
 84 -379 84 -379 34 -308.5 c 128,-1,4
 -16 -238 -16 -238 -16 -139 c 1,5,-1
 35 -139 l 1,6,7
 76 -199 76 -199 107 -249 c 128,-1,8
 138 -299 138 -299 184 -335 c 128,-1,9
 230 -371 230 -371 303.5 -390.5 c 128,-1,10
 377 -410 377 -410 500 -410 c 0,11,12
 615 -410 615 -410 689.5 -387.5 c 128,-1,13
 764 -365 764 -365 813.5 -328 c 128,-1,14
 863 -291 863 -291 894.5 -242 c 128,-1,15
 926 -193 926 -193 957 -139 c 1,16,-1
 1008 -139 l 1,17,18
 1008 -244 1008 -244 958 -314.5 c 128,-1,19
 908 -385 908 -385 835 -429 c 128,-1,20
 762 -473 762 -473 680 -492.5 c 128,-1,21
 598 -512 598 -512 537 -512 c 2,22,-1
 455 -512 l 2,0,1
EndSplineSet
EndChar

StartChar: comma
Encoding: 44 44 15
Width: 20
GlyphClass: 1
Flags: W
LayerCount: 2
Fore
SplineSet
705 -633 m 2,0,1
 564 -633 564 -633 437 -590 c 128,-1,2
 310 -547 310 -547 174 -453 c 1,3,4
 166 -453 166 -453 135.5 -411 c 128,-1,5
 105 -369 105 -369 71 -316.5 c 128,-1,6
 37 -264 37 -264 10.5 -216 c 128,-1,7
 -16 -168 -16 -168 -16 -156 c 0,8,9
 -16 -154 -16 -154 -7 -146.5 c 128,-1,10
 2 -139 2 -139 4 -139 c 0,11,12
 39 -139 39 -139 67 -166 c 128,-1,13
 95 -193 95 -193 117.5 -229.5 c 128,-1,14
 140 -266 140 -266 159.5 -303 c 128,-1,15
 179 -340 179 -340 197 -360 c 1,16,17
 332 -459 332 -459 471.5 -493.5 c 128,-1,18
 611 -528 611 -528 752 -528 c 0,19,20
 887 -528 887 -528 1017 -489.5 c 128,-1,21
 1147 -451 1147 -451 1276 -365 c 1,22,23
 1291 -346 1291 -346 1315.5 -308 c 128,-1,24
 1340 -270 1340 -270 1369.5 -232.5 c 128,-1,25
 1399 -195 1399 -195 1432 -167 c 128,-1,26
 1465 -139 1465 -139 1497 -139 c 0,27,28
 1502 -139 1502 -139 1511 -149.5 c 128,-1,29
 1520 -160 1520 -160 1520 -164 c 0,30,31
 1520 -180 1520 -180 1486 -227 c 128,-1,32
 1452 -274 1452 -274 1411 -324.5 c 128,-1,33
 1370 -375 1370 -375 1337.5 -414 c 128,-1,34
 1305 -453 1305 -453 1307 -453 c 1,35,36
 1174 -547 1174 -547 1051 -590 c 128,-1,37
 928 -633 928 -633 787 -633 c 2,38,-1
 705 -633 l 2,0,1
EndSplineSet
EndChar

StartChar: hyphen
Encoding: 45 45 16
Width: 20
GlyphClass: 1
Flags: W
LayerCount: 2
Fore
SplineSet
36 358 m 1,0,-1
 -16 358 l 1,1,-1
 -16 410 l 1,2,-1
 36 410 l 1,3,-1
 36 358 l 1,0,-1
36 1587 m 1,4,-1
 -16 1587 l 1,5,-1
 -16 1638 l 1,6,-1
 36 1638 l 1,7,-1
 36 1587 l 1,4,-1
36 1178 m 1,8,-1
 -16 1178 l 1,9,-1
 -16 1229 l 1,10,-1
 36 1229 l 1,11,-1
 36 1178 l 1,8,-1
36 768 m 1,12,-1
 -16 768 l 1,13,-1
 -16 819 l 1,14,-1
 36 819 l 1,15,-1
 36 768 l 1,12,-1
36 -51 m 1,16,-1
 -16 -51 l 1,17,-1
 -16 0 l 1,18,-1
 36 0 l 1,19,-1
 36 -51 l 1,16,-1
EndSplineSet
EndChar

StartChar: period
Encoding: 46 46 17
Width: 480
GlyphClass: 1
Flags: W
LayerCount: 2
Fore
SplineSet
86 -51 m 1,0,-1
 86 0 l 1,1,-1
 86 0 l 1,2,-1
 86 358 l 1,3,-1
 86 358 l 1,4,-1
 86 410 l 1,5,-1
 86 410 l 1,6,-1
 86 768 l 1,7,-1
 86 767 l 1,8,-1
 86 818 l 1,9,-1
 86 819 l 1,10,-1
 86 1178 l 1,11,-1
 86 1176 l 1,12,-1
 86 1227 l 1,13,-1
 86 1229 l 1,14,-1
 86 1587 l 1,15,-1
 86 1587 l 1,16,-1
 86 1638 l 1,17,-1
 137 1638 l 1,18,19
 137 1638 137 1638 137 -51 c 1,20,-1
 86 -51 l 1,0,-1
288 1638 m 1,21,22
 288 1638 288 1638 496 1638 c 1,23,-1
 496 -51 l 1,24,-1
 288 -51 l 1,25,-1
 288 1638 l 1,21,22
EndSplineSet
EndChar

StartChar: slash
Encoding: 47 47 18
Width: 1536
GlyphClass: 1
Flags: W
LayerCount: 2
Fore
SplineSet
0 1794 m 1,0,-1
 1419 1794 l 1,1,-1
 1419 -383 l 1,2,-1
 0 -383 l 1,3,-1
 0 1794 l 1,0,-1
51 434 m 1,4,-1
 281 434 l 1,5,-1
 281 772 l 1,6,-1
 51 772 l 1,7,-1
 51 434 l 1,4,-1
51 823 m 1,8,-1
 281 823 l 1,9,-1
 281 1161 l 1,10,-1
 51 1161 l 1,11,-1
 51 823 l 1,8,-1
877 434 m 1,12,-1
 1104 434 l 1,13,-1
 1104 772 l 1,14,-1
 877 772 l 1,15,-1
 877 434 l 1,12,-1
877 823 m 1,16,-1
 1104 823 l 1,17,-1
 1104 1161 l 1,18,-1
 877 1161 l 1,19,-1
 877 823 l 1,16,-1
332 772 m 1,20,-1
 332 434 l 1,21,-1
 553 434 l 1,22,-1
 553 772 l 1,23,-1
 332 772 l 1,20,-1
51 1212 m 1,24,-1
 281 1212 l 1,25,-1
 281 1536 l 1,26,-1
 51 1536 l 1,27,-1
 51 1212 l 1,24,-1
332 823 m 1,28,-1
 553 823 l 1,29,-1
 553 1161 l 1,30,-1
 332 1161 l 1,31,-1
 332 823 l 1,28,-1
825 434 m 1,32,-1
 825 772 l 1,33,-1
 604 772 l 1,34,-1
 604 434 l 1,35,-1
 825 434 l 1,32,-1
877 1212 m 1,36,-1
 1104 1212 l 1,37,-1
 1104 1536 l 1,38,-1
 877 1536 l 1,39,-1
 877 1212 l 1,36,-1
604 1161 m 1,40,-1
 604 823 l 1,41,-1
 825 823 l 1,42,-1
 825 1161 l 1,43,-1
 604 1161 l 1,40,-1
332 1212 m 1,44,-1
 553 1212 l 1,45,-1
 553 1536 l 1,46,-1
 332 1536 l 1,47,-1
 332 1212 l 1,44,-1
604 1212 m 1,48,-1
 825 1212 l 1,49,-1
 825 1536 l 1,50,-1
 604 1536 l 1,51,-1
 604 1212 l 1,48,-1
1155 434 m 1,52,-1
 1368 434 l 1,53,-1
 1368 772 l 1,54,-1
 1155 772 l 1,55,-1
 1155 434 l 1,52,-1
1368 823 m 1,56,-1
 1368 1161 l 1,57,-1
 1155 1161 l 1,58,-1
 1155 823 l 1,59,-1
 1368 823 l 1,56,-1
1155 1536 m 1,60,-1
 1155 1212 l 1,61,-1
 1368 1212 l 1,62,-1
 1368 1536 l 1,63,-1
 1155 1536 l 1,60,-1
51 51 m 1,64,-1
 281 51 l 1,65,-1
 281 383 l 1,66,-1
 51 383 l 1,67,-1
 51 51 l 1,64,-1
877 51 m 1,68,-1
 1104 51 l 1,69,-1
 1104 383 l 1,70,-1
 877 383 l 1,71,-1
 877 51 l 1,68,-1
332 51 m 1,72,-1
 553 51 l 1,73,-1
 553 383 l 1,74,-1
 332 383 l 1,75,-1
 332 51 l 1,72,-1
825 383 m 1,76,-1
 604 383 l 1,77,-1
 604 51 l 1,78,-1
 825 51 l 1,79,-1
 825 383 l 1,76,-1
1155 51 m 1,80,-1
 1368 51 l 1,81,-1
 1368 383 l 1,82,-1
 1155 383 l 1,83,-1
 1155 51 l 1,80,-1
51 -332 m 1,84,-1
 281 -332 l 1,85,-1
 281 0 l 1,86,-1
 51 0 l 1,87,-1
 51 -332 l 1,84,-1
877 -332 m 1,88,-1
 1104 -332 l 1,89,-1
 1104 0 l 1,90,-1
 877 0 l 1,91,-1
 877 -332 l 1,88,-1
332 -332 m 1,92,-1
 553 -332 l 1,93,-1
 553 0 l 1,94,-1
 332 0 l 1,95,-1
 332 -332 l 1,92,-1
825 0 m 1,96,-1
 604 0 l 1,97,-1
 604 -332 l 1,98,-1
 825 -332 l 1,99,-1
 825 0 l 1,96,-1
1155 -332 m 1,100,-1
 1368 -332 l 1,101,-1
 1368 0 l 1,102,-1
 1155 0 l 1,103,-1
 1155 -332 l 1,100,-1
EndSplineSet
EndChar

StartChar: zero
Encoding: 48 48 19
Width: 992
GlyphClass: 1
Flags: W
LayerCount: 2
Fore
SplineSet
450 817 m 1024,0,-1
452 823 m 0,1,2
 402 851 402 851 402 922 c 0,3,4
 402 973 402 973 435 1006 c 1,5,6
 465 1044 465 1044 512 1055 c 1,7,-1
 529 1057 l 1,8,-1
 545 1063 l 1,9,-1
 551 1075 l 1,10,11
 543 1108 543 1108 494 1124 c 1,12,13
 455 1145 455 1145 406 1145 c 256,14,15
 357 1145 357 1145 316 1116 c 0,16,17
 301 1110 301 1110 275 1085 c 0,18,19
 252 1063 252 1063 244 1049 c 0,20,21
 203 976 203 976 203 819 c 2,22,-1
 203 768 l 2,23,24
 203 606 203 606 217 580 c 1,25,26
 254 428 254 428 398 428 c 0,27,28
 511 428 511 428 580 551 c 0,29,30
 590 569 590 569 608 622 c 0,31,32
 621 657 621 657 627 696 c 1,33,-1
 674 696 l 1,34,35
 668 625 668 625 644 568 c 0,36,37
 616 504 616 504 578 463 c 0,38,39
 547 430 547 430 508 410 c 0,40,41
 385 348 385 348 220 398 c 1,42,-1
 199 410 l 2,43,44
 188 415 188 415 162 436 c 0,45,46
 80 501 80 501 39 600 c 0,47,48
 23 639 23 639 12.5 683 c 128,-1,49
 2 727 2 727 -2 768 c 2,50,-1
 -4 783 l 1,51,-1
 -4 804 l 1,52,-1
 -4 819 l 1,53,54
 0 909 0 909 50 989 c 1,55,56
 99 1082 99 1082 185 1137 c 0,57,58
 196 1144 196 1144 224 1159 c 0,59,60
 244 1169 244 1169 267 1178 c 0,61,62
 324 1197 324 1197 424 1192 c 1,63,-1
 459 1183 l 1,64,65
 486 1171 486 1171 486 1171 c 2,66,67
 506 1161 506 1161 506 1161 c 2,68,69
 525 1154 525 1154 568 1126 c 0,70,71
 592 1109 592 1109 619 1077 c 0,72,73
 666 1022 666 1022 666 954 c 0,74,75
 666 891 666 891 627 850 c 0,76,77
 607 829 607 829 578 819 c 0,78,79
 509 792 509 792 452 823 c 0,1,2
EndSplineSet
EndChar

StartChar: one
Encoding: 49 49 20
Width: 992
GlyphClass: 1
Flags: W
LayerCount: 2
Fore
SplineSet
1008 -51 m 1,0,-1
 -16 -51 l 1,1,-1
 -16 14 l 1,2,-1
 156 203 l 2,3,4
 191 244 191 244 228 281.5 c 128,-1,5
 265 319 265 319 297 358 c 1,6,-1
 -16 358 l 1,7,-1
 -16 410 l 1,8,-1
 338 410 l 1,9,10
 361 442 361 442 375.5 473 c 128,-1,11
 390 504 390 504 390 532 c 0,12,13
 390 606 390 606 339.5 651 c 128,-1,14
 289 696 289 696 203 696 c 0,15,16
 168 696 168 696 145.5 690 c 128,-1,17
 123 684 123 684 104.5 667.5 c 128,-1,18
 86 651 86 651 70 622.5 c 128,-1,19
 54 594 54 594 33 551 c 1,20,-1
 -16 551 l 1,21,22
 0 614 0 614 19.5 646 c 128,-1,23
 39 678 39 678 70 709 c 0,24,25
 121 754 121 754 170 768 c 1,26,-1
 -16 768 l 1,27,-1
 -16 831 l 1,28,-1
 156 1020 l 2,29,30
 191 1061 191 1061 229 1100 c 128,-1,31
 267 1139 267 1139 299 1178 c 1,32,-1
 -16 1178 l 1,33,-1
 -16 1229 l 1,34,-1
 340 1229 l 1,35,36
 390 1292 390 1292 390 1348 c 0,37,38
 390 1423 390 1423 339.5 1468 c 128,-1,39
 289 1513 289 1513 203 1513 c 0,40,41
 168 1513 168 1513 145.5 1507 c 128,-1,42
 123 1501 123 1501 104.5 1483.5 c 128,-1,43
 86 1466 86 1466 70 1438.5 c 128,-1,44
 54 1411 54 1411 33 1368 c 1,45,-1
 -16 1368 l 1,46,47
 0 1432 0 1432 19.5 1462.5 c 128,-1,48
 39 1493 39 1493 70 1526 c 0,49,50
 117 1569 117 1569 179 1587 c 1,51,-1
 -16 1587 l 1,52,-1
 -16 1638 l 1,53,-1
 1008 1638 l 1,54,-1
 1008 1587 l 1,55,-1
 336 1587 l 1,56,57
 410 1567 410 1567 457 1514.5 c 128,-1,58
 504 1462 504 1462 504 1395 c 0,59,60
 504 1352 504 1352 488.5 1312 c 128,-1,61
 473 1272 473 1272 443 1229 c 1,62,-1
 1008 1229 l 1,63,-1
 1008 1178 l 1,64,-1
 402 1178 l 1,65,66
 385 1161 385 1161 369 1142.5 c 128,-1,67
 353 1124 353 1124 332 1106 c 2,68,-1
 131 905 l 1,69,-1
 551 905 l 1,70,-1
 551 819 l 1,71,-1
 1008 819 l 1,72,-1
 1008 768 l 1,73,-1
 344 768 l 1,74,75
 416 745 416 745 460 694 c 128,-1,76
 504 643 504 643 504 578 c 0,77,78
 504 492 504 492 441 410 c 1,79,-1
 1008 410 l 1,80,-1
 1008 358 l 1,81,-1
 398 358 l 1,82,83
 387 342 387 342 332 291 c 2,84,-1
 131 90 l 1,85,-1
 551 90 l 1,86,-1
 551 0 l 1,87,-1
 1008 0 l 1,88,-1
 1008 -51 l 1,0,-1
EndSplineSet
EndChar

StartChar: two
Encoding: 50 50 21
Width: 992
GlyphClass: 1
Flags: W
LayerCount: 2
Fore
SplineSet
1008 358 m 1,0,-1
 455 358 l 1,1,-1
 455 264 l 1,2,-1
 590 264 l 1,3,-1
 590 188 l 1,4,-1
 455 188 l 1,5,-1
 455 0 l 1,6,-1
 1008 0 l 1,7,-1
 1008 -51 l 1,8,-1
 -16 -51 l 1,9,-1
 -16 0 l 1,10,-1
 353 0 l 1,11,-1
 353 188 l 1,12,-1
 -16 188 l 1,13,-1
 -16 264 l 1,14,-1
 60 358 l 1,15,-1
 -16 358 l 1,16,-1
 -16 410 l 1,17,-1
 101 410 l 1,18,-1
 387 768 l 1,19,-1
 -16 768 l 1,20,-1
 -16 819 l 1,21,-1
 37 819 l 1,22,-1
 37 829 l 1,23,-1
 207 1018 l 2,24,25
 242 1059 242 1059 281 1098 c 128,-1,26
 320 1137 320 1137 353 1178 c 1,27,-1
 -16 1178 l 1,28,-1
 -16 1229 l 1,29,-1
 394 1229 l 1,30,31
 416 1260 416 1260 429.5 1288.5 c 128,-1,32
 443 1317 443 1317 443 1346 c 0,33,34
 443 1421 443 1421 391.5 1466 c 128,-1,35
 340 1511 340 1511 254 1511 c 0,36,37
 222 1511 222 1511 199.5 1505 c 128,-1,38
 177 1499 177 1499 158.5 1481.5 c 128,-1,39
 140 1464 140 1464 123.5 1436.5 c 128,-1,40
 107 1409 107 1409 86 1366 c 1,41,-1
 37 1366 l 1,42,43
 54 1430 54 1430 72 1460.5 c 128,-1,44
 90 1491 90 1491 121 1524 c 1,45,46
 172 1569 172 1569 238 1587 c 1,47,-1
 -16 1587 l 1,48,-1
 -16 1638 l 1,49,-1
 1008 1638 l 1,50,-1
 1008 1587 l 1,51,-1
 379 1587 l 1,52,53
 457 1569 457 1569 506 1515.5 c 128,-1,54
 555 1462 555 1462 555 1393 c 0,55,56
 555 1311 555 1311 498 1229 c 1,57,-1
 1008 1229 l 1,58,-1
 1008 1178 l 1,59,-1
 457 1178 l 1,60,61
 441 1159 441 1159 423.5 1141.5 c 128,-1,62
 406 1124 406 1124 385 1104 c 2,63,-1
 183 903 l 1,64,-1
 602 903 l 1,65,-1
 602 819 l 1,66,-1
 1008 819 l 1,67,-1
 1008 768 l 1,68,-1
 455 768 l 1,69,-1
 455 410 l 1,70,-1
 1008 410 l 1,71,-1
 1008 358 l 1,0,-1
62 264 m 1,72,-1
 353 264 l 1,73,-1
 353 358 l 1,74,-1
 140 358 l 1,75,-1
 62 264 l 1,72,-1
181 410 m 1,76,-1
 353 410 l 1,77,-1
 353 618 l 1,78,-1
 181 410 l 1,76,-1
EndSplineSet
EndChar

StartChar: three
Encoding: 51 51 22
Width: 992
GlyphClass: 1
Flags: W
LayerCount: 2
Fore
SplineSet
1008 358 m 1,0,-1
 455 358 l 1,1,-1
 455 264 l 1,2,-1
 590 264 l 1,3,-1
 590 188 l 1,4,-1
 455 188 l 1,5,-1
 455 0 l 1,6,-1
 1008 0 l 1,7,-1
 1008 -51 l 1,8,-1
 -16 -51 l 1,9,-1
 -16 0 l 1,10,-1
 353 0 l 1,11,-1
 353 188 l 1,12,-1
 -16 188 l 1,13,-1
 -16 264 l 1,14,-1
 60 358 l 1,15,-1
 -16 358 l 1,16,-1
 -16 410 l 1,17,-1
 101 410 l 1,18,-1
 390 768 l 1,19,-1
 -16 768 l 1,20,-1
 -16 819 l 1,21,-1
 168 819 l 1,22,23
 97 831 97 831 97 872 c 0,24,25
 97 893 97 893 109 898 c 128,-1,26
 121 903 121 903 150 903 c 2,27,-1
 160 903 l 2,28,29
 174 903 174 903 188.5 900 c 128,-1,30
 203 897 203 897 230 883 c 0,31,32
 254 872 254 872 272.5 866 c 128,-1,33
 291 860 291 860 308 860 c 0,34,35
 328 860 328 860 353 870 c 0,36,37
 385 881 385 881 412 891 c 128,-1,38
 439 901 439 901 457.5 916.5 c 128,-1,39
 476 932 476 932 488 954.5 c 128,-1,40
 500 977 500 977 506 1014 c 0,41,42
 508 1022 508 1022 508 1038 c 0,43,44
 508 1083 508 1083 483.5 1119 c 128,-1,45
 459 1155 459 1155 418 1178 c 1,46,-1
 -16 1178 l 1,47,-1
 -16 1229 l 1,48,-1
 238 1229 l 1,49,-1
 238 1241 l 1,50,51
 275 1247 275 1247 299.5 1252 c 128,-1,52
 324 1257 324 1257 342.5 1263.5 c 128,-1,53
 361 1270 361 1270 376.5 1279 c 128,-1,54
 392 1288 392 1288 408 1300 c 0,55,56
 435 1323 435 1323 461.5 1362 c 128,-1,57
 488 1401 488 1401 488 1436 c 0,58,59
 488 1493 488 1493 445 1517.5 c 128,-1,60
 402 1542 402 1542 334 1542 c 0,61,62
 271 1542 271 1542 230 1511.5 c 128,-1,63
 189 1481 189 1481 144 1415 c 1,64,-1
 101 1415 l 1,65,66
 123 1470 123 1470 138.5 1496 c 128,-1,67
 154 1522 154 1522 187 1546 c 0,68,69
 220 1573 220 1573 265 1587 c 1,70,-1
 -16 1587 l 1,71,-1
 -16 1638 l 1,72,-1
 1008 1638 l 1,73,-1
 1008 1587 l 1,74,-1
 453 1587 l 1,75,76
 510 1569 510 1569 546 1531 c 128,-1,77
 582 1493 582 1493 582 1442 c 0,78,79
 582 1393 582 1393 555.5 1343.5 c 128,-1,80
 529 1294 529 1294 459 1253 c 1,81,82
 482 1243 482 1243 495 1238 c 128,-1,83
 508 1233 508 1233 516 1229 c 1,84,-1
 1008 1229 l 1,85,-1
 1008 1178 l 1,86,-1
 572 1178 l 1,87,88
 588 1157 588 1157 598.5 1134.5 c 128,-1,89
 609 1112 609 1112 609 1077 c 0,90,91
 609 946 609 946 504 879 c 0,92,93
 471 854 471 854 428 839.5 c 128,-1,94
 385 825 385 825 338 819 c 1,95,-1
 1008 819 l 1,96,-1
 1008 768 l 1,97,-1
 455 768 l 1,98,-1
 455 410 l 1,99,-1
 1008 410 l 1,100,-1
 1008 358 l 1,0,-1
62 264 m 1,101,-1
 353 264 l 1,102,-1
 353 358 l 1,103,-1
 140 358 l 1,104,-1
 62 264 l 1,101,-1
181 410 m 1,105,-1
 353 410 l 1,106,-1
 353 618 l 1,107,-1
 181 410 l 1,105,-1
EndSplineSet
EndChar

StartChar: four
Encoding: 52 52 23
Width: 992
GlyphClass: 1
Flags: W
LayerCount: 2
Fore
SplineSet
1008 358 m 1,0,-1
 455 358 l 1,1,-1
 455 264 l 1,2,-1
 590 264 l 1,3,-1
 590 188 l 1,4,-1
 455 188 l 1,5,-1
 455 0 l 1,6,-1
 1008 0 l 1,7,-1
 1008 -51 l 1,8,-1
 -16 -51 l 1,9,-1
 -16 0 l 1,10,-1
 353 0 l 1,11,-1
 353 188 l 1,12,-1
 -16 188 l 1,13,-1
 -16 264 l 1,14,-1
 60 358 l 1,15,-1
 -16 358 l 1,16,-1
 -16 410 l 1,17,-1
 101 410 l 1,18,-1
 390 768 l 1,19,-1
 -16 768 l 1,20,-1
 -16 819 l 1,21,-1
 353 819 l 1,22,-1
 353 1010 l 1,23,-1
 -16 1010 l 1,24,-1
 -16 1085 l 1,25,-1
 58 1178 l 1,26,-1
 -16 1178 l 1,27,-1
 -16 1229 l 1,28,-1
 99 1229 l 1,29,-1
 387 1587 l 1,30,-1
 -16 1587 l 1,31,-1
 -16 1638 l 1,32,-1
 1008 1638 l 1,33,-1
 1008 1587 l 1,34,-1
 455 1587 l 1,35,-1
 455 1229 l 1,36,-1
 1008 1229 l 1,37,-1
 1008 1178 l 1,38,-1
 455 1178 l 1,39,-1
 455 1085 l 1,40,-1
 590 1085 l 1,41,-1
 590 1010 l 1,42,-1
 455 1010 l 1,43,-1
 455 819 l 1,44,-1
 1008 819 l 1,45,-1
 1008 768 l 1,46,-1
 455 768 l 1,47,-1
 455 410 l 1,48,-1
 1008 410 l 1,49,-1
 1008 358 l 1,0,-1
62 264 m 1,50,-1
 353 264 l 1,51,-1
 353 358 l 1,52,-1
 140 358 l 1,53,-1
 62 264 l 1,50,-1
62 1085 m 1,54,-1
 353 1085 l 1,55,-1
 353 1178 l 1,56,-1
 138 1178 l 1,57,-1
 62 1085 l 1,54,-1
179 1229 m 1,58,-1
 353 1229 l 1,59,-1
 353 1440 l 1,60,-1
 179 1229 l 1,58,-1
181 410 m 1,61,-1
 353 410 l 1,62,-1
 353 618 l 1,63,-1
 181 410 l 1,61,-1
EndSplineSet
EndChar

StartChar: five
Encoding: 53 53 24
Width: 992
GlyphClass: 1
Flags: W
LayerCount: 2
Fore
SplineSet
1008 -51 m 1,0,-1
 -16 -51 l 1,1,-1
 -16 0 l 1,2,-1
 9 0 l 1,3,-1
 9 14 l 1,4,-1
 181 203 l 2,5,6
 215 244 215 244 252 281.5 c 128,-1,7
 289 319 289 319 324 358 c 1,8,-1
 -16 358 l 1,9,-1
 -16 410 l 1,10,-1
 363 410 l 1,11,12
 387 442 387 442 401.5 472 c 128,-1,13
 416 502 416 502 416 530 c 0,14,15
 416 606 416 606 365 651 c 128,-1,16
 314 696 314 696 228 696 c 0,17,18
 193 696 193 696 170.5 690 c 128,-1,19
 148 684 148 684 129.5 666.5 c 128,-1,20
 111 649 111 649 94.5 621.5 c 128,-1,21
 78 594 78 594 58 551 c 1,22,-1
 9 551 l 1,23,24
 25 614 25 614 44.5 645 c 128,-1,25
 64 676 64 676 95 709 c 1,26,27
 146 754 146 754 195 768 c 1,28,-1
 -16 768 l 1,29,-1
 -16 819 l 1,30,-1
 99 819 l 1,31,32
 37 831 37 831 37 870 c 0,33,34
 37 891 37 891 50.5 896 c 128,-1,35
 64 901 64 901 88 901 c 2,36,-1
 99 901 l 2,37,38
 113 901 113 901 127.5 898 c 128,-1,39
 142 895 142 895 168 881 c 0,40,41
 193 868 193 868 212.5 864 c 128,-1,42
 232 860 232 860 248 860 c 0,43,44
 269 860 269 860 291 866 c 0,45,46
 324 877 324 877 351.5 887 c 128,-1,47
 379 897 379 897 399.5 912.5 c 128,-1,48
 420 928 420 928 432.5 951.5 c 128,-1,49
 445 975 445 975 449 1012 c 1,50,-1
 449 1026 l 2,51,52
 449 1075 449 1075 421.5 1115 c 128,-1,53
 394 1155 394 1155 346 1178 c 1,54,-1
 -16 1178 l 1,55,-1
 -16 1229 l 1,56,-1
 181 1229 l 1,57,-1
 181 1237 l 1,58,59
 217 1243 217 1243 242 1248 c 128,-1,60
 267 1253 267 1253 285 1259.5 c 128,-1,61
 303 1266 303 1266 317.5 1274 c 128,-1,62
 332 1282 332 1282 349 1296 c 0,63,64
 373 1321 373 1321 400.5 1359 c 128,-1,65
 428 1397 428 1397 428 1432 c 0,66,67
 428 1489 428 1489 385 1513.5 c 128,-1,68
 342 1538 342 1538 277 1538 c 0,69,70
 211 1538 211 1538 169 1507.5 c 128,-1,71
 127 1477 127 1477 84 1411 c 1,72,-1
 39 1411 l 1,73,74
 62 1466 62 1466 79.5 1492 c 128,-1,75
 97 1518 97 1518 127 1540 c 0,76,77
 164 1571 164 1571 211 1587 c 1,78,-1
 -16 1587 l 1,79,-1
 -16 1638 l 1,80,-1
 1008 1638 l 1,81,-1
 1008 1587 l 1,82,-1
 390 1587 l 1,83,84
 449 1569 449 1569 486 1531 c 128,-1,85
 523 1493 523 1493 523 1440 c 0,86,87
 523 1391 523 1391 495 1341.5 c 128,-1,88
 467 1292 467 1292 402 1251 c 1,89,90
 420 1243 420 1243 432.5 1238 c 128,-1,91
 445 1233 445 1233 453 1229 c 1,92,-1
 1008 1229 l 1,93,-1
 1008 1178 l 1,94,-1
 512 1178 l 1,95,96
 531 1155 531 1155 541 1133.5 c 128,-1,97
 551 1112 551 1112 551 1075 c 0,98,99
 551 944 551 944 443 877 c 1,100,101
 385 831 385 831 293 819 c 1,102,-1
 1008 819 l 1,103,-1
 1008 768 l 1,104,-1
 369 768 l 1,105,106
 441 745 441 745 485 694 c 128,-1,107
 529 643 529 643 529 578 c 0,108,109
 529 492 529 492 465 410 c 1,110,-1
 1008 410 l 1,111,-1
 1008 358 l 1,112,-1
 424 358 l 1,113,114
 408 342 408 342 391.5 324.5 c 128,-1,115
 375 307 375 307 357 289 c 2,116,-1
 156 88 l 1,117,-1
 576 88 l 1,118,-1
 576 0 l 1,119,-1
 1008 0 l 1,120,-1
 1008 -51 l 1,0,-1
EndSplineSet
EndChar

StartChar: six
Encoding: 54 54 25
Width: 992
GlyphClass: 1
Flags: W
LayerCount: 2
Fore
SplineSet
1008 819 m 1,0,-1
 1008 768 l 1,1,-1
 422 768 l 1,2,3
 484 750 484 750 513.5 701.5 c 128,-1,4
 543 653 543 653 543 598 c 0,5,6
 543 569 543 569 540 545.5 c 128,-1,7
 537 522 537 522 523.5 499.5 c 128,-1,8
 510 477 510 477 483.5 455.5 c 128,-1,9
 457 434 457 434 412 410 c 1,10,-1
 1008 410 l 1,11,-1
 1008 358 l 1,12,-1
 484 358 l 1,13,14
 539 317 539 317 577 270 c 128,-1,15
 615 223 615 223 615 168 c 0,16,17
 615 90 615 90 574 53 c 128,-1,18
 533 16 533 16 465 0 c 1,19,-1
 1008 0 l 1,20,-1
 1008 -51 l 1,21,-1
 -16 -51 l 1,22,-1
 -16 0 l 1,23,-1
 162 0 l 1,24,25
 86 20 86 20 35 55 c 128,-1,26
 -16 90 -16 90 -16 168 c 0,27,28
 -16 195 -16 195 -2.5 223.5 c 128,-1,29
 11 252 11 252 32.5 277.5 c 128,-1,30
 54 303 54 303 81.5 324.5 c 128,-1,31
 109 346 109 346 138 358 c 1,32,-1
 -16 358 l 1,33,-1
 -16 410 l 1,34,-1
 193 410 l 1,35,36
 150 440 150 440 124.5 463.5 c 128,-1,37
 99 487 99 487 86.5 508.5 c 128,-1,38
 74 530 74 530 70 550.5 c 128,-1,39
 66 571 66 571 66 598 c 0,40,41
 66 657 66 657 98.5 702.5 c 128,-1,42
 131 748 131 748 201 768 c 1,43,-1
 -16 768 l 1,44,-1
 -16 819 l 1,45,-1
 189 819 l 1,46,47
 129 836 129 836 92.5 867.5 c 128,-1,48
 56 899 56 899 35.5 942 c 128,-1,49
 15 985 15 985 8.5 1036 c 128,-1,50
 2 1087 2 1087 2 1143 c 2,51,-1
 2 1178 l 1,52,-1
 -16 1178 l 1,53,-1
 -16 1229 l 1,54,-1
 9 1229 l 1,55,56
 23 1292 23 1292 51.5 1352.5 c 128,-1,57
 80 1413 80 1413 124 1460 c 128,-1,58
 168 1507 168 1507 226.5 1541 c 128,-1,59
 285 1575 285 1575 359 1587 c 1,60,-1
 -16 1587 l 1,61,-1
 -16 1638 l 1,62,-1
 1008 1638 l 1,63,-1
 1008 1587 l 1,64,-1
 486 1587 l 1,65,-1
 486 1516 l 1,66,67
 322 1516 322 1516 225.5 1438 c 128,-1,68
 129 1360 129 1360 101 1229 c 1,69,70
 119 1243 119 1243 135.5 1256.5 c 128,-1,71
 152 1270 152 1270 173.5 1280 c 128,-1,72
 195 1290 195 1290 225.5 1296.5 c 128,-1,73
 256 1303 256 1303 306 1303 c 0,74,75
 359 1303 359 1303 390.5 1297.5 c 128,-1,76
 422 1292 422 1292 443.5 1283 c 128,-1,77
 465 1274 465 1274 479.5 1260.5 c 128,-1,78
 494 1247 494 1247 510 1229 c 1,79,-1
 1008 1229 l 1,80,-1
 1008 1178 l 1,81,-1
 545 1178 l 1,82,83
 559 1155 559 1155 569.5 1125.5 c 128,-1,84
 580 1096 580 1096 580 1065 c 0,85,86
 580 963 580 963 538 901.5 c 128,-1,87
 496 840 496 840 394 819 c 1,88,-1
 1008 819 l 1,0,-1
127 1178 m 1,89,90
 117 1174 117 1174 111 1168.5 c 128,-1,91
 105 1163 105 1163 103 1149 c 0,92,93
 103 1100 103 1100 110 1053 c 128,-1,94
 117 1006 117 1006 139.5 968 c 128,-1,95
 162 930 162 930 201 907.5 c 128,-1,96
 240 885 240 885 306 885 c 0,97,98
 394 885 394 885 436 937 c 128,-1,99
 478 989 478 989 478 1061 c 0,100,101
 478 1100 478 1100 463.5 1130.5 c 128,-1,102
 449 1161 449 1161 433 1178 c 1,103,-1
 127 1178 l 1,89,90
285 358 m 1,104,105
 220 317 220 317 171.5 267 c 128,-1,106
 123 217 123 217 123 160 c 0,107,108
 123 129 123 129 139.5 109.5 c 128,-1,109
 156 90 156 90 183.5 78 c 128,-1,110
 211 66 211 66 246 61.5 c 128,-1,111
 281 57 281 57 316 57 c 0,112,113
 353 57 353 57 385.5 63.5 c 128,-1,114
 418 70 418 70 444.5 83 c 128,-1,115
 471 96 471 96 486.5 115.5 c 128,-1,116
 502 135 502 135 502 160 c 0,117,118
 502 207 502 207 454 259 c 128,-1,119
 406 311 406 311 326 358 c 1,120,-1
 285 358 l 1,104,105
316 455 m 1,121,122
 346 473 346 473 370 487.5 c 128,-1,123
 394 502 394 502 409 516 c 128,-1,124
 424 530 424 530 432.5 549.5 c 128,-1,125
 441 569 441 569 441 598 c 0,126,127
 441 659 441 659 402 685 c 128,-1,128
 363 711 363 711 314 711 c 0,129,130
 248 711 248 711 209 678 c 128,-1,131
 170 645 170 645 170 598 c 0,132,133
 170 573 170 573 174.5 557 c 128,-1,134
 179 541 179 541 193 525.5 c 128,-1,135
 207 510 207 510 232.5 493.5 c 128,-1,136
 258 477 258 477 299 455 c 1,137,-1
 316 455 l 1,121,122
EndSplineSet
EndChar

StartChar: seven
Encoding: 55 55 26
Width: 992
GlyphClass: 1
Flags: W
LayerCount: 2
Fore
SplineSet
1008 358 m 1,0,-1
 365 358 l 1,1,-1
 365 117 l 1,2,-1
 275 117 l 1,3,-1
 275 358 l 1,4,-1
 -16 358 l 1,5,-1
 -16 410 l 1,6,-1
 238 410 l 1,7,8
 168 442 168 442 99 518 c 0,9,10
 13 610 13 610 7 768 c 1,11,-1
 -16 768 l 1,12,-1
 -16 819 l 1,13,-1
 7 819 l 1,14,15
 15 940 15 940 84 1034 c 0,16,17
 125 1087 125 1087 175.5 1123 c 128,-1,18
 226 1159 226 1159 275 1174 c 1,19,-1
 275 1178 l 1,20,-1
 -16 1178 l 1,21,-1
 -16 1229 l 1,22,-1
 275 1229 l 1,23,-1
 275 1452 l 1,24,-1
 369 1452 l 1,25,-1
 369 1229 l 1,26,-1
 1008 1229 l 1,27,-1
 1008 1178 l 1,28,-1
 424 1178 l 1,29,30
 441 1174 441 1174 459.5 1167.5 c 128,-1,31
 478 1161 478 1161 496 1155 c 0,32,33
 564 1135 564 1135 611 1073 c 0,34,35
 652 1020 652 1020 652 944 c 0,36,37
 652 870 652 870 584 831 c 1,38,-1
 535 819 l 1,39,-1
 1008 819 l 1,40,-1
 1008 768 l 1,41,-1
 369 768 l 1,42,-1
 369 449 l 1,43,44
 400 453 400 453 421.5 457 c 128,-1,45
 443 461 443 461 464.5 468 c 128,-1,46
 486 475 486 475 498 487 c 0,47,48
 523 508 523 508 544.5 532.5 c 128,-1,49
 566 557 566 557 580 588 c 0,50,51
 619 657 619 657 619 705 c 1,52,-1
 658 705 l 1,53,54
 639 547 639 547 555 469 c 0,55,56
 508 426 508 426 461 410 c 1,57,-1
 1008 410 l 1,58,-1
 1008 358 l 1,0,-1
1008 1587 m 1,59,-1
 -16 1587 l 1,60,-1
 -16 1638 l 1,61,-1
 1008 1638 l 1,62,-1
 1008 1587 l 1,59,-1
1008 -51 m 1,63,-1
 -16 -51 l 1,64,-1
 -16 0 l 1,65,-1
 1008 0 l 1,66,-1
 1008 -51 l 1,63,-1
498 819 m 1,67,68
 482 823 482 823 472.5 830.5 c 128,-1,69
 463 838 463 838 453 856 c 0,70,71
 443 870 443 870 439 883.5 c 128,-1,72
 435 897 435 897 430 920 c 1,73,-1
 430 926 l 2,74,75
 430 948 430 948 437.5 968.5 c 128,-1,76
 445 989 445 989 455 1006 c 0,77,78
 463 1022 463 1022 477.5 1036.5 c 128,-1,79
 492 1051 492 1051 512 1055 c 1,80,81
 543 1055 543 1055 543 1071 c 0,82,83
 543 1081 543 1081 521 1100 c 1,84,-1
 463 1124 l 2,85,86
 455 1126 455 1126 438.5 1129.5 c 128,-1,87
 422 1133 422 1133 406 1133 c 0,88,89
 383 1133 383 1133 369 1128 c 1,90,-1
 369 819 l 1,91,-1
 498 819 l 1,67,68
162 684 m 1,92,93
 172 625 172 625 183.5 587 c 128,-1,94
 195 549 195 549 208.5 525.5 c 128,-1,95
 222 502 222 502 238 489.5 c 128,-1,96
 254 477 254 477 275 469 c 1,97,-1
 275 768 l 1,98,-1
 162 768 l 1,99,-1
 162 684 l 1,92,93
275 1104 m 1,100,101
 273 1102 273 1102 255.5 1085.5 c 128,-1,102
 238 1069 238 1069 210.5 1016 c 128,-1,103
 183 963 183 963 162 872 c 1,104,-1
 162 819 l 1,105,-1
 275 819 l 1,106,-1
 275 1104 l 1,100,101
EndSplineSet
EndChar

StartChar: eight
Encoding: 56 56 27
Width: 480
GlyphClass: 1
Flags: W
LayerCount: 2
Fore
SplineSet
496 1178 m 1,0,-1
 478 1178 l 1,1,-1
 355 819 l 1,2,-1
 496 819 l 1,3,-1
 496 768 l 1,4,-1
 336 768 l 1,5,-1
 211 410 l 1,6,-1
 496 410 l 1,7,-1
 496 358 l 1,8,-1
 -16 358 l 1,9,-1
 -16 410 l 1,10,-1
 158 410 l 1,11,-1
 283 768 l 1,12,-1
 265 768 l 1,13,14
 228 739 228 739 200 727 c 128,-1,15
 172 715 172 715 121 711 c 0,16,17
 109 711 109 711 90.5 715 c 128,-1,18
 72 719 72 719 53.5 726 c 128,-1,19
 35 733 35 733 19.5 744.5 c 128,-1,20
 4 756 4 756 0 768 c 1,21,-1
 -16 768 l 1,22,-1
 -16 836 l 2,23,24
 -16 883 -16 883 14.5 918.5 c 128,-1,25
 45 954 45 954 95 954 c 0,26,27
 125 954 125 954 166 918 c 1,28,29
 191 881 191 881 191 836 c 1,30,-1
 183 819 l 1,31,-1
 279 819 l 1,32,33
 287 823 287 823 294 828.5 c 128,-1,34
 301 834 301 834 310 842 c 1,35,-1
 424 1178 l 1,36,-1
 406 1178 l 1,37,38
 369 1149 369 1149 341.5 1136.5 c 128,-1,39
 314 1124 314 1124 263 1120 c 0,40,41
 250 1120 250 1120 231.5 1124 c 128,-1,42
 213 1128 213 1128 195 1135.5 c 128,-1,43
 177 1143 177 1143 161.5 1154 c 128,-1,44
 146 1165 146 1165 142 1178 c 1,45,-1
 -16 1178 l 1,46,-1
 -16 1229 l 1,47,-1
 125 1229 l 1,48,-1
 125 1245 l 2,49,50
 125 1292 125 1292 156 1328 c 128,-1,51
 187 1364 187 1364 236 1364 c 0,52,53
 267 1364 267 1364 308 1327 c 1,54,55
 332 1290 332 1290 332 1245 c 1,56,-1
 324 1229 l 1,57,-1
 496 1229 l 1,58,-1
 496 1178 l 1,0,-1
496 -51 m 1,59,-1
 -16 -51 l 1,60,-1
 -16 0 l 1,61,-1
 496 0 l 1,62,-1
 496 -51 l 1,59,-1
496 1587 m 1,63,-1
 -16 1587 l 1,64,-1
 -16 1638 l 1,65,-1
 496 1638 l 1,66,-1
 496 1587 l 1,63,-1
EndSplineSet
EndChar

StartChar: nine
Encoding: 57 57 28
Width: 480
GlyphClass: 1
Flags: W
LayerCount: 2
Fore
SplineSet
202 1178 m 0,0,1
 232 1136 232 1136 230 1083 c 0,2,3
 226 1067 226 1067 217.5 1052.5 c 128,-1,4
 209 1038 209 1038 209 1028 c 0,5,6
 209 1016 209 1016 226 1010 c 0,7,8
 232 1008 232 1008 246 1008 c 0,9,10
 273 1008 273 1008 298.5 1024 c 128,-1,11
 324 1040 324 1040 343.5 1060.5 c 128,-1,12
 363 1081 363 1081 386 1114 c 1,13,-1
 420 1114 l 1,14,15
 400 1038 400 1038 372.5 943 c 128,-1,16
 345 848 345 848 322 768 c 0,17,18
 297 676 297 676 262 558 c 128,-1,19
 227 440 227 440 205 358 c 0,20,21
 201 344 201 344 198 330.5 c 128,-1,22
 195 317 195 317 191 307 c 1,23,-1
 125 307 l 1,24,-1
 154 410 l 1,25,-1
 254 768 l 1,26,-1
 316 989 l 1,27,28
 277 954 277 954 241 934.5 c 128,-1,29
 205 915 205 915 166 915 c 0,30,31
 136 915 136 915 103 928.5 c 128,-1,32
 70 942 70 942 31 973 c 0,33,34
 7 993 7 993 -4.5 1022 c 128,-1,35
 -16 1051 -16 1051 -16 1081 c 0,36,37
 -16 1133 -16 1133 18 1178 c 0,38,39
 54 1224 54 1224 118 1225 c 0,40,41
 165 1226 165 1226 202 1178 c 0,0,1
EndSplineSet
EndChar

StartChar: colon
Encoding: 58 58 29
Width: 480
GlyphClass: 1
Flags: W
LayerCount: 2
Fore
SplineSet
153 354 m 128,-1,1
 152 350 152 350 150 342 c 128,-1,2
 148 334 148 334 148 326 c 0,3,4
 148 319 148 319 154 293.5 c 128,-1,5
 160 268 160 268 171.5 239.5 c 128,-1,6
 183 211 183 211 199 184.5 c 128,-1,7
 215 158 215 158 238 150 c 1,8,9
 213 102 213 102 213 102 c 1,10,11
 191 115 191 115 161 139.5 c 128,-1,12
 131 164 131 164 100.5 197.5 c 128,-1,13
 70 231 70 231 40.5 272 c 128,-1,14
 11 313 11 313 -10 358 c 1,15,16
 -10 358 -10 358 -14 376 c 2,17,-1
 -16 410 l 2,18,19
 -20 473 -20 473 29 514 c 0,20,21
 74 553 74 553 140 553 c 0,22,23
 170 553 170 553 197 549 c 128,-1,24
 224 545 224 545 260 526 c 1,25,26
 260 526 260 526 82 768 c 1,27,-1
 77 774 l 1,28,-1
 64 791 l 1,29,-1
 43 819 l 1,30,-1
 11 864 l 1,31,32
 109 958 109 958 149 1025 c 128,-1,33
 189 1092 189 1092 189 1149 c 0,34,35
 189 1155 189 1155 187 1162.5 c 128,-1,36
 185 1170 185 1170 181 1178 c 2,37,38
 181 1178 181 1178 178 1185 c 2,39,-1
 166 1209 l 1,40,-1
 158 1229 l 2,41,42
 146 1266 146 1266 121.5 1306 c 128,-1,43
 97 1346 97 1346 64 1393 c 1,44,45
 64 1393 64 1393 146 1393 c 1,46,-1
 279 1229 l 1,47,-1
 301 1202 l 1,48,-1
 312 1189 l 1,49,-1
 322 1178 l 1,50,-1
 420 1057 l 1,51,52
 385 1020 385 1020 350.5 967.5 c 128,-1,53
 316 915 316 915 258 819 c 1,54,55
 258 819 258 819 249 800 c 2,56,-1
 242 784 l 1,57,-1
 242 768 l 2,58,59
 242 748 242 748 257.5 701.5 c 128,-1,60
 273 655 273 655 297.5 603 c 128,-1,61
 322 551 322 551 352.5 502 c 128,-1,62
 383 453 383 453 414 426 c 1,63,64
 384 390 384 390 384 390 c 129,-1,65
 384 390 384 390 353 410 c 0,66,67
 336 420 336 420 310.5 438.5 c 128,-1,68
 285 457 285 457 244 457 c 0,69,70
 222 457 222 457 205.5 441.5 c 128,-1,71
 189 426 189 426 177 410 c 1,72,0
 154 358 154 358 153 354 c 128,-1,1
EndSplineSet
EndChar

StartChar: semicolon
Encoding: 59 59 30
Width: 1020
GlyphClass: 1
Flags: W
LayerCount: 2
Fore
SplineSet
862 768 m 1,0,-1
 144 768 l 1,1,-1
 144 983 l 1,2,-1
 861 983 l 1,3,-1
 861 819 l 1,4,-1
 862 819 l 1,5,-1
 862 768 l 1,0,-1
EndSplineSet
EndChar

StartChar: less
Encoding: 60 60 31
Width: 1060
GlyphClass: 1
Flags: W
LayerCount: 2
Fore
SplineSet
897 1178 m 1,0,-1
 897 1178 l 1,1,-1
 897 1014 l 1,2,-1
 180 1014 l 1,3,-1
 180 1229 l 1,4,-1
 897 1229 l 1,5,-1
 897 1178 l 1,0,-1
EndSplineSet
EndChar

StartChar: equal
Encoding: 61 61 32
Width: 480
GlyphClass: 1
Flags: W
LayerCount: 2
Fore
SplineSet
496 410 m 1,0,-1
 496 358 l 1,1,-1
 -16 358 l 1,2,-1
 -16 410 l 1,3,-1
 496 410 l 1,0,-1
496 1638 m 1,4,-1
 496 1587 l 1,5,-1
 -16 1587 l 1,6,-1
 -16 1638 l 1,7,-1
 496 1638 l 1,4,-1
496 1229 m 1,8,-1
 496 1178 l 1,9,-1
 -16 1178 l 1,10,-1
 -16 1229 l 1,11,-1
 496 1229 l 1,8,-1
496 819 m 1,12,-1
 496 768 l 1,13,-1
 -16 768 l 1,14,-1
 -16 819 l 1,15,-1
 496 819 l 1,12,-1
496 0 m 1,16,-1
 496 -51 l 1,17,-1
 -16 -51 l 1,18,-1
 -16 0 l 1,19,-1
 496 0 l 1,16,-1
EndSplineSet
EndChar

StartChar: greater
Encoding: 62 62 33
Width: 20
GlyphClass: 1
Flags: W
LayerCount: 2
Fore
SplineSet
572 1958 m 1,0,1
 572 2013 572 2013 553.5 2062 c 128,-1,2
 535 2111 535 2111 503 2146 c 128,-1,3
 471 2181 471 2181 426 2201.5 c 128,-1,4
 381 2222 381 2222 328 2222 c 0,5,6
 279 2222 279 2222 236 2200.5 c 128,-1,7
 193 2179 193 2179 159 2142 c 128,-1,8
 125 2105 125 2105 105.5 2057 c 128,-1,9
 86 2009 86 2009 86 1958 c 1,10,-1
 -16 1958 l 1,11,12
 -16 2030 -16 2030 9.5 2096.5 c 128,-1,13
 35 2163 35 2163 81 2213 c 128,-1,14
 127 2263 127 2263 190.5 2293.5 c 128,-1,15
 254 2324 254 2324 328 2324 c 256,16,17
 402 2324 402 2324 465.5 2293.5 c 128,-1,18
 529 2263 529 2263 575 2213 c 128,-1,19
 621 2163 621 2163 647.5 2096.5 c 128,-1,20
 674 2030 674 2030 674 1958 c 1,21,-1
 572 1958 l 1,0,1
430 2005 m 2,22,23
 430 1956 430 1956 399.5 1931.5 c 128,-1,24
 369 1907 369 1907 328 1907 c 0,25,26
 226 1907 226 1907 226 2017 c 0,27,28
 226 2064 226 2064 255.5 2087.5 c 128,-1,29
 285 2111 285 2111 328 2111 c 0,30,31
 369 2111 369 2111 399.5 2083.5 c 128,-1,32
 430 2056 430 2056 430 2009 c 2,33,-1
 430 2005 l 2,22,23
EndSplineSet
EndChar

StartChar: question
Encoding: 63 63 34
Width: 20
GlyphClass: 1
Flags: W
LayerCount: 2
Fore
SplineSet
572 2359 m 1,0,1
 572 2415 572 2415 553.5 2464 c 128,-1,2
 535 2513 535 2513 503 2548 c 128,-1,3
 471 2583 471 2583 426 2603 c 128,-1,4
 381 2623 381 2623 328 2623 c 0,5,6
 279 2623 279 2623 236 2601.5 c 128,-1,7
 193 2580 193 2580 159 2543.5 c 128,-1,8
 125 2507 125 2507 105.5 2458.5 c 128,-1,9
 86 2410 86 2410 86 2359 c 1,10,-1
 -16 2359 l 1,11,12
 -16 2431 -16 2431 9.5 2497.5 c 128,-1,13
 35 2564 35 2564 81 2614 c 128,-1,14
 127 2664 127 2664 190.5 2695 c 128,-1,15
 254 2726 254 2726 328 2726 c 256,16,17
 402 2726 402 2726 465.5 2695 c 128,-1,18
 529 2664 529 2664 575 2614 c 128,-1,19
 621 2564 621 2564 647.5 2497.5 c 128,-1,20
 674 2431 674 2431 674 2359 c 1,21,-1
 572 2359 l 1,0,1
430 2406 m 2,22,23
 430 2357 430 2357 399.5 2332.5 c 128,-1,24
 369 2308 369 2308 328 2308 c 0,25,26
 226 2308 226 2308 226 2419 c 0,27,28
 226 2466 226 2466 255.5 2489.5 c 128,-1,29
 285 2513 285 2513 328 2513 c 0,30,31
 369 2513 369 2513 399.5 2485.5 c 128,-1,32
 430 2458 430 2458 430 2410 c 2,33,-1
 430 2406 l 2,22,23
EndSplineSet
EndChar

StartChar: at
Encoding: 64 64 35
Width: 920
GlyphClass: 1
Flags: W
LayerCount: 2
Fore
SplineSet
568 15 m 1,0,1
 568 15 568 15 566 -410 c 1,2,-1
 718 -410 l 1,3,-1
 718 -461 l 1,4,-1
 566 -461 l 1,5,-1
 566 -786 l 2,6,7
 566 -813 566 -813 560 -819 c 1,8,9
 560 -819 560 -819 718 -819 c 1,10,-1
 718 -870 l 1,11,-1
 543 -870 l 1,12,13
 537 -881 537 -881 534 -889 c 128,-1,14
 531 -897 531 -897 521 -909 c 0,15,16
 507 -932 507 -932 481 -954.5 c 128,-1,17
 455 -977 455 -977 419 -993 c 0,18,19
 386 -1010 386 -1010 352 -1017 c 128,-1,20
 318 -1024 318 -1024 283 -1024 c 0,21,22
 220 -1024 220 -1024 183 -993 c 1,23,24
 140 -963 140 -963 140 -897 c 2,25,26
 140 -897 140 -897 140 -870 c 1,27,-1
 -10 -870 l 1,28,-1
 -10 -819 l 1,29,-1
 152 -819 l 1,30,31
 156 -809 156 -809 165.5 -796.5 c 128,-1,32
 175 -784 175 -784 181 -778 c 0,33,34
 201 -754 201 -754 227 -733.5 c 128,-1,35
 253 -713 253 -713 287 -696 c 0,36,37
 355 -666 355 -666 410 -666 c 0,38,39
 455 -666 455 -666 476.5 -675 c 128,-1,40
 498 -684 498 -684 515 -700 c 1,41,42
 515 -700 515 -700 515 -461 c 1,43,-1
 -10 -461 l 1,44,-1
 -10 -410 l 1,45,-1
 515 -410 l 1,46,-1
 517 402 l 1,47,-1
 568 402 l 1,48,49
 572 361 572 361 581.5 327 c 128,-1,50
 591 293 591 293 601 265 c 0,51,52
 607 249 607 249 612 228 c 0,53,54
 614 221 614 221 627 197 c 2,55,56
 627 197 627 197 638 180 c 2,57,-1
 654 160 l 1,58,-1
 681 128 l 1,59,-1
 730 68 l 1,60,-1
 820 -36 l 1,61,62
 922 -169 922 -169 922 -315 c 0,63,64
 922 -350 922 -350 916 -392 c 128,-1,65
 910 -434 910 -434 892 -479 c 0,66,67
 878 -514 878 -514 868 -537 c 0,68,69
 854 -569 854 -569 842 -589 c 1,70,71
 842 -589 842 -589 812 -591 c 1,72,-1
 847 -501 l 1,73,74
 847 -501 847 -501 859 -464 c 0,75,76
 868 -436 868 -436 869 -423 c 2,77,78
 869 -423 869 -423 875 -368 c 2,79,-1
 877 -343 l 1,80,-1
 877 -303 l 1,81,82
 871 -278 871 -278 869 -270 c 0,83,84
 868 -266 868 -266 853 -221 c 0,85,86
 832 -157 832 -157 783 -106 c 1,87,88
 741 -53 741 -53 685 -22 c 0,89,90
 656 -6 656 -6 624.5 4.5 c 128,-1,91
 593 15 593 15 568 15 c 1,0,1
EndSplineSet
EndChar

StartChar: A
Encoding: 65 65 36
Width: 933
GlyphClass: 1
Flags: W
LayerCount: 2
Fore
SplineSet
527 -410 m 1,0,-1
 1 -410 l 1,1,-1
 1 -461 l 1,2,-1
 390 -461 l 1,3,4
 367 -463 367 -463 344 -467 c 0,5,6
 326 -470 326 -470 299 -485 c 0,7,8
 260 -506 260 -506 239 -524 c 0,9,10
 213 -547 213 -547 193 -571 c 0,11,12
 170 -598 170 -598 161 -627.5 c 128,-1,13
 152 -657 152 -657 152 -688 c 256,14,15
 152 -719 152 -719 162 -744 c 0,16,17
 171 -767 171 -767 195 -786 c 0,18,19
 237 -819 237 -819 297 -819 c 0,20,21
 364 -819 364 -819 431 -786 c 0,22,23
 471 -766 471 -766 493 -746 c 0,24,25
 510 -731 510 -731 533 -700 c 0,26,27
 578 -639 578 -639 578 -580 c 2,28,29
 578 -580 578 -580 578 -461 c 1,30,-1
 733 -461 l 1,31,-1
 733 -410 l 1,32,-1
 578 -410 l 1,33,-1
 577 226 l 1,34,35
 602 226 602 226 633.5 215.5 c 128,-1,36
 665 205 665 205 694 189 c 0,37,38
 750 158 750 158 792 105 c 1,39,40
 841 54 841 54 862 -10 c 0,41,42
 877 -55 877 -55 878 -59 c 0,43,44
 880 -67 880 -67 886 -92 c 1,45,46
 886 -92 886 -92 886 -132 c 2,47,-1
 884 -157 l 1,48,-1
 878 -212 l 2,49,50
 876 -227 876 -227 868 -254 c 0,51,52
 856 -290 856 -290 856 -290 c 129,-1,53
 856 -290 856 -290 821 -380 c 1,54,-1
 851 -378 l 1,55,56
 863 -358 863 -358 877 -326 c 0,57,58
 887 -303 887 -303 901 -268 c 0,59,60
 919 -223 919 -223 925 -181 c 128,-1,61
 931 -139 931 -139 931 -104 c 0,62,63
 931 42 931 42 829 175 c 1,64,65
 829 175 829 175 739 279 c 2,66,-1
 690 339 l 1,67,-1
 663 371 l 1,68,-1
 647 391 l 1,69,-1
 636 408 l 2,70,71
 623 432 623 432 621 439 c 0,72,73
 616 460 616 460 610 476 c 0,74,75
 600 504 600 504 590.5 538 c 128,-1,76
 581 572 581 572 577 613 c 1,77,78
 577 613 577 613 526 613 c 1,79,-1
 527 410 l 1,80,-1
 527 -410 l 1,0,-1
439 -461 m 1,81,82
 467 -463 467 -463 488.5 -468 c 128,-1,83
 510 -473 510 -473 527 -487 c 1,84,-1
 527 -461 l 1,85,-1
 439 -461 l 1,81,82
EndSplineSet
EndChar

StartChar: B
Encoding: 66 66 37
Width: 933
GlyphClass: 1
Flags: W
LayerCount: 2
Fore
SplineSet
527 768 m 1,0,-1
 584 768 l 1,1,2
 589 736 589 736 596 720 c 0,3,4
 604 698 604 698 611 678 c 0,5,6
 635 610 635 610 656 584 c 2,7,8
 656 584 656 584 691 541 c 2,9,-1
 740 481 l 1,10,-1
 830 377 l 1,11,12
 932 244 932 244 932 98 c 0,13,14
 932 63 932 63 926 28 c 0,15,16
 919 -12 919 -12 902 -53 c 0,17,18
 886 -91 886 -91 878 -112 c 0,19,20
 869 -135 869 -135 852 -164 c 1,21,22
 852 -164 852 -164 822 -166 c 1,23,-1
 857 -76 l 2,24,25
 863 -57 863 -57 869 -38 c 0,26,27
 877 -12 877 -12 879 0 c 2,28,29
 879 0 879 0 885 45 c 2,30,-1
 887 70 l 1,31,-1
 887 111 l 1,32,33
 881 135 881 135 879 143 c 0,34,35
 873 168 873 168 863 193 c 0,36,37
 836 263 836 263 793 307 c 1,38,39
 748 364 748 364 695 391 c 0,40,41
 687 395 687 395 677.5 400.5 c 128,-1,42
 668 406 668 406 659 410 c 0,43,44
 636 418 636 418 614.5 423 c 128,-1,45
 593 428 593 428 577 428 c 1,46,47
 577 428 577 428 578 0 c 2,48,-1
 578 -397 l 2,49,50
 578 -408 578 -408 576 -410 c 1,51,52
 576 -410 576 -410 730 -410 c 1,53,-1
 730 -461 l 1,54,-1
 562 -461 l 1,55,56
 555 -471 555 -471 550 -480 c 0,57,58
 543 -492 543 -492 535 -502 c 0,59,60
 525 -514 525 -514 493 -542 c 0,61,62
 467 -565 467 -565 431 -582 c 0,63,64
 363 -614 363 -614 297 -614 c 0,65,66
 237 -614 237 -614 195 -582 c 0,67,68
 152 -549 152 -549 152 -487 c 2,69,70
 152 -487 152 -487 152 -461 c 1,71,-1
 2 -461 l 1,72,-1
 2 -410 l 1,73,-1
 166 -410 l 1,74,75
 170 -399 170 -399 178.5 -388 c 128,-1,76
 187 -377 187 -377 193 -371 c 0,77,78
 216 -348 216 -348 237 -326 c 0,79,80
 255 -308 255 -308 296 -288 c 0,81,82
 329 -272 329 -272 354 -264 c 0,83,84
 377 -256 377 -256 406 -256 c 0,85,86
 492 -256 492 -256 527 -291 c 1,87,88
 527 -291 527 -291 527 0 c 2,89,-1
 527 358 l 1,90,-1
 527 768 l 1,0,-1
EndSplineSet
EndChar

StartChar: C
Encoding: 67 67 38
Width: 762
GlyphClass: 1
Flags: W
LayerCount: 2
Fore
SplineSet
271 -51 m 0,0,1
 299 -53 299 -53 320.5 -58 c 128,-1,2
 342 -63 342 -63 359 -78 c 1,3,4
 359 -78 359 -78 359 358 c 2,5,-1
 360 821 l 1,6,-1
 359 1024 l 1,7,-1
 410 1024 l 1,8,9
 414 983 414 983 423.5 949 c 128,-1,10
 433 915 433 915 443 887 c 0,11,12
 449 871 449 871 454 850 c 0,13,14
 456 843 456 843 469 819 c 2,15,16
 469 819 469 819 480 802 c 2,17,-1
 496 782 l 1,18,-1
 523 750 l 1,19,-1
 572 690 l 1,20,-1
 662 586 l 1,21,22
 764 453 764 453 764 307 c 0,23,24
 764 272 764 272 758 230 c 128,-1,25
 752 188 752 188 734 143 c 0,26,27
 720 108 720 108 710 85 c 0,28,29
 696 53 696 53 684 33 c 1,30,31
 684 33 684 33 654 31 c 1,32,-1
 689 121 l 1,33,34
 689 121 689 121 701 158 c 0,35,36
 710 186 710 186 711 199 c 2,37,38
 711 199 711 199 717 254 c 2,39,-1
 719 279 l 1,40,-1
 719 319 l 1,41,42
 713 344 713 344 711 352 c 0,43,44
 710 356 710 356 695 401 c 0,45,46
 674 465 674 465 625 516 c 1,47,48
 583 569 583 569 527 600 c 0,49,50
 498 616 498 616 466.5 626.5 c 128,-1,51
 435 637 435 637 410 637 c 1,52,53
 410 637 410 637 410 410 c 2,54,-1
 410 -51 l 1,55,-1
 410 -170 l 2,56,57
 410 -231 410 -231 365 -291 c 0,58,59
 344 -319 344 -319 325 -336 c 0,60,61
 299 -360 299 -360 263 -377 c 0,62,63
 193 -410 193 -410 129 -410 c 128,-1,64
 65 -410 65 -410 27 -377 c 0,65,66
 3 -356 3 -356 -6 -334 c 0,67,68
 -16 -309 -16 -309 -16 -279 c 0,69,70
 -16 -248 -16 -248 -7 -218 c 128,-1,71
 2 -188 2 -188 25 -162 c 0,72,73
 54 -129 54 -129 71 -114 c 0,74,75
 88 -100 88 -100 131 -76 c 0,76,77
 160 -60 160 -60 176 -57 c 0,78,79
 215 -50 215 -50 237 -50 c 0,80,81
 239 -50 239 -50 242 -50 c 0,82,83
 269 -51 269 -51 271 -51 c 0,0,1
EndSplineSet
EndChar

StartChar: D
Encoding: 68 68 39
Width: 756
GlyphClass: 1
Flags: W
LayerCount: 2
Fore
SplineSet
271 148 m 0,0,1
 299 146 299 146 320.5 141 c 128,-1,2
 342 136 342 136 359 121 c 1,3,4
 359 121 359 121 359 557 c 2,5,-1
 360 1020 l 1,6,-1
 359 1223 l 1,7,-1
 410 1223 l 1,8,9
 414 1182 414 1182 423.5 1148 c 128,-1,10
 433 1114 433 1114 443 1086 c 0,11,12
 449 1070 449 1070 454 1049 c 0,13,14
 456 1042 456 1042 469 1018 c 2,15,16
 469 1018 469 1018 480 1001 c 2,17,-1
 496 981 l 1,18,-1
 523 949 l 1,19,-1
 572 889 l 1,20,-1
 662 785 l 1,21,22
 764 652 764 652 764 506 c 0,23,24
 764 471 764 471 758 429 c 128,-1,25
 752 387 752 387 734 342 c 0,26,27
 720 307 720 307 710 284 c 0,28,29
 696 252 696 252 684 232 c 1,30,31
 684 232 684 232 654 230 c 1,32,-1
 689 320 l 1,33,34
 689 320 689 320 701 356 c 0,35,36
 710 385 710 385 711 398 c 2,37,38
 711 398 711 398 717 453 c 2,39,-1
 719 478 l 1,40,-1
 719 518 l 1,41,42
 713 543 713 543 711 551 c 0,43,44
 710 555 710 555 695 600 c 0,45,46
 674 664 674 664 625 715 c 1,47,48
 583 768 583 768 527 799 c 0,49,50
 498 815 498 815 466.5 825.5 c 128,-1,51
 435 836 435 836 410 836 c 1,52,53
 410 836 410 836 410 609 c 2,54,-1
 410 148 l 1,55,-1
 410 29 l 2,56,57
 410 -32 410 -32 365 -92 c 0,58,59
 344 -120 344 -120 325 -138 c 0,60,61
 299 -161 299 -161 263 -178 c 0,62,63
 193 -211 193 -211 129 -211 c 128,-1,64
 65 -211 65 -211 27 -178 c 0,65,66
 3 -157 3 -157 -6 -136 c 0,67,68
 -16 -110 -16 -110 -16 -80 c 0,69,70
 -16 -49 -16 -49 -7 -19 c 128,-1,71
 2 11 2 11 25 37 c 0,72,73
 54 70 54 70 71 84 c 0,74,75
 86 98 86 98 131 123 c 0,76,77
 160 139 160 139 176 142 c 0,78,79
 215 149 215 149 237 149 c 0,80,81
 239 149 239 149 242 149 c 0,82,83
 269 148 269 148 271 148 c 0,0,1
EndSplineSet
EndChar

StartChar: E
Encoding: 69 69 40
Width: 774
GlyphClass: 1
Flags: W
LayerCount: 2
Fore
SplineSet
271 353 m 0,0,1
 299 351 299 351 320.5 346 c 128,-1,2
 342 341 342 341 359 326 c 1,3,4
 359 326 359 326 359 762 c 2,5,-1
 360 1225 l 1,6,-1
 359 1428 l 1,7,-1
 410 1428 l 1,8,9
 414 1387 414 1387 423.5 1353 c 128,-1,10
 433 1319 433 1319 443 1291 c 0,11,12
 449 1275 449 1275 454 1254 c 0,13,14
 456 1247 456 1247 469 1223 c 2,15,16
 469 1223 469 1223 480 1206 c 2,17,-1
 496 1186 l 1,18,-1
 523 1154 l 1,19,-1
 572 1094 l 1,20,-1
 662 990 l 1,21,22
 764 857 764 857 764 711 c 0,23,24
 764 676 764 676 758 634 c 128,-1,25
 752 592 752 592 734 547 c 0,26,27
 720 512 720 512 710 489 c 0,28,29
 696 457 696 457 684 437 c 1,30,31
 684 437 684 437 654 435 c 1,32,-1
 689 525 l 1,33,34
 689 525 689 525 701 562 c 0,35,36
 710 590 710 590 711 603 c 2,37,38
 711 603 711 603 717 658 c 2,39,-1
 719 683 l 1,40,-1
 719 723 l 1,41,42
 713 748 713 748 711 756 c 0,43,44
 710 760 710 760 695 805 c 0,45,46
 674 869 674 869 625 920 c 1,47,48
 583 973 583 973 527 1004 c 0,49,50
 498 1020 498 1020 466.5 1030.5 c 128,-1,51
 435 1041 435 1041 410 1041 c 1,52,53
 410 1041 410 1041 410 814 c 2,54,-1
 410 353 l 1,55,-1
 410 234 l 2,56,57
 410 173 410 173 365 113 c 0,58,59
 344 85 344 85 325 68 c 0,60,61
 299 44 299 44 263 27 c 0,62,63
 193 -6 193 -6 129 -6 c 128,-1,64
 65 -6 65 -6 27 27 c 0,65,66
 3 48 3 48 -6 70 c 0,67,68
 -16 95 -16 95 -16 125 c 0,69,70
 -16 156 -16 156 -7 186 c 128,-1,71
 2 216 2 216 25 242 c 0,72,73
 54 275 54 275 71 290 c 0,74,75
 89 305 89 305 131 328 c 0,76,77
 158 343 158 343 176 347 c 0,78,79
 208 354 208 354 242 354 c 0,80,81
 253 354 253 354 271 353 c 0,0,1
EndSplineSet
EndChar

StartChar: F
Encoding: 70 70 41
Width: 762
GlyphClass: 1
Flags: W
LayerCount: 2
Fore
SplineSet
269 557 m 0,0,1
 297 555 297 555 318.5 550 c 128,-1,2
 340 545 340 545 357 530 c 1,3,4
 357 530 357 530 357 966 c 2,5,-1
 358 1429 l 1,6,-1
 357 1632 l 1,7,-1
 408 1632 l 1,8,9
 412 1591 412 1591 421.5 1557 c 128,-1,10
 431 1523 431 1523 441 1495 c 0,11,12
 447 1479 447 1479 452 1458 c 0,13,14
 454 1451 454 1451 467 1427 c 2,15,16
 467 1427 467 1427 478 1410 c 2,17,-1
 494 1390 l 1,18,-1
 521 1358 l 1,19,-1
 570 1298 l 1,20,-1
 660 1194 l 1,21,22
 762 1061 762 1061 762 915 c 0,23,24
 762 880 762 880 756 838 c 128,-1,25
 750 796 750 796 732 751 c 0,26,27
 718 716 718 716 708 693 c 0,28,29
 694 661 694 661 682 641 c 1,30,31
 682 641 682 641 652 639 c 1,32,-1
 687 729 l 1,33,34
 687 729 687 729 699 766 c 0,35,36
 708 794 708 794 709 807 c 2,37,38
 709 807 709 807 715 862 c 2,39,-1
 717 887 l 1,40,-1
 717 927 l 1,41,42
 711 952 711 952 709 960 c 0,43,44
 708 964 708 964 693 1009 c 0,45,46
 672 1073 672 1073 623 1124 c 1,47,48
 581 1177 581 1177 525 1208 c 0,49,50
 496 1224 496 1224 464.5 1234.5 c 128,-1,51
 433 1245 433 1245 408 1245 c 1,52,53
 408 1245 408 1245 408 1018 c 2,54,-1
 408 557 l 1,55,-1
 408 438 l 2,56,57
 408 378 408 378 363 317 c 0,58,59
 342 289 342 289 323 272 c 0,60,61
 297 248 297 248 261 231 c 0,62,63
 191 198 191 198 127 198 c 0,64,65
 64 198 64 198 25 231 c 0,66,67
 1 252 1 252 -8 274 c 0,68,69
 -18 299 -18 299 -18 329 c 0,70,71
 -18 360 -18 360 -9 390 c 128,-1,72
 0 420 0 420 23 446 c 0,73,74
 52 479 52 479 69 494 c 0,75,76
 87 509 87 509 129 532 c 0,77,78
 159 548 159 548 174 551 c 0,79,80
 217 561 217 561 269 557 c 0,0,1
EndSplineSet
EndChar

StartChar: G
Encoding: 71 71 42
Width: 774
GlyphClass: 1
Flags: W
LayerCount: 2
Fore
SplineSet
276 764 m 0,0,1
 304 762 304 762 325.5 757 c 128,-1,2
 347 752 347 752 364 737 c 1,3,4
 364 737 364 737 364 1173 c 2,5,-1
 365 1636 l 1,6,-1
 364 1839 l 1,7,-1
 415 1839 l 1,8,9
 419 1798 419 1798 428.5 1764 c 128,-1,10
 438 1730 438 1730 448 1702 c 0,11,12
 454 1686 454 1686 459 1665 c 0,13,14
 461 1658 461 1658 474 1634 c 2,15,16
 474 1634 474 1634 485 1617 c 2,17,-1
 501 1597 l 1,18,-1
 528 1565 l 1,19,-1
 577 1505 l 1,20,-1
 667 1401 l 1,21,22
 769 1268 769 1268 769 1122 c 0,23,24
 769 1087 769 1087 763 1045 c 128,-1,25
 757 1003 757 1003 739 958 c 0,26,27
 725 923 725 923 715 900 c 0,28,29
 701 868 701 868 689 848 c 1,30,31
 689 848 689 848 659 846 c 1,32,-1
 694 936 l 1,33,34
 694 936 694 936 706 972 c 0,35,36
 715 1001 715 1001 716 1014 c 2,37,38
 716 1014 716 1014 722 1069 c 2,39,-1
 724 1094 l 1,40,-1
 724 1134 l 1,41,42
 718 1159 718 1159 716 1167 c 0,43,44
 715 1171 715 1171 700 1216 c 0,45,46
 679 1280 679 1280 630 1331 c 1,47,48
 588 1384 588 1384 532 1415 c 0,49,50
 503 1431 503 1431 471.5 1441.5 c 128,-1,51
 440 1452 440 1452 415 1452 c 1,52,53
 415 1452 415 1452 415 1225 c 2,54,-1
 415 764 l 1,55,-1
 415 645 l 2,56,57
 415 585 415 585 370 524 c 0,58,59
 349 496 349 496 330 478 c 0,60,61
 304 455 304 455 268 438 c 0,62,63
 198 405 198 405 134 405 c 0,64,65
 71 405 71 405 32 438 c 0,66,67
 8 459 8 459 -1 480 c 0,68,69
 -11 506 -11 506 -11 536 c 0,70,71
 -11 567 -11 567 -2 597 c 128,-1,72
 7 627 7 627 30 653 c 0,73,74
 59 686 59 686 76 700 c 0,75,76
 94 716 94 716 136 739 c 0,77,78
 166 755 166 755 182 758 c 0,79,80
 224 768 224 768 276 764 c 0,0,1
EndSplineSet
EndChar

StartChar: H
Encoding: 72 72 43
Width: 480
GlyphClass: 1
Flags: W
LayerCount: 2
Fore
SplineSet
402 381 m 2,0,1
 407 364 407 364 409 345 c 2,2,-1
 411 325 l 1,3,-1
 412 307 l 1,4,-1
 414 283 l 1,5,-1
 413 247 l 1,6,-1
 409 222 l 1,7,-1
 407 213 l 1,8,-1
 405 207 l 1,9,-1
 402 196 l 1,10,-1
 397 181 l 1,11,-1
 390 160 l 1,12,-1
 363 102 l 1,13,-1
 320 45 l 1,14,-1
 309 32 l 2,15,16
 286 11 286 11 266 -5 c 2,17,18
 266 -5 266 -5 241 -22 c 0,19,20
 229 -30 229 -30 217 -39 c 0,21,22
 187 -61 187 -61 166 -66 c 2,23,24
 166 -66 166 -66 143 -69 c 2,25,-1
 121 -70 l 1,26,-1
 121 -51 l 1,27,-1
 121 358 l 1,28,-1
 118 652 l 1,29,-1
 165 630 l 1,30,-1
 210 618 l 1,31,-1
 232 618 l 1,32,-1
 282 628 l 1,33,-1
 338 648 l 1,34,-1
 372 671 l 1,35,-1
 402 694 l 1,36,-1
 430 718 l 1,37,-1
 452 740 l 1,38,-1
 484 794 l 1,39,-1
 494 856 l 1,40,-1
 484 905 l 1,41,-1
 452 944 l 1,42,-1
 411 967 l 1,43,-1
 368 976 l 1,44,-1
 336 976 l 1,45,-1
 278 965 l 1,46,-1
 213 942 l 1,47,-1
 165 911 l 1,48,-1
 108 860 l 1,49,-1
 76 810 l 1,50,-1
 66 744 l 1,51,-1
 66 618 l 1,52,-1
 70 0 l 1,53,-1
 70 -453 l 1,54,-1
 121 -453 l 1,55,-1
 122 -416 l 1,56,-1
 124 -380 l 1,57,-1
 128 -349 l 1,58,-1
 138 -315 l 1,59,-1
 160 -260 l 1,60,-1
 183 -221 l 1,61,-1
 217 -178 l 1,62,-1
 267 -119 l 1,63,-1
 332 -51 l 1,64,-1
 375 0 l 1,65,-1
 438 124 l 1,66,-1
 459 254 l 1,67,-1
 458 277 l 1,68,-1
 457 303 l 1,69,-1
 454 330 l 1,70,-1
 449 358 l 1,71,-1
 431 410 l 1,72,-1
 428 418 l 1,73,-1
 415 450 l 1,74,-1
 405 476 l 1,75,-1
 394 501 l 1,76,-1
 379 528 l 1,77,-1
 349 530 l 1,78,-1
 383 440 l 1,79,-1
 392 414 l 1,80,-1
 402 381 l 2,0,1
EndSplineSet
EndChar

StartChar: I
Encoding: 73 73 44
Width: 480
GlyphClass: 1
Flags: W
LayerCount: 2
Fore
SplineSet
407 579 m 2,0,1
 407 579 407 579 397 612 c 2,2,-1
 388 638 l 1,3,-1
 354 728 l 1,4,-1
 384 726 l 1,5,-1
 399 699 l 1,6,-1
 410 674 l 1,7,-1
 421 648 l 1,8,-1
 433 616 l 1,9,-1
 436 608 l 1,10,-1
 454 556 l 1,11,-1
 459 528 l 1,12,-1
 462 501 l 1,13,-1
 464 475 l 1,14,-1
 464 452 l 1,15,-1
 443 322 l 1,16,-1
 380 198 l 1,17,-1
 337 147 l 1,18,-1
 272 79 l 1,19,-1
 222 20 l 1,20,-1
 188 -23 l 1,21,-1
 165 -62 l 1,22,-1
 143 -117 l 1,23,-1
 134 -151 l 1,24,-1
 129 -182 l 1,25,-1
 127 -219 l 1,26,-1
 126 -255 l 1,27,-1
 75 -255 l 1,28,-1
 75 198 l 1,29,-1
 72 815 l 1,30,-1
 72 942 l 1,31,-1
 82 1008 l 1,32,-1
 113 1057 l 1,33,-1
 170 1109 l 1,34,-1
 218 1140 l 1,35,-1
 283 1163 l 1,36,-1
 342 1173 l 1,37,-1
 373 1173 l 1,38,-1
 416 1164 l 1,39,-1
 457 1141 l 1,40,-1
 489 1102 l 1,41,-1
 500 1053 l 1,42,-1
 489 992 l 1,43,-1
 457 938 l 1,44,-1
 435 915 l 1,45,-1
 408 892 l 1,46,-1
 378 868 l 1,47,-1
 344 846 l 1,48,-1
 287 826 l 1,49,-1
 238 815 l 1,50,-1
 215 815 l 1,51,-1
 170 827 l 1,52,-1
 123 850 l 1,53,-1
 126 556 l 1,54,-1
 126 147 l 1,55,-1
 126 128 l 1,56,-1
 148 129 l 1,57,-1
 172 132 l 2,58,59
 198 138 198 138 222 159 c 0,60,61
 224 160 224 160 246 176 c 0,62,63
 271 193 271 193 271 193 c 2,64,65
 291 209 291 209 314 230 c 2,66,67
 314 230 314 230 325 243 c 2,68,-1
 368 299 l 1,69,-1
 395 358 l 1,70,-1
 402 379 l 1,71,-1
 407 394 l 1,72,-1
 411 404 l 1,73,-1
 412 411 l 1,74,-1
 415 420 l 1,75,-1
 418 445 l 1,76,-1
 419 481 l 1,77,-1
 417 505 l 1,78,-1
 416 523 l 1,79,-1
 414 543 l 2,80,81
 412 562 412 562 407 579 c 2,0,1
EndSplineSet
EndChar

StartChar: J
Encoding: 74 74 45
Width: 480
GlyphClass: 1
Flags: W
LayerCount: 2
Fore
SplineSet
407 789 m 2,0,1
 407 789 407 789 397 822 c 2,2,-1
 388 848 l 1,3,-1
 354 938 l 1,4,-1
 384 936 l 1,5,-1
 399 909 l 1,6,-1
 410 884 l 1,7,-1
 421 858 l 1,8,-1
 433 826 l 1,9,-1
 436 818 l 1,10,-1
 454 766 l 1,11,-1
 459 738 l 1,12,-1
 462 711 l 1,13,-1
 464 685 l 1,14,-1
 464 662 l 1,15,-1
 443 532 l 1,16,-1
 380 408 l 1,17,-1
 337 357 l 1,18,-1
 272 289 l 1,19,-1
 222 230 l 1,20,-1
 188 187 l 1,21,-1
 165 148 l 1,22,-1
 143 93 l 1,23,-1
 134 59 l 1,24,-1
 129 28 l 1,25,-1
 127 -9 l 1,26,-1
 126 -45 l 1,27,-1
 75 -45 l 1,28,-1
 75 408 l 1,29,-1
 72 1025 l 1,30,-1
 72 1152 l 1,31,-1
 82 1218 l 1,32,-1
 113 1267 l 1,33,-1
 170 1319 l 1,34,-1
 218 1350 l 1,35,-1
 283 1373 l 1,36,-1
 342 1383 l 1,37,-1
 373 1383 l 1,38,-1
 416 1374 l 1,39,-1
 457 1351 l 1,40,-1
 489 1312 l 1,41,-1
 500 1263 l 1,42,-1
 489 1202 l 1,43,-1
 457 1148 l 1,44,-1
 435 1125 l 1,45,-1
 408 1102 l 1,46,-1
 378 1078 l 1,47,-1
 344 1056 l 1,48,-1
 287 1036 l 1,49,-1
 238 1025 l 1,50,-1
 215 1025 l 1,51,-1
 170 1037 l 1,52,-1
 123 1060 l 1,53,-1
 126 766 l 1,54,-1
 126 357 l 1,55,-1
 126 338 l 1,56,-1
 148 339 l 1,57,-1
 172 342 l 2,58,59
 198 348 198 348 222 369 c 0,60,61
 224 370 224 370 246 386 c 0,62,63
 271 403 271 403 271 403 c 2,64,65
 291 419 291 419 314 440 c 2,66,67
 314 440 314 440 325 453 c 2,68,-1
 368 509 l 1,69,-1
 395 568 l 1,70,-1
 402 589 l 1,71,-1
 407 604 l 1,72,-1
 411 614 l 1,73,-1
 412 621 l 1,74,-1
 415 630 l 1,75,-1
 418 655 l 1,76,-1
 419 691 l 1,77,-1
 417 715 l 1,78,-1
 416 733 l 1,79,-1
 414 753 l 2,80,81
 412 772 412 772 407 789 c 2,0,1
EndSplineSet
EndChar

StartChar: K
Encoding: 75 75 46
Width: 480
GlyphClass: 1
Flags: W
LayerCount: 2
Fore
SplineSet
403 993 m 2,0,1
 403 993 403 993 393 1026 c 2,2,-1
 384 1052 l 1,3,-1
 350 1142 l 1,4,-1
 380 1140 l 1,5,-1
 395 1113 l 1,6,-1
 406 1088 l 1,7,-1
 417 1062 l 1,8,-1
 429 1030 l 1,9,-1
 432 1022 l 1,10,-1
 450 970 l 1,11,-1
 455 942 l 1,12,-1
 458 915 l 1,13,-1
 460 889 l 1,14,-1
 460 866 l 1,15,-1
 439 736 l 1,16,-1
 376 612 l 1,17,-1
 333 561 l 1,18,-1
 268 493 l 1,19,-1
 218 434 l 1,20,-1
 184 391 l 1,21,-1
 161 352 l 1,22,-1
 139 297 l 1,23,-1
 130 263 l 1,24,-1
 125 232 l 1,25,-1
 123 195 l 1,26,-1
 122 159 l 1,27,-1
 71 159 l 1,28,-1
 71 612 l 1,29,-1
 68 1229 l 1,30,-1
 68 1356 l 1,31,-1
 78 1422 l 1,32,-1
 109 1471 l 1,33,-1
 166 1523 l 1,34,-1
 214 1554 l 1,35,-1
 279 1577 l 1,36,-1
 338 1587 l 1,37,-1
 369 1587 l 1,38,-1
 412 1578 l 1,39,-1
 453 1555 l 1,40,-1
 485 1516 l 1,41,-1
 496 1467 l 1,42,-1
 485 1406 l 1,43,-1
 453 1352 l 1,44,-1
 431 1329 l 1,45,-1
 404 1306 l 1,46,-1
 374 1282 l 1,47,-1
 340 1260 l 1,48,-1
 283 1240 l 1,49,-1
 234 1229 l 1,50,-1
 211 1229 l 1,51,-1
 166 1241 l 1,52,-1
 119 1264 l 1,53,-1
 122 970 l 1,54,-1
 122 561 l 1,55,-1
 122 542 l 1,56,-1
 144 543 l 1,57,-1
 168 546 l 2,58,59
 194 552 194 552 218 573 c 0,60,61
 220 574 220 574 242 590 c 0,62,63
 267 607 267 607 267 607 c 2,64,65
 287 623 287 623 310 644 c 2,66,67
 310 644 310 644 321 657 c 2,68,-1
 364 713 l 1,69,-1
 391 772 l 1,70,-1
 398 793 l 1,71,-1
 403 808 l 1,72,-1
 407 818 l 1,73,-1
 408 825 l 1,74,-1
 411 834 l 1,75,-1
 414 859 l 1,76,-1
 415 895 l 1,77,-1
 413 919 l 1,78,-1
 412 937 l 1,79,-1
 410 957 l 2,80,81
 408 976 408 976 403 993 c 2,0,1
EndSplineSet
EndChar

StartChar: L
Encoding: 76 76 47
Width: 480
GlyphClass: 1
Flags: W
LayerCount: 2
Fore
SplineSet
403 1194 m 2,0,1
 408 1177 408 1177 410 1158 c 2,2,-1
 412 1138 l 1,3,-1
 413 1120 l 1,4,-1
 415 1096 l 1,5,-1
 414 1060 l 1,6,-1
 411 1035 l 1,7,-1
 408 1026 l 1,8,-1
 407 1020 l 1,9,-1
 403 1009 l 1,10,-1
 398 994 l 1,11,-1
 391 973 l 1,12,-1
 364 914 l 1,13,-1
 321 858 l 1,14,-1
 310 845 l 2,15,16
 287 824 287 824 267 808 c 2,17,18
 267 808 267 808 242 791 c 0,19,20
 230 783 230 783 218 774 c 0,21,22
 188 752 188 752 168 747 c 2,23,24
 168 747 168 747 144 744 c 2,25,-1
 122 743 l 1,26,-1
 122 762 l 1,27,-1
 122 1171 l 1,28,-1
 119 1465 l 1,29,-1
 166 1442 l 1,30,-1
 211 1430 l 1,31,-1
 234 1430 l 1,32,-1
 283 1441 l 1,33,-1
 340 1461 l 1,34,-1
 374 1483 l 1,35,-1
 404 1507 l 1,36,-1
 431 1530 l 1,37,-1
 453 1553 l 1,38,-1
 485 1607 l 1,39,-1
 496 1668 l 1,40,-1
 485 1717 l 1,41,-1
 453 1756 l 1,42,-1
 412 1779 l 1,43,-1
 369 1788 l 1,44,-1
 338 1788 l 1,45,-1
 279 1778 l 1,46,-1
 214 1755 l 1,47,-1
 166 1724 l 1,48,-1
 109 1672 l 1,49,-1
 78 1623 l 1,50,-1
 68 1557 l 1,51,-1
 68 1430 l 1,52,-1
 71 813 l 1,53,-1
 71 360 l 1,54,-1
 122 360 l 1,55,-1
 123 396 l 1,56,-1
 125 433 l 1,57,-1
 130 464 l 1,58,-1
 139 498 l 1,59,-1
 161 553 l 1,60,-1
 184 592 l 1,61,-1
 218 635 l 1,62,-1
 268 694 l 1,63,-1
 333 762 l 1,64,-1
 376 813 l 1,65,-1
 439 937 l 1,66,-1
 460 1067 l 1,67,-1
 460 1090 l 1,68,-1
 458 1116 l 1,69,-1
 455 1143 l 1,70,-1
 450 1171 l 1,71,-1
 432 1223 l 1,72,-1
 429 1231 l 1,73,-1
 417 1263 l 1,74,-1
 406 1289 l 1,75,-1
 395 1314 l 1,76,-1
 380 1341 l 1,77,-1
 350 1343 l 1,78,-1
 384 1253 l 1,79,-1
 393 1227 l 1,80,-1
 403 1194 l 2,0,1
EndSplineSet
EndChar

StartChar: M
Encoding: 77 77 48
Width: 480
GlyphClass: 1
Flags: W
LayerCount: 2
Fore
SplineSet
400 1403 m 2,0,1
 405 1386 405 1386 407 1367 c 2,2,-1
 409 1347 l 1,3,-1
 410 1329 l 1,4,-1
 412 1305 l 1,5,-1
 411 1269 l 1,6,-1
 407 1244 l 1,7,-1
 405 1235 l 1,8,-1
 403 1229 l 1,9,-1
 400 1218 l 1,10,-1
 395 1203 l 1,11,-1
 388 1182 l 1,12,-1
 361 1124 l 1,13,-1
 318 1067 l 1,14,-1
 307 1054 l 2,15,16
 284 1033 284 1033 264 1017 c 2,17,18
 264 1017 264 1017 239 1000 c 0,19,20
 227 992 227 992 215 983 c 0,21,22
 185 961 185 961 164 956 c 2,23,24
 164 956 164 956 141 953 c 2,25,-1
 119 952 l 1,26,-1
 119 971 l 1,27,-1
 119 1380 l 1,28,-1
 116 1674 l 1,29,-1
 163 1652 l 1,30,-1
 208 1640 l 1,31,-1
 230 1640 l 1,32,-1
 280 1650 l 1,33,-1
 336 1670 l 1,34,-1
 370 1693 l 1,35,-1
 400 1716 l 1,36,-1
 428 1740 l 1,37,-1
 450 1762 l 1,38,-1
 482 1816 l 1,39,-1
 492 1878 l 1,40,-1
 482 1927 l 1,41,-1
 450 1966 l 1,42,-1
 409 1989 l 1,43,-1
 366 1998 l 1,44,-1
 334 1998 l 1,45,-1
 276 1987 l 1,46,-1
 211 1964 l 1,47,-1
 163 1933 l 1,48,-1
 106 1882 l 1,49,-1
 74 1832 l 1,50,-1
 64 1766 l 1,51,-1
 64 1640 l 1,52,-1
 68 1022 l 1,53,-1
 68 569 l 1,54,-1
 119 569 l 1,55,-1
 120 606 l 1,56,-1
 122 642 l 1,57,-1
 126 673 l 1,58,-1
 136 707 l 1,59,-1
 158 762 l 1,60,-1
 181 801 l 1,61,-1
 215 844 l 1,62,-1
 265 903 l 1,63,-1
 330 971 l 1,64,-1
 373 1022 l 1,65,-1
 436 1146 l 1,66,-1
 457 1276 l 1,67,-1
 456 1299 l 1,68,-1
 455 1325 l 1,69,-1
 452 1352 l 1,70,-1
 447 1380 l 1,71,-1
 429 1432 l 1,72,-1
 426 1440 l 1,73,-1
 413 1472 l 1,74,-1
 403 1498 l 1,75,-1
 392 1523 l 1,76,-1
 377 1550 l 1,77,-1
 347 1552 l 1,78,-1
 381 1462 l 1,79,-1
 390 1436 l 1,80,-1
 400 1403 l 2,0,1
EndSplineSet
EndChar

StartChar: N
Encoding: 78 78 49
Width: 745
GlyphClass: 1
Flags: W
LayerCount: 2
Fore
SplineSet
150 1966 m 2,0,1
 150 1995 150 1995 152 1997 c 1,2,3
 152 1997 152 1997 1 1997 c 1,4,-1
 1 2048 l 1,5,-1
 170 2048 l 1,6,7
 175 2056 175 2056 179 2065.5 c 128,-1,8
 183 2075 183 2075 191 2087 c 0,9,10
 224 2137 224 2137 291 2169 c 0,11,12
 360 2202 360 2202 426 2202 c 0,13,14
 486 2202 486 2202 529 2165 c 1,15,16
 576 2132 576 2132 576 2048 c 1,17,18
 576 2048 576 2048 728 2048 c 1,19,-1
 728 1997 l 1,20,-1
 562 1997 l 1,21,22
 551 1968 551 1968 539 1954 c 0,23,24
 513 1924 513 1924 493 1910 c 0,25,26
 463 1888 463 1888 429 1872 c 0,27,28
 365 1843 365 1843 306 1843 c 0,29,30
 261 1843 261 1843 239.5 1850.5 c 128,-1,31
 218 1858 218 1858 201 1874 c 1,32,33
 201 1874 201 1874 201 1178 c 2,34,-1
 201 1159 l 1,35,-1
 223 1160 l 1,36,-1
 246 1164 l 2,37,38
 267 1168 267 1168 297 1190 c 0,39,40
 309 1199 309 1199 321 1207 c 0,41,42
 346 1224 346 1224 346 1224 c 2,43,44
 366 1240 366 1240 389 1261 c 2,45,46
 389 1261 389 1261 400 1274 c 2,47,-1
 443 1331 l 1,48,-1
 470 1389 l 1,49,-1
 477 1410 l 1,50,-1
 482 1426 l 1,51,-1
 485 1436 l 1,52,-1
 487 1442 l 1,53,-1
 489 1451 l 1,54,-1
 493 1476 l 1,55,-1
 494 1512 l 1,56,-1
 492 1536 l 1,57,-1
 491 1554 l 1,58,-1
 489 1574 l 2,59,60
 487 1593 487 1593 482 1610 c 2,61,62
 482 1610 482 1610 472 1643 c 2,63,-1
 463 1669 l 1,64,-1
 429 1759 l 1,65,-1
 459 1757 l 1,66,-1
 474 1730 l 1,67,-1
 485 1706 l 1,68,-1
 495 1679 l 1,69,-1
 508 1647 l 1,70,-1
 511 1639 l 1,71,-1
 529 1587 l 1,72,-1
 534 1559 l 1,73,-1
 537 1532 l 1,74,-1
 538 1506 l 1,75,-1
 539 1483 l 1,76,-1
 518 1353 l 1,77,-1
 455 1229 l 1,78,-1
 412 1178 l 1,79,-1
 347 1110 l 1,80,-1
 297 1051 l 1,81,-1
 263 1008 l 1,82,-1
 240 970 l 1,83,-1
 218 914 l 1,84,-1
 208 880 l 1,85,-1
 204 849 l 1,86,-1
 202 813 l 1,87,-1
 201 776 l 1,88,-1
 150 776 l 1,89,-1
 150 1966 l 2,0,1
EndSplineSet
EndChar

StartChar: O
Encoding: 79 79 50
Width: 783
GlyphClass: 1
Flags: W
LayerCount: 2
Fore
SplineSet
271 967 m 0,0,1
 299 965 299 965 320.5 960 c 128,-1,2
 342 955 342 955 359 940 c 1,3,4
 359 940 359 940 359 1376 c 2,5,-1
 360 1839 l 1,6,-1
 359 2042 l 1,7,-1
 410 2042 l 1,8,9
 414 2001 414 2001 423.5 1967 c 128,-1,10
 433 1933 433 1933 443 1905 c 0,11,12
 449 1889 449 1889 454 1868 c 0,13,14
 456 1861 456 1861 469 1837 c 2,15,16
 469 1837 469 1837 480 1820 c 2,17,-1
 496 1800 l 1,18,-1
 523 1768 l 1,19,-1
 572 1708 l 1,20,-1
 662 1604 l 1,21,22
 764 1471 764 1471 764 1325 c 0,23,24
 764 1290 764 1290 758 1248 c 128,-1,25
 752 1206 752 1206 734 1161 c 0,26,27
 720 1126 720 1126 710 1103 c 0,28,29
 696 1071 696 1071 684 1051 c 1,30,31
 684 1051 684 1051 654 1049 c 1,32,-1
 689 1139 l 1,33,34
 689 1139 689 1139 701 1176 c 0,35,36
 710 1204 710 1204 711 1217 c 2,37,38
 711 1217 711 1217 717 1272 c 2,39,-1
 719 1297 l 1,40,-1
 719 1337 l 1,41,42
 713 1362 713 1362 711 1370 c 0,43,44
 710 1374 710 1374 695 1419 c 0,45,46
 674 1483 674 1483 625 1534 c 1,47,48
 583 1587 583 1587 527 1618 c 0,49,50
 498 1634 498 1634 466.5 1644.5 c 128,-1,51
 435 1655 435 1655 410 1655 c 1,52,53
 410 1655 410 1655 410 1428 c 2,54,-1
 410 967 l 1,55,-1
 410 848 l 2,56,57
 410 788 410 788 365 727 c 0,58,59
 344 699 344 699 325 682 c 0,60,61
 299 658 299 658 263 641 c 0,62,63
 193 608 193 608 129 608 c 0,64,65
 66 608 66 608 27 641 c 0,66,67
 3 662 3 662 -6 684 c 0,68,69
 -16 709 -16 709 -16 739 c 0,70,71
 -16 770 -16 770 -7 800 c 128,-1,72
 2 830 2 830 25 856 c 0,73,74
 54 889 54 889 71 904 c 0,75,76
 89 919 89 919 131 942 c 0,77,78
 161 958 161 958 176 961 c 0,79,80
 219 971 219 971 271 967 c 0,0,1
EndSplineSet
EndChar

StartChar: P
Encoding: 80 80 51
Width: 726
GlyphClass: 1
Flags: W
LayerCount: 2
Fore
SplineSet
578 358 m 1,0,-1
 578 -51 l 1,1,-1
 578 -410 l 1,2,-1
 730 -410 l 1,3,-1
 730 -461 l 1,4,-1
 578 -461 l 1,5,-1
 578 -793 l 2,6,7
 578 -817 578 -817 576 -819 c 1,8,9
 576 -819 576 -819 730 -819 c 1,10,-1
 730 -870 l 1,11,-1
 558 -870 l 1,12,13
 553 -881 553 -881 548 -889 c 128,-1,14
 543 -897 543 -897 537 -907 c 0,15,16
 494 -963 494 -963 428.5 -993.5 c 128,-1,17
 363 -1024 363 -1024 300 -1024 c 0,18,19
 238 -1024 238 -1024 193 -991 c 0,20,21
 150 -958 150 -958 150 -903 c 2,22,23
 150 -903 150 -903 150 -870 c 1,24,-1
 0 -870 l 1,25,-1
 0 -819 l 1,26,-1
 173 -819 l 1,27,28
 177 -811 177 -811 182 -804 c 128,-1,29
 187 -797 187 -797 193 -788 c 0,30,31
 213 -766 213 -766 242 -742.5 c 128,-1,32
 271 -719 271 -719 306 -696 c 1,33,34
 343 -680 343 -680 373.5 -673 c 128,-1,35
 404 -666 404 -666 433 -666 c 0,36,37
 463 -666 463 -666 483.5 -674 c 128,-1,38
 504 -682 504 -682 527 -698 c 1,39,40
 527 -698 527 -698 527 -461 c 1,41,-1
 0 -461 l 1,42,-1
 0 -410 l 1,43,-1
 527 -410 l 1,44,-1
 527 -51 l 1,45,-1
 527 358 l 1,46,-1
 578 358 l 1,0,-1
EndSplineSet
EndChar

StartChar: Q
Encoding: 81 81 52
Width: 729
GlyphClass: 1
Flags: W
LayerCount: 2
Fore
SplineSet
523 55 m 1,0,-1
 523 -51 l 1,1,-1
 523 -410 l 1,2,-1
 -4 -410 l 1,3,-1
 -4 -461 l 1,4,-1
 386 -461 l 1,5,6
 363 -463 363 -463 343.5 -468 c 128,-1,7
 324 -473 324 -473 302 -489 c 0,8,9
 268 -514 268 -514 238 -536 c 0,10,11
 215 -552 215 -552 189 -582 c 0,12,13
 146 -631 146 -631 146 -696 c 0,14,15
 146 -752 146 -752 189 -784 c 0,16,17
 236 -819 236 -819 293 -819 c 0,18,19
 357 -819 357 -819 424 -788 c 0,20,21
 493 -754 493 -754 533 -700 c 0,22,23
 574 -644 574 -644 574 -586 c 2,24,25
 574 -586 574 -586 574 -461 c 1,26,-1
 726 -461 l 1,27,-1
 726 -410 l 1,28,-1
 574 -410 l 1,29,-1
 574 -51 l 1,30,-1
 574 358 l 1,31,-1
 574 614 l 1,32,-1
 523 614 l 1,33,-1
 523 55 l 1,0,-1
445 -461 m 1,34,35
 480 -463 480 -463 523 -494 c 1,36,-1
 523 -461 l 1,37,-1
 445 -461 l 1,34,35
EndSplineSet
EndChar

StartChar: R
Encoding: 82 82 53
Width: 738
GlyphClass: 1
Flags: W
LayerCount: 2
Fore
SplineSet
547 -291 m 1,0,1
 524 -274 524 -274 503.5 -265 c 128,-1,2
 483 -256 483 -256 453 -256 c 0,3,4
 424 -256 424 -256 393.5 -263 c 128,-1,5
 363 -270 363 -270 326 -287 c 1,6,7
 291 -309 291 -309 262 -332 c 0,8,9
 226 -359 226 -359 213 -377 c 0,10,11
 207 -385 207 -385 200 -393 c 128,-1,12
 193 -401 193 -401 188 -410 c 1,13,14
 188 -410 188 -410 20 -410 c 1,15,-1
 20 -463 l 1,16,-1
 170 -461 l 1,17,-1
 170 -494 l 2,18,19
 170 -549 170 -549 213 -582 c 0,20,21
 255 -614 255 -614 313 -614 c 0,22,23
 377 -614 377 -614 446 -584 c 0,24,25
 520 -551 520 -551 557 -498 c 0,26,27
 564 -488 564 -488 570 -480 c 0,28,29
 580 -464 580 -464 580 -463 c 1,30,31
 580 -463 580 -463 750 -463 c 1,32,-1
 750 -410 l 1,33,-1
 598 -410 l 1,34,-1
 598 -51 l 1,35,-1
 598 358 l 1,36,-1
 598 768 l 1,37,-1
 547 768 l 1,38,-1
 547 -291 l 1,0,1
EndSplineSet
EndChar

StartChar: S
Encoding: 83 83 54
Width: 453
GlyphClass: 1
Flags: W
LayerCount: 2
Fore
SplineSet
-16 -238 m 0,0,1
 -15 -294 -15 -294 27 -326 c 0,2,3
 72 -359 72 -359 129 -359 c 0,4,5
 193 -359 193 -359 260 -328 c 0,6,7
 371 -277 371 -277 371 -242 c 0,8,9
 371 -241 371 -241 382 -224 c 0,10,11
 387 -215 387 -215 394 -205 c 2,12,13
 394 -205 394 -205 399 -194 c 2,14,-1
 404 -179 l 1,15,-1
 406 -170 l 1,16,-1
 410 -154 l 2,17,18
 412 -144 412 -144 412 -142 c 2,19,20
 412 -142 412 -142 412 204 c 2,21,-1
 412 614 l 1,22,-1
 412 1024 l 1,23,-1
 361 1024 l 1,24,-1
 361 614 l 1,25,-1
 361 204 l 1,26,-1
 361 -35 l 1,27,28
 338 -19 338 -19 317.5 -9.5 c 128,-1,29
 297 0 297 0 267 0 c 0,30,31
 238 0 238 0 207.5 -7.5 c 128,-1,32
 177 -15 177 -15 140 -31 c 1,33,34
 105 -54 105 -54 76 -78 c 0,35,36
 38 -108 38 -108 27 -123 c 0,37,38
 21 -131 21 -131 16 -138.5 c 128,-1,39
 11 -146 11 -146 7 -154 c 1,40,41
 6 -153 6 -153 3 -160 c 0,42,43
 -17 -207 -17 -207 -16 -238 c 0,0,1
EndSplineSet
EndChar

StartChar: T
Encoding: 84 84 55
Width: 480
GlyphClass: 1
Flags: W
LayerCount: 2
Fore
SplineSet
-16 -84 m 0,0,1
 -15 -140 -15 -140 27 -172 c 0,2,3
 72 -205 72 -205 129 -205 c 0,4,5
 193 -205 193 -205 260 -174 c 0,6,7
 371 -123 371 -123 371 -88 c 0,8,9
 371 -87 371 -87 382 -70 c 0,10,11
 387 -61 387 -61 394 -51 c 2,12,13
 394 -51 394 -51 399 -40 c 2,14,-1
 404 -25 l 1,15,-1
 406 -16 l 1,16,-1
 410 0 l 2,17,18
 412 10 412 10 412 12 c 2,19,20
 412 12 412 12 412 358 c 2,21,-1
 412 768 l 1,22,-1
 412 1178 l 1,23,-1
 361 1178 l 1,24,-1
 361 768 l 1,25,-1
 361 358 l 1,26,-1
 361 119 l 1,27,28
 338 135 338 135 317.5 144.5 c 128,-1,29
 297 154 297 154 267 154 c 0,30,31
 238 154 238 154 207.5 146.5 c 128,-1,32
 177 139 177 139 140 123 c 1,33,34
 105 100 105 100 76 76 c 0,35,36
 38 46 38 46 27 31 c 0,37,38
 21 23 21 23 16 15.5 c 128,-1,39
 11 8 11 8 7 0 c 1,40,41
 6 1 6 1 3 -6 c 0,42,43
 -17 -53 -17 -53 -16 -84 c 0,0,1
EndSplineSet
EndChar

StartChar: U
Encoding: 85 85 56
Width: 480
GlyphClass: 1
Flags: W
LayerCount: 2
Fore
SplineSet
142 0 m 0,0,1
 201 4 201 4 266 34 c 0,2,3
 333 64 333 64 371 117 c 0,4,5
 412 174 412 174 412 231 c 2,6,7
 412 231 412 231 412 358 c 2,8,-1
 412 768 l 1,9,-1
 412 1178 l 1,10,-1
 412 1434 l 1,11,-1
 361 1434 l 1,12,-1
 361 1178 l 1,13,-1
 361 768 l 1,14,-1
 361 410 l 1,15,-1
 361 324 l 1,16,17
 314 352 314 352 271 358 c 1,18,19
 271 358 271 358 258 358 c 2,20,-1
 244 358 l 1,21,22
 197 352 197 352 140 328 c 1,23,24
 105 305 105 305 76 282 c 0,25,26
 41 253 41 253 27 236 c 0,27,28
 -16 183 -16 183 -16 121 c 0,29,30
 -16 66 -16 66 27 33 c 0,31,32
 45 18 45 18 63.5 10 c 128,-1,33
 82 2 82 2 105 0 c 2,34,35
 105 0 105 0 142 0 c 0,0,1
EndSplineSet
EndChar

StartChar: V
Encoding: 86 86 57
Width: 480
GlyphClass: 1
Flags: W
LayerCount: 2
Fore
SplineSet
7 410 m 0,0,1
 11 418 11 418 16 425 c 128,-1,2
 21 432 21 432 27 440 c 0,3,4
 40 457 40 457 76 486 c 0,5,6
 105 510 105 510 140 532 c 1,7,8
 177 549 177 549 207.5 556 c 128,-1,9
 238 563 238 563 267 563 c 0,10,11
 297 563 297 563 317.5 554 c 128,-1,12
 338 545 338 545 361 528 c 1,13,14
 361 528 361 528 361 768 c 2,15,-1
 361 1178 l 1,16,-1
 361 1587 l 1,17,-1
 412 1587 l 1,18,-1
 412 1177 l 1,19,-1
 412 768 l 1,20,-1
 412 422 l 2,21,22
 412 412 412 412 410 410 c 2,23,24
 410 410 410 410 402 384 c 2,25,-1
 392 358 l 2,26,27
 387 348 387 348 382 340 c 128,-1,28
 377 332 377 332 371 322 c 0,29,30
 341 272 341 272 260 236 c 0,31,32
 193 205 193 205 129 205 c 0,33,34
 72 205 72 205 27 238 c 0,35,36
 -16 270 -16 270 -16 326 c 0,37,38
 -16 340 -16 340 -16 340 c 2,39,40
 -16 352 -16 352 -14 358 c 0,41,42
 -7 384 -7 384 7 409 c 1,43,44
 7 409 7 409 7 410 c 0,0,1
EndSplineSet
EndChar

StartChar: W
Encoding: 87 87 58
Width: 480
GlyphClass: 1
Flags: W
LayerCount: 2
Fore
SplineSet
142 410 m 0,0,1
 201 414 201 414 266 444 c 0,2,3
 334 475 334 475 371 526 c 0,4,5
 412 582 412 582 412 641 c 2,6,7
 412 641 412 641 412 768 c 2,8,-1
 412 1178 l 1,9,-1
 412 1587 l 1,10,-1
 412 1843 l 1,11,-1
 361 1843 l 1,12,-1
 361 1587 l 1,13,-1
 361 1178 l 1,14,-1
 361 733 l 1,15,16
 312 762 312 762 269 768 c 1,17,18
 269 768 269 768 246 768 c 0,19,20
 201 762 201 762 140 737 c 1,21,22
 105 715 105 715 76 691.5 c 128,-1,23
 47 668 47 668 27 645 c 0,24,25
 -16 590 -16 590 -16 530 c 0,26,27
 -16 475 -16 475 27 442 c 0,28,29
 70 412 70 412 111 410 c 2,30,31
 111 410 111 410 142 410 c 0,0,1
EndSplineSet
EndChar

StartChar: X
Encoding: 88 88 59
Width: 480
GlyphClass: 1
Flags: W
LayerCount: 2
Fore
SplineSet
335 982 m 0,0,1
 276 978 276 978 212 948 c 0,2,3
 143 917 143 917 106 866 c 0,4,5
 65 810 65 810 65 751 c 2,6,7
 65 751 65 751 65 624 c 2,8,-1
 65 214 l 1,9,-1
 65 -195 l 1,10,-1
 65 -451 l 1,11,-1
 116 -451 l 1,12,-1
 116 -195 l 1,13,-1
 116 214 l 1,14,-1
 116 659 l 1,15,16
 165 630 165 630 208 624 c 1,17,18
 208 624 208 624 231 624 c 0,19,20
 276 630 276 630 337 655 c 1,21,22
 372 677 372 677 401 700.5 c 128,-1,23
 430 724 430 724 450 747 c 0,24,25
 493 802 493 802 493 862 c 0,26,27
 493 917 493 917 450 950 c 0,28,29
 407 980 407 980 366 982 c 2,30,31
 366 982 366 982 335 982 c 0,0,1
EndSplineSet
EndChar

StartChar: Y
Encoding: 89 89 60
Width: 480
GlyphClass: 1
Flags: W
LayerCount: 2
Fore
SplineSet
338 1179 m 0,0,1
 279 1175 279 1175 214 1146 c 0,2,3
 146 1114 146 1114 109 1063 c 0,4,5
 68 1007 68 1007 68 948 c 2,6,7
 68 948 68 948 68 821 c 2,8,-1
 68 411 l 1,9,-1
 68 2 l 1,10,-1
 68 -254 l 1,11,-1
 119 -254 l 1,12,-1
 119 2 l 1,13,-1
 119 411 l 1,14,-1
 119 856 l 1,15,16
 168 827 168 827 211 821 c 1,17,18
 211 821 211 821 234 821 c 0,19,20
 279 827 279 827 340 852 c 1,21,22
 375 874 375 874 404 897.5 c 128,-1,23
 433 921 433 921 453 944 c 0,24,25
 496 999 496 999 496 1059 c 0,26,27
 496 1114 496 1114 453 1147 c 0,28,29
 410 1177 410 1177 369 1179 c 2,30,31
 369 1179 369 1179 338 1179 c 0,0,1
EndSplineSet
EndChar

StartChar: Z
Encoding: 90 90 61
Width: 480
GlyphClass: 1
Flags: W
LayerCount: 2
Fore
SplineSet
343 1387 m 0,0,1
 284 1383 284 1383 220 1354 c 0,2,3
 151 1322 151 1322 114 1271 c 0,4,5
 73 1215 73 1215 73 1156 c 2,6,7
 73 1156 73 1156 73 1029 c 2,8,-1
 73 619 l 1,9,-1
 73 210 l 1,10,-1
 73 -46 l 1,11,-1
 124 -46 l 1,12,-1
 124 210 l 1,13,-1
 124 619 l 1,14,-1
 124 1064 l 1,15,16
 173 1035 173 1035 216 1029 c 1,17,18
 216 1029 216 1029 239 1029 c 0,19,20
 284 1035 284 1035 345 1060 c 1,21,22
 380 1082 380 1082 409 1105.5 c 128,-1,23
 438 1129 438 1129 458 1152 c 0,24,25
 501 1207 501 1207 501 1267 c 0,26,27
 501 1322 501 1322 458 1355 c 0,28,29
 415 1385 415 1385 374 1387 c 2,30,31
 374 1387 374 1387 343 1387 c 0,0,1
EndSplineSet
EndChar

StartChar: bracketleft
Encoding: 91 91 62
Width: 480
GlyphClass: 1
Flags: W
LayerCount: 2
Fore
SplineSet
344 1584 m 0,0,1
 284 1580 284 1580 220 1550 c 0,2,3
 152 1518 152 1518 114 1468 c 0,4,5
 74 1412 74 1412 74 1352 c 2,6,7
 74 1352 74 1352 74 1226 c 2,8,-1
 74 816 l 1,9,-1
 74 406 l 1,10,-1
 74 150 l 1,11,-1
 124 150 l 1,12,-1
 124 406 l 1,13,-1
 124 816 l 1,14,-1
 124 1260 l 1,15,16
 174 1232 174 1232 216 1226 c 1,17,18
 216 1226 216 1226 240 1226 c 0,19,20
 284 1232 284 1232 346 1256 c 1,21,22
 380 1278 380 1278 409 1302 c 128,-1,23
 438 1326 438 1326 458 1348 c 0,24,25
 502 1404 502 1404 502 1464 c 0,26,27
 502 1518 502 1518 458 1552 c 0,28,29
 416 1582 416 1582 374 1584 c 2,30,31
 374 1584 374 1584 344 1584 c 0,0,1
EndSplineSet
EndChar

StartChar: backslash
Encoding: 92 92 63
Width: 480
GlyphClass: 1
Flags: W
LayerCount: 2
Fore
SplineSet
343 1797 m 0,0,1
 284 1793 284 1793 220 1764 c 0,2,3
 151 1732 151 1732 114 1681 c 0,4,5
 73 1625 73 1625 73 1566 c 2,6,7
 73 1566 73 1566 73 1439 c 2,8,-1
 73 1029 l 1,9,-1
 73 620 l 1,10,-1
 73 364 l 1,11,-1
 124 364 l 1,12,-1
 124 620 l 1,13,-1
 124 1029 l 1,14,-1
 124 1474 l 1,15,16
 173 1445 173 1445 216 1439 c 1,17,18
 216 1439 216 1439 239 1439 c 0,19,20
 284 1445 284 1445 345 1470 c 1,21,22
 380 1492 380 1492 409 1515.5 c 128,-1,23
 438 1539 438 1539 458 1562 c 0,24,25
 501 1617 501 1617 501 1677 c 0,26,27
 501 1732 501 1732 458 1765 c 0,28,29
 415 1795 415 1795 374 1797 c 2,30,31
 374 1797 374 1797 343 1797 c 0,0,1
EndSplineSet
EndChar

StartChar: bracketright
Encoding: 93 93 64
Width: 480
GlyphClass: 1
Flags: W
LayerCount: 2
Fore
SplineSet
343 2002 m 0,0,1
 284 1998 284 1998 220 1968 c 0,2,3
 151 1936 151 1936 114 1886 c 0,4,5
 73 1830 73 1830 73 1770 c 2,6,7
 73 1770 73 1770 73 1644 c 2,8,-1
 73 1234 l 1,9,-1
 73 824 l 1,10,-1
 73 568 l 1,11,-1
 124 568 l 1,12,-1
 124 824 l 1,13,-1
 124 1234 l 1,14,-1
 124 1678 l 1,15,16
 173 1650 173 1650 216 1644 c 1,17,18
 216 1644 216 1644 239 1644 c 0,19,20
 284 1650 284 1650 345 1674 c 1,21,22
 380 1696 380 1696 409 1720 c 128,-1,23
 438 1744 438 1744 458 1766 c 0,24,25
 501 1822 501 1822 501 1882 c 0,26,27
 501 1936 501 1936 458 1970 c 0,28,29
 415 2000 415 2000 374 2002 c 2,30,31
 374 2002 374 2002 343 2002 c 0,0,1
EndSplineSet
EndChar

StartChar: asciicircum
Encoding: 94 94 65
Width: 713
GlyphClass: 1
Flags: W
LayerCount: 2
Fore
SplineSet
192 1885 m 1,0,1
 213 1864 213 1864 232 1852.5 c 128,-1,2
 251 1841 251 1841 281 1841 c 0,3,4
 310 1841 310 1841 340.5 1850.5 c 128,-1,5
 371 1860 371 1860 408 1876 c 1,6,7
 443 1898 443 1898 472 1922 c 0,8,9
 489 1936 489 1936 521 1968 c 0,10,11
 527 1974 527 1974 532 1981.5 c 128,-1,12
 537 1989 537 1989 541 1997 c 1,13,14
 541 1997 541 1997 716 1997 c 1,15,-1
 716 2048 l 1,16,-1
 564 2048 l 1,17,-1
 564 2083 l 2,18,19
 564 2138 564 2138 521 2171 c 128,-1,20
 478 2204 478 2204 419 2204 c 0,21,22
 355 2204 355 2204 287.5 2173 c 128,-1,23
 220 2142 220 2142 177 2087 c 0,24,25
 171 2077 171 2077 164 2068 c 0,26,27
 158 2058 158 2058 154 2048 c 1,28,29
 154 2048 154 2048 -14 2048 c 1,30,-1
 -14 1997 l 1,31,-1
 138 1997 l 1,32,33
 138 1991 138 1991 139.5 1985 c 128,-1,34
 141 1979 141 1979 141 1977 c 2,35,36
 141 1977 141 1977 141 1850 c 2,37,-1
 141 1440 l 1,38,-1
 141 1031 l 1,39,-1
 141 775 l 1,40,-1
 192 775 l 1,41,-1
 192 1031 l 1,42,-1
 192 1440 l 1,43,-1
 192 1885 l 1,0,1
EndSplineSet
EndChar

StartChar: underscore
Encoding: 95 95 66
Width: 486
GlyphClass: 1
Flags: W
LayerCount: 2
Fore
SplineSet
211 627 m 0,0,1
 270 631 270 631 334 660 c 0,2,3
 403 692 403 692 440 743 c 0,4,5
 481 799 481 799 481 858 c 2,6,7
 481 858 481 858 481 985 c 2,8,-1
 481 1395 l 1,9,-1
 481 1804 l 1,10,-1
 481 2060 l 1,11,-1
 430 2060 l 1,12,-1
 430 1804 l 1,13,-1
 430 1395 l 1,14,-1
 430 950 l 1,15,16
 381 979 381 979 338 985 c 1,17,18
 338 985 338 985 315 985 c 0,19,20
 270 979 270 979 209 954 c 1,21,22
 174 932 174 932 145 908 c 0,23,24
 110 881 110 881 96 862 c 0,25,26
 53 807 53 807 53 747 c 0,27,28
 53 689 53 689 96 659 c 128,-1,29
 139 629 139 629 180 627 c 2,30,31
 180 627 180 627 211 627 c 0,0,1
EndSplineSet
EndChar

StartChar: grave
Encoding: 96 96 67
Width: 770
GlyphClass: 1
Flags: W
LayerCount: 2
Fore
SplineSet
582 381 m 1,0,-1
 582 -51 l 1,1,-1
 582 -410 l 1,2,-1
 742 -410 l 1,3,-1
 742 -461 l 1,4,-1
 582 -461 l 1,5,-1
 582 -819 l 1,6,-1
 742 -819 l 1,7,-1
 742 -870 l 1,8,-1
 565 -870 l 1,9,10
 560 -880 560 -880 554 -892 c 0,11,12
 545 -910 545 -910 537 -920 c 0,13,14
 502 -963 502 -963 432 -1001 c 0,15,16
 367 -1036 367 -1036 316 -1036 c 0,17,18
 263 -1036 263 -1036 230 -1024 c 0,19,20
 192 -1011 192 -1011 178 -975 c 0,21,22
 166 -934 166 -934 166 -934 c 2,23,24
 166 -928 166 -928 165 -911.5 c 128,-1,25
 164 -895 164 -895 163 -883.5 c 128,-1,26
 162 -872 162 -872 162 -870 c 1,27,28
 162 -870 162 -870 12 -870 c 1,29,-1
 12 -819 l 1,30,-1
 172 -819 l 1,31,32
 187 -786 187 -786 205 -766 c 0,33,34
 248 -717 248 -717 313.5 -686 c 128,-1,35
 379 -655 379 -655 445 -655 c 0,36,37
 473 -655 473 -655 490.5 -662.5 c 128,-1,38
 508 -670 508 -670 531 -686 c 1,39,40
 531 -686 531 -686 531 -461 c 1,41,-1
 12 -461 l 1,42,-1
 12 -410 l 1,43,-1
 531 -410 l 1,44,-1
 531 0 l 1,45,-1
 531 381 l 1,46,-1
 582 381 l 1,0,-1
238 -870 m 2,47,48
 236 -870 236 -870 236 -872 c 0,49,50
 199 -920 199 -920 199 -942 c 1,51,52
 205 -967 205 -967 238 -979 c 1,53,54
 277 -979 277 -979 316 -958 c 1,55,56
 361 -944 361 -944 416 -899 c 0,57,58
 424 -895 424 -895 433.5 -888 c 128,-1,59
 443 -881 443 -881 453 -870 c 1,60,-1
 238 -870 l 2,47,48
293 -815 m 0,61,62
 291 -815 291 -815 287 -819 c 1,63,-1
 484 -819 l 1,64,65
 522 -774 522 -774 522 -745 c 0,66,67
 522 -721 522 -721 492 -711 c 1,68,69
 453 -711 453 -711 408 -736.5 c 128,-1,70
 363 -762 363 -762 293 -815 c 0,61,62
EndSplineSet
EndChar

StartChar: a
Encoding: 97 97 68
Width: 678
GlyphClass: 1
Flags: W
LayerCount: 2
Fore
SplineSet
536 358 m 1,0,-1
 536 -51 l 1,1,-1
 536 -410 l 1,2,-1
 696 -410 l 1,3,-1
 696 -461 l 1,4,-1
 536 -461 l 1,5,-1
 536 -598 l 2,6,7
 536 -623 536 -623 534 -627 c 0,8,9
 526 -643 526 -643 524 -651 c 0,10,11
 523 -655 523 -655 510 -677 c 0,12,13
 498 -698 498 -698 491 -707 c 0,14,15
 455 -751 455 -751 386 -788 c 0,16,17
 354 -805 354 -805 325 -815 c 128,-1,18
 296 -825 296 -825 270 -825 c 0,19,20
 219 -825 219 -825 184 -813 c 128,-1,21
 149 -801 149 -801 132 -762 c 1,22,-1
 120 -721 l 2,23,24
 118 -714 118 -714 117 -696 c 0,25,26
 116 -682 116 -682 116 -666 c 0,27,28
 116 -603 116 -603 159 -553 c 0,29,30
 189 -519 189 -519 234 -496 c 0,31,32
 274 -475 274 -475 321 -461 c 1,33,-1
 -34 -461 l 1,34,-1
 -34 -410 l 1,35,-1
 485 -410 l 1,36,-1
 485 0 l 1,37,-1
 485 410 l 1,38,-1
 485 602 l 1,39,-1
 536 602 l 1,40,-1
 536 410 l 1,41,-1
 536 358 l 1,0,-1
247 -602 m 0,42,43
 227 -616 227 -616 190 -659 c 0,44,45
 153 -707 153 -707 153 -729 c 1,46,47
 159 -754 159 -754 192 -766 c 1,48,49
 231 -766 231 -766 270 -745 c 1,50,51
 315 -731 315 -731 370 -686 c 0,52,53
 386 -678 386 -678 404.5 -660.5 c 128,-1,54
 423 -643 423 -643 445.5 -616.5 c 128,-1,55
 468 -590 468 -590 472 -569.5 c 128,-1,56
 476 -549 476 -549 476 -532 c 0,57,58
 476 -508 476 -508 446 -498 c 1,59,60
 407 -498 407 -498 362 -523.5 c 128,-1,61
 317 -549 317 -549 247 -602 c 0,42,43
485 -461 m 1,62,-1
 444 -461 l 1,63,64
 454 -465 454 -465 464 -466 c 128,-1,65
 474 -467 474 -467 485 -473 c 1,66,-1
 485 -461 l 1,62,-1
EndSplineSet
EndChar

StartChar: b
Encoding: 98 98 69
Width: 480
GlyphClass: 1
Flags: W
LayerCount: 2
Fore
SplineSet
404 768 m 1,0,-1
 404 336 l 1,1,-1
 404 -23 l 1,2,-1
 404 -25 l 1,3,-1
 404 -76 l 1,4,-1
 404 -74 l 1,5,-1
 404 -432 l 1,6,-1
 564 -432 l 1,7,-1
 564 -483 l 1,8,-1
 387 -483 l 1,9,10
 382 -493 382 -493 376 -505 c 0,11,12
 367 -523 367 -523 359 -533 c 0,13,14
 324 -576 324 -576 254 -614 c 0,15,16
 189 -649 189 -649 138 -649 c 0,17,18
 85 -649 85 -649 52 -637 c 0,19,20
 14 -624 14 -624 0 -588 c 0,21,22
 -11.5462184874 -557.210084034 -11.5462184874 -557.210084034 -12 -547 c 2,23,24
 -12 -541 -12 -541 -13 -524.5 c 128,-1,25
 -14 -508 -14 -508 -15 -496.5 c 128,-1,26
 -16 -485 -16 -485 -16 -483 c 1,27,28
 -16 -483 -16 -483 -166 -483 c 1,29,-1
 -166 -432 l 1,30,-1
 -6 -432 l 1,31,32
 9 -399 9 -399 27 -379 c 0,33,34
 70 -330 70 -330 135.5 -299 c 128,-1,35
 201 -268 201 -268 267 -268 c 0,36,37
 295 -268 295 -268 312.5 -275.5 c 128,-1,38
 330 -283 330 -283 353 -299 c 1,39,40
 353 -299 353 -299 353 -74 c 1,41,-1
 353 -74 l 1,42,-1
 353 -23 l 1,43,-1
 353 -23 l 1,44,-1
 353 387 l 1,45,-1
 353 768 l 1,46,-1
 404 768 l 1,0,-1
60 -483 m 2,47,48
 58 -483 58 -483 58 -485 c 0,49,50
 21 -533 21 -533 21 -555 c 1,51,52
 27 -580 27 -580 60 -592 c 1,53,54
 99 -592 99 -592 138 -571 c 1,55,56
 183 -557 183 -557 238 -512 c 0,57,58
 246 -508 246 -508 255.5 -501 c 128,-1,59
 265 -494 265 -494 275 -483 c 1,60,-1
 60 -483 l 2,47,48
115 -428 m 0,61,62
 113 -428 113 -428 109 -432 c 1,63,-1
 306 -432 l 1,64,65
 344 -387 344 -387 344 -358 c 0,66,67
 344 -334 344 -334 314 -324 c 1,68,69
 275 -324 275 -324 230 -349.5 c 128,-1,70
 185 -375 185 -375 115 -428 c 0,61,62
EndSplineSet
EndChar

StartChar: c
Encoding: 99 99 70
Width: 480
GlyphClass: 1
Flags: W
LayerCount: 2
Fore
SplineSet
114 -196 m 1024,0,-1
-10 -208 m 1,1,2
 -2 -190 -2 -190 7 -173 c 128,-1,3
 16 -156 16 -156 26 -146 c 0,4,5
 80 -91 80 -91 134 -66 c 0,6,7
 200 -36 200 -36 266 -36 c 0,8,9
 294 -36 294 -36 311 -43 c 128,-1,10
 328 -50 328 -50 352 -66 c 1,11,12
 352 -66 352 -66 352 152 c 2,13,-1
 352 560 l 1,14,-1
 352 970 l 1,15,-1
 402 970 l 1,16,-1
 402 560 l 1,17,-1
 402 152 l 1,18,-1
 402 -208 l 1,19,-1
 394 -238 l 1,20,-1
 386 -258 l 2,21,22
 384 -264 384 -264 374 -276 c 0,23,24
 368 -284 368 -284 358 -300 c 0,25,26
 319 -347 319 -347 252 -382 c 0,27,28
 188 -416 188 -416 136 -416 c 256,29,30
 84 -416 84 -416 50 -404 c 0,31,32
 13 -390 13 -390 -2 -354 c 1,33,34
 -14 -314 -14 -314 -14 -314 c 2,35,36
 -18 -300 -18 -300 -18 -258 c 1,37,38
 -18 -258 -18 -258 -10 -208 c 1,1,2
318 -208 m 0,39,40
 338 -184 338 -184 340 -162 c 128,-1,41
 342 -140 342 -140 342 -126 c 0,42,43
 342 -100 342 -100 312 -90 c 1,44,45
 274 -90 274 -90 229 -116 c 128,-1,46
 184 -142 184 -142 114 -194 c 0,47,48
 112 -194 112 -194 107 -200 c 128,-1,49
 102 -206 102 -206 82 -226 c 2,50,-1
 50 -258 l 1,51,-1
 26 -296 l 2,52,53
 20 -312 20 -312 20 -322 c 0,54,55
 26 -346 26 -346 58 -358 c 1,56,57
 98 -358 98 -358 136 -338 c 0,58,59
 158 -330 158 -330 182 -318 c 128,-1,60
 206 -306 206 -306 236 -284 c 0,61,62
 244 -280 244 -280 251 -273 c 128,-1,63
 258 -266 258 -266 270 -258 c 2,64,-1
 296 -236 l 2,65,66
 312 -218 312 -218 318 -208 c 0,39,40
EndSplineSet
EndChar

StartChar: d
Encoding: 100 100 71
Width: 480
GlyphClass: 1
Flags: W
LayerCount: 2
Fore
SplineSet
116 4 m 1024,0,-1
-8 -8 m 1,1,2
 0 8 0 8 8.5 26 c 128,-1,3
 17 44 17 44 27 54 c 0,4,5
 81 108 81 108 136 133 c 0,6,7
 201 164 201 164 267 164 c 0,8,9
 295 164 295 164 312.5 157 c 128,-1,10
 330 150 330 150 353 134 c 1,11,12
 353 134 353 134 353 350 c 2,13,-1
 353 760 l 1,14,-1
 353 1170 l 1,15,-1
 404 1170 l 1,16,-1
 404 760 l 1,17,-1
 404 350 l 1,18,-1
 404 -8 l 1,19,-1
 395 -38 l 1,20,-1
 387 -60 l 2,21,22
 385 -64 385 -64 376 -76 c 0,23,24
 370 -85 370 -85 359 -100 c 0,25,26
 320 -148 320 -148 254 -182 c 0,27,28
 189 -216 189 -216 138 -216 c 0,29,30
 86 -216 86 -216 52 -204 c 0,31,32
 14 -191 14 -191 0 -156 c 0,33,34
 -12 -114 -12 -114 -12 -114 c 2,35,36
 -16 -101 -16 -101 -16 -60 c 1,37,38
 -16 -60 -16 -60 -8 -8 c 1,1,2
320 -8 m 0,39,40
 340 14 340 14 342 37 c 128,-1,41
 344 60 344 60 344 74 c 0,42,43
 344 98 344 98 314 108 c 1,44,45
 275 108 275 108 230 83 c 128,-1,46
 185 58 185 58 115 4 c 0,47,48
 113 4 113 4 108 -1 c 128,-1,49
 103 -6 103 -6 84 -26 c 2,50,-1
 52 -60 l 1,51,-1
 27 -97 l 2,52,53
 21 -112 21 -112 21 -122 c 0,54,55
 27 -148 27 -148 60 -160 c 1,56,57
 99 -160 99 -160 138 -140 c 0,58,59
 160 -130 160 -130 183.5 -118 c 128,-1,60
 207 -106 207 -106 238 -86 c 0,61,62
 246 -82 246 -82 253 -75 c 128,-1,63
 260 -68 260 -68 271 -60 c 2,64,-1
 297 -36 l 2,65,66
 313 -20 313 -20 320 -8 c 0,39,40
EndSplineSet
EndChar

StartChar: e
Encoding: 101 101 72
Width: 480
GlyphClass: 1
Flags: W
LayerCount: 2
Fore
SplineSet
116 208 m 1024,0,-1
-8 196 m 1,1,2
 0 214 0 214 9 231 c 128,-1,3
 18 248 18 248 28 258 c 0,4,5
 82 313 82 313 136 338 c 0,6,7
 205 370 205 370 268 368 c 0,8,9
 296 368 296 368 313 362 c 0,10,11
 330 354 330 354 354 338 c 1,12,13
 354 338 354 338 354 556 c 2,14,-1
 354 964 l 1,15,-1
 354 1414 l 1,16,-1
 404 1414 l 1,17,-1
 404 964 l 1,18,-1
 404 556 l 1,19,-1
 404 196 l 1,20,-1
 396 166 l 2,21,22
 390 152 390 152 388 146 c 0,23,24
 384 142 384 142 376 128 c 0,25,26
 371 119 371 119 360 104 c 0,27,28
 321 57 321 57 254 22 c 0,29,30
 190 -12 190 -12 138 -12 c 256,31,32
 86 -12 86 -12 52 0 c 0,33,34
 15 14 15 14 0 50 c 1,35,36
 -12 90 -12 90 -12 90 c 2,37,38
 -16 106 -16 106 -16 146 c 1,39,40
 -16 146 -16 146 -8 196 c 1,1,2
320 196 m 0,41,42
 340 220 340 220 342 242 c 128,-1,43
 344 264 344 264 344 278 c 0,44,45
 344 304 344 304 314 314 c 1,46,47
 276 314 276 314 231 288 c 128,-1,48
 186 262 186 262 116 210 c 0,49,50
 114 210 114 210 109 204 c 128,-1,51
 104 198 104 198 84 178 c 2,52,-1
 52 146 l 1,53,-1
 28 108 l 2,54,55
 22 92 22 92 22 82 c 0,56,57
 28 58 28 58 60 46 c 1,58,59
 100 46 100 46 138 66 c 0,60,61
 160 74 160 74 184 86 c 128,-1,62
 208 98 208 98 238 120 c 0,63,64
 246 124 246 124 253 131 c 128,-1,65
 260 138 260 138 272 146 c 2,66,-1
 298 168 l 2,67,68
 314 186 314 186 320 196 c 0,41,42
EndSplineSet
EndChar

StartChar: f
Encoding: 102 102 73
Width: 480
GlyphClass: 1
Flags: W
LayerCount: 2
Fore
SplineSet
116 413 m 1024,0,-1
-8 401 m 1,1,2
 0 418 0 418 9 435 c 128,-1,3
 18 452 18 452 27 463 c 0,4,5
 82 518 82 518 136 542 c 0,6,7
 204 574 204 574 267 573 c 0,8,9
 296 572 296 572 312 566 c 0,10,11
 330 558 330 558 353 543 c 1,12,13
 353 543 353 543 353 760 c 2,14,-1
 353 1169 l 1,15,-1
 353 1618 l 1,16,-1
 404 1618 l 1,17,-1
 404 1169 l 1,18,-1
 404 760 l 1,19,-1
 404 401 l 1,20,-1
 395 371 l 2,21,22
 390 356 390 356 387 350 c 0,23,24
 384 346 384 346 376 333 c 0,25,26
 370 324 370 324 359 309 c 0,27,28
 320 262 320 262 254 227 c 0,29,30
 190 192 190 192 138 193 c 0,31,32
 86 192 86 192 52 205 c 0,33,34
 14 218 14 218 0 254 c 0,35,36
 -12 295 -12 295 -12 295 c 2,37,38
 -16 310 -16 310 -16 350 c 1,39,40
 -16 350 -16 350 -8 401 c 1,1,2
320 401 m 0,41,42
 340 424 340 424 342 446.5 c 128,-1,43
 344 469 344 469 344 483 c 0,44,45
 344 508 344 508 314 518 c 1,46,47
 275 518 275 518 230 492.5 c 128,-1,48
 185 467 185 467 115 414 c 0,49,50
 113 414 113 414 108 408.5 c 128,-1,51
 103 403 103 403 84 383 c 2,52,-1
 52 350 l 1,53,-1
 27 312 l 2,54,55
 21 297 21 297 21 287 c 0,56,57
 27 262 27 262 60 250 c 1,58,59
 99 250 99 250 138 270 c 0,60,61
 160 279 160 279 183.5 291 c 128,-1,62
 207 303 207 303 238 324 c 0,63,64
 246 328 246 328 253 335 c 128,-1,65
 260 342 260 342 271 350 c 2,66,-1
 297 373 l 2,67,68
 313 390 313 390 320 401 c 0,41,42
EndSplineSet
EndChar

StartChar: g
Encoding: 103 103 74
Width: 480
GlyphClass: 1
Flags: W
LayerCount: 2
Fore
SplineSet
116 618 m 1024,0,-1
-8 606 m 1,1,2
 0 624 0 624 9 641 c 128,-1,3
 18 658 18 658 28 668 c 0,4,5
 82 723 82 723 136 748 c 0,6,7
 205 780 205 780 268 778 c 0,8,9
 296 778 296 778 313 772 c 0,10,11
 330 764 330 764 354 748 c 1,12,13
 354 748 354 748 354 966 c 2,14,-1
 354 1374 l 1,15,-1
 354 1824 l 1,16,-1
 404 1824 l 1,17,-1
 404 1374 l 1,18,-1
 404 966 l 1,19,-1
 404 606 l 1,20,-1
 396 576 l 2,21,22
 390 562 390 562 388 556 c 0,23,24
 384 552 384 552 376 538 c 0,25,26
 371 529 371 529 360 514 c 0,27,28
 321 467 321 467 254 432 c 0,29,30
 190 398 190 398 138 398 c 256,31,32
 86 398 86 398 52 410 c 0,33,34
 15 424 15 424 0 460 c 1,35,36
 -12 500 -12 500 -12 500 c 2,37,38
 -16 516 -16 516 -16 556 c 1,39,40
 -16 556 -16 556 -8 606 c 1,1,2
320 606 m 0,41,42
 340 630 340 630 342 652 c 128,-1,43
 344 674 344 674 344 688 c 0,44,45
 344 714 344 714 314 724 c 1,46,47
 276 724 276 724 231 698 c 128,-1,48
 186 672 186 672 116 620 c 0,49,50
 114 620 114 620 109 614 c 128,-1,51
 104 608 104 608 84 588 c 2,52,-1
 52 556 l 1,53,-1
 28 518 l 2,54,55
 22 502 22 502 22 492 c 0,56,57
 28 468 28 468 60 456 c 1,58,59
 100 456 100 456 138 476 c 0,60,61
 160 484 160 484 184 496 c 128,-1,62
 208 508 208 508 238 530 c 0,63,64
 246 534 246 534 253 541 c 128,-1,65
 260 548 260 548 272 556 c 2,66,-1
 298 578 l 2,67,68
 314 596 314 596 320 606 c 0,41,42
EndSplineSet
EndChar

StartChar: h
Encoding: 104 104 75
Width: 480
GlyphClass: 1
Flags: W
LayerCount: 2
Fore
SplineSet
364 754 m 1024,0,-1
488 766 m 1,1,2
 480 748 480 748 471 731 c 128,-1,3
 462 714 462 714 453 704 c 0,4,5
 398 650 398 650 344 624 c 0,6,7
 276 592 276 592 213 594 c 0,8,9
 184 594 184 594 168 601 c 0,10,11
 150 608 150 608 127 624 c 1,12,13
 127 624 127 624 127 407 c 2,14,-1
 127 -2 l 1,15,-1
 127 -451 l 1,16,-1
 76 -451 l 1,17,-1
 76 -2 l 1,18,-1
 76 407 l 1,19,-1
 76 766 l 1,20,-1
 85 796 l 2,21,22
 90 810 90 810 93 817 c 0,23,24
 96 820 96 820 104 834 c 0,25,26
 110 844 110 844 121 858 c 0,27,28
 160 906 160 906 226 940 c 0,29,30
 290 974 290 974 342 974 c 256,31,32
 394 974 394 974 428 962 c 0,33,34
 466 948 466 948 480 913 c 0,35,36
 492 872 492 872 492 872 c 2,37,38
 496 856 496 856 496 817 c 1,39,40
 496 817 496 817 488 766 c 1,1,2
160 766 m 0,41,42
 140 743 140 743 138 720.5 c 128,-1,43
 136 698 136 698 136 684 c 0,44,45
 136 659 136 659 166 649 c 1,46,47
 205 649 205 649 250 674.5 c 128,-1,48
 295 700 295 700 365 753 c 0,49,50
 367 753 367 753 372 758.5 c 128,-1,51
 377 764 377 764 396 784 c 2,52,-1
 428 817 l 1,53,-1
 453 854 l 2,54,55
 459 870 459 870 459 880 c 0,56,57
 453 905 453 905 420 917 c 1,58,59
 381 917 381 917 342 897 c 0,60,61
 320 888 320 888 296.5 876 c 128,-1,62
 273 864 273 864 242 843 c 0,63,64
 234 839 234 839 227 832 c 128,-1,65
 220 825 220 825 209 817 c 2,66,-1
 183 794 l 2,67,68
 167 777 167 777 160 766 c 0,41,42
EndSplineSet
EndChar

StartChar: i
Encoding: 105 105 76
Width: 480
GlyphClass: 1
Flags: W
LayerCount: 2
Fore
SplineSet
364 967 m 1024,0,-1
488 979 m 1,1,2
 480 962 480 962 471 945 c 128,-1,3
 462 928 462 928 453 917 c 0,4,5
 398 862 398 862 344 838 c 0,6,7
 276 806 276 806 213 807 c 0,8,9
 184 808 184 808 168 814 c 0,10,11
 150 822 150 822 127 837 c 1,12,13
 127 837 127 837 127 620 c 2,14,-1
 127 211 l 1,15,-1
 127 -238 l 1,16,-1
 76 -238 l 1,17,-1
 76 211 l 1,18,-1
 76 620 l 1,19,-1
 76 979 l 1,20,-1
 85 1009 l 2,21,22
 90 1024 90 1024 93 1030 c 0,23,24
 96 1034 96 1034 104 1047 c 0,25,26
 110 1056 110 1056 121 1071 c 0,27,28
 160 1118 160 1118 226 1153 c 0,29,30
 290 1188 290 1188 342 1187 c 0,31,32
 394 1188 394 1188 428 1175 c 0,33,34
 466 1162 466 1162 480 1126 c 0,35,36
 492 1085 492 1085 492 1085 c 2,37,38
 496 1070 496 1070 496 1030 c 1,39,40
 496 1030 496 1030 488 979 c 1,1,2
160 979 m 0,41,42
 140 956 140 956 138 933.5 c 128,-1,43
 136 911 136 911 136 897 c 0,44,45
 136 872 136 872 166 862 c 1,46,47
 205 862 205 862 250 887.5 c 128,-1,48
 295 913 295 913 365 966 c 0,49,50
 367 966 367 966 372 971.5 c 128,-1,51
 377 977 377 977 396 997 c 2,52,-1
 428 1030 l 1,53,-1
 453 1068 l 2,54,55
 459 1083 459 1083 459 1093 c 0,56,57
 453 1118 453 1118 420 1130 c 1,58,59
 381 1130 381 1130 342 1110 c 0,60,61
 320 1101 320 1101 296.5 1089 c 128,-1,62
 273 1077 273 1077 242 1056 c 0,63,64
 234 1052 234 1052 227 1045 c 128,-1,65
 220 1038 220 1038 209 1030 c 2,66,-1
 183 1007 l 2,67,68
 167 990 167 990 160 979 c 0,41,42
EndSplineSet
EndChar

StartChar: j
Encoding: 106 106 77
Width: 480
GlyphClass: 1
Flags: W
LayerCount: 2
Fore
SplineSet
364 1172 m 1024,0,-1
488 1184 m 1,1,2
 480 1166 480 1166 471 1149 c 128,-1,3
 462 1132 462 1132 453 1122 c 0,4,5
 398 1068 398 1068 344 1042 c 0,6,7
 276 1010 276 1010 213 1012 c 0,8,9
 184 1012 184 1012 168 1019 c 0,10,11
 150 1026 150 1026 127 1042 c 1,12,13
 127 1042 127 1042 127 825 c 2,14,-1
 127 416 l 1,15,-1
 127 -33 l 1,16,-1
 76 -33 l 1,17,-1
 76 416 l 1,18,-1
 76 825 l 1,19,-1
 76 1184 l 1,20,-1
 85 1214 l 2,21,22
 90 1228 90 1228 93 1235 c 0,23,24
 96 1238 96 1238 104 1252 c 0,25,26
 110 1262 110 1262 121 1276 c 0,27,28
 160 1324 160 1324 226 1358 c 0,29,30
 290 1392 290 1392 342 1392 c 256,31,32
 394 1392 394 1392 428 1380 c 0,33,34
 466 1366 466 1366 480 1331 c 0,35,36
 492 1290 492 1290 492 1290 c 2,37,38
 496 1274 496 1274 496 1235 c 1,39,40
 496 1235 496 1235 488 1184 c 1,1,2
160 1184 m 0,41,42
 140 1161 140 1161 138 1138.5 c 128,-1,43
 136 1116 136 1116 136 1102 c 0,44,45
 136 1077 136 1077 166 1067 c 1,46,47
 205 1067 205 1067 250 1092.5 c 128,-1,48
 295 1118 295 1118 365 1171 c 0,49,50
 367 1171 367 1171 372 1176.5 c 128,-1,51
 377 1182 377 1182 396 1202 c 2,52,-1
 428 1235 l 1,53,-1
 453 1272 l 2,54,55
 459 1288 459 1288 459 1298 c 0,56,57
 453 1323 453 1323 420 1335 c 1,58,59
 381 1335 381 1335 342 1315 c 0,60,61
 320 1306 320 1306 296.5 1294 c 128,-1,62
 273 1282 273 1282 242 1261 c 0,63,64
 234 1257 234 1257 227 1250 c 128,-1,65
 220 1243 220 1243 209 1235 c 2,66,-1
 183 1212 l 2,67,68
 167 1195 167 1195 160 1184 c 0,41,42
EndSplineSet
EndChar

StartChar: k
Encoding: 107 107 78
Width: 480
GlyphClass: 1
Flags: W
LayerCount: 2
Fore
SplineSet
364 1377 m 1024,0,-1
488 1389 m 1,1,2
 480 1372 480 1372 471 1355 c 128,-1,3
 462 1338 462 1338 453 1327 c 0,4,5
 398 1272 398 1272 344 1248 c 0,6,7
 276 1216 276 1216 213 1217 c 0,8,9
 184 1218 184 1218 168 1224 c 0,10,11
 150 1232 150 1232 127 1247 c 1,12,13
 127 1247 127 1247 127 1030 c 2,14,-1
 127 621 l 1,15,-1
 127 172 l 1,16,-1
 76 172 l 1,17,-1
 76 621 l 1,18,-1
 76 1030 l 1,19,-1
 76 1389 l 1,20,-1
 85 1419 l 2,21,22
 90 1434 90 1434 93 1440 c 0,23,24
 96 1444 96 1444 104 1457 c 0,25,26
 110 1466 110 1466 121 1481 c 0,27,28
 160 1528 160 1528 226 1563 c 0,29,30
 290 1598 290 1598 342 1597 c 0,31,32
 394 1598 394 1598 428 1585 c 0,33,34
 466 1572 466 1572 480 1536 c 0,35,36
 492 1495 492 1495 492 1495 c 2,37,38
 496 1480 496 1480 496 1440 c 1,39,40
 496 1440 496 1440 488 1389 c 1,1,2
160 1389 m 0,41,42
 140 1366 140 1366 138 1343.5 c 128,-1,43
 136 1321 136 1321 136 1307 c 0,44,45
 136 1282 136 1282 166 1272 c 1,46,47
 205 1272 205 1272 250 1297.5 c 128,-1,48
 295 1323 295 1323 365 1376 c 0,49,50
 367 1376 367 1376 372 1381.5 c 128,-1,51
 377 1387 377 1387 396 1407 c 2,52,-1
 428 1440 l 1,53,-1
 453 1478 l 2,54,55
 459 1493 459 1493 459 1503 c 0,56,57
 453 1528 453 1528 420 1540 c 1,58,59
 381 1540 381 1540 342 1520 c 0,60,61
 320 1511 320 1511 296.5 1499 c 128,-1,62
 273 1487 273 1487 242 1466 c 0,63,64
 234 1462 234 1462 227 1455 c 128,-1,65
 220 1448 220 1448 209 1440 c 2,66,-1
 183 1417 l 2,67,68
 167 1400 167 1400 160 1389 c 0,41,42
EndSplineSet
EndChar

StartChar: l
Encoding: 108 108 79
Width: 480
GlyphClass: 1
Flags: W
LayerCount: 2
Fore
SplineSet
364 1581 m 1024,0,-1
488 1593 m 1,1,2
 480 1576 480 1576 471 1559 c 128,-1,3
 462 1542 462 1542 453 1531 c 0,4,5
 398 1476 398 1476 344 1452 c 0,6,7
 276 1420 276 1420 213 1421 c 0,8,9
 184 1422 184 1422 168 1428 c 0,10,11
 150 1436 150 1436 127 1451 c 1,12,13
 127 1451 127 1451 127 1234 c 2,14,-1
 127 825 l 1,15,-1
 127 376 l 1,16,-1
 76 376 l 1,17,-1
 76 825 l 1,18,-1
 76 1234 l 1,19,-1
 76 1593 l 1,20,-1
 85 1623 l 2,21,22
 90 1638 90 1638 93 1644 c 0,23,24
 96 1648 96 1648 104 1661 c 0,25,26
 110 1670 110 1670 121 1685 c 0,27,28
 160 1732 160 1732 226 1767 c 0,29,30
 290 1802 290 1802 342 1801 c 0,31,32
 394 1802 394 1802 428 1789 c 0,33,34
 466 1776 466 1776 480 1740 c 0,35,36
 492 1699 492 1699 492 1699 c 2,37,38
 496 1684 496 1684 496 1644 c 1,39,40
 496 1644 496 1644 488 1593 c 1,1,2
160 1593 m 0,41,42
 140 1570 140 1570 138 1547.5 c 128,-1,43
 136 1525 136 1525 136 1511 c 0,44,45
 136 1486 136 1486 166 1476 c 1,46,47
 205 1476 205 1476 250 1501.5 c 128,-1,48
 295 1527 295 1527 365 1580 c 0,49,50
 367 1580 367 1580 372 1585.5 c 128,-1,51
 377 1591 377 1591 396 1611 c 2,52,-1
 428 1644 l 1,53,-1
 453 1682 l 2,54,55
 459 1697 459 1697 459 1707 c 0,56,57
 453 1732 453 1732 420 1744 c 1,58,59
 381 1744 381 1744 342 1724 c 0,60,61
 320 1715 320 1715 296.5 1703 c 128,-1,62
 273 1691 273 1691 242 1670 c 0,63,64
 234 1666 234 1666 227 1659 c 128,-1,65
 220 1652 220 1652 209 1644 c 2,66,-1
 183 1621 l 2,67,68
 167 1604 167 1604 160 1593 c 0,41,42
EndSplineSet
EndChar

StartChar: m
Encoding: 109 109 80
Width: 480
GlyphClass: 1
Flags: W
LayerCount: 2
Fore
SplineSet
364 1786 m 1024,0,-1
488 1798 m 1,1,2
 480 1780 480 1780 471 1763 c 128,-1,3
 462 1746 462 1746 453 1736 c 0,4,5
 398 1682 398 1682 344 1656 c 0,6,7
 276 1624 276 1624 213 1626 c 0,8,9
 184 1626 184 1626 168 1633 c 0,10,11
 150 1640 150 1640 127 1656 c 1,12,13
 127 1656 127 1656 127 1439 c 2,14,-1
 127 1030 l 1,15,-1
 127 581 l 1,16,-1
 76 581 l 1,17,-1
 76 1030 l 1,18,-1
 76 1439 l 1,19,-1
 76 1798 l 1,20,-1
 85 1828 l 2,21,22
 90 1842 90 1842 93 1849 c 0,23,24
 96 1852 96 1852 104 1866 c 0,25,26
 110 1876 110 1876 121 1890 c 0,27,28
 160 1938 160 1938 226 1972 c 0,29,30
 290 2006 290 2006 342 2006 c 256,31,32
 394 2006 394 2006 428 1994 c 0,33,34
 466 1980 466 1980 480 1945 c 0,35,36
 492 1904 492 1904 492 1904 c 2,37,38
 496 1888 496 1888 496 1849 c 1,39,40
 496 1849 496 1849 488 1798 c 1,1,2
160 1798 m 0,41,42
 140 1775 140 1775 138 1752.5 c 128,-1,43
 136 1730 136 1730 136 1716 c 0,44,45
 136 1691 136 1691 166 1681 c 1,46,47
 205 1681 205 1681 250 1706.5 c 128,-1,48
 295 1732 295 1732 365 1785 c 0,49,50
 367 1785 367 1785 372 1790.5 c 128,-1,51
 377 1796 377 1796 396 1816 c 2,52,-1
 428 1849 l 1,53,-1
 453 1886 l 2,54,55
 459 1902 459 1902 459 1912 c 0,56,57
 453 1937 453 1937 420 1949 c 1,58,59
 381 1949 381 1949 342 1929 c 0,60,61
 320 1920 320 1920 296.5 1908 c 128,-1,62
 273 1896 273 1896 242 1875 c 0,63,64
 234 1871 234 1871 227 1864 c 128,-1,65
 220 1857 220 1857 209 1849 c 2,66,-1
 183 1826 l 2,67,68
 167 1809 167 1809 160 1798 c 0,41,42
EndSplineSet
EndChar

StartChar: n
Encoding: 110 110 81
Width: 672
GlyphClass: 1
Flags: W
LayerCount: 2
Fore
SplineSet
124 819 m 1,0,-1
 124 1178 l 1,1,-1
 124 1997 l 1,2,-1
 -27 1997 l 1,3,-1
 -27 2048 l 1,4,-1
 141 2048 l 1,5,6
 147 2058 147 2058 153 2070 c 0,7,8
 162 2087 162 2087 169 2095 c 0,9,10
 211 2144 211 2144 274 2177 c 0,11,12
 339 2212 339 2212 390 2212 c 0,13,14
 446 2212 446 2212 476 2200 c 0,15,16
 511 2187 511 2187 528 2150 c 1,17,-1
 540 2109 l 2,18,19
 540 2103 540 2103 541 2088 c 128,-1,20
 542 2073 542 2073 543 2061.5 c 128,-1,21
 544 2050 544 2050 544 2048 c 1,22,-1
 696 2048 l 1,23,-1
 696 1997 l 1,24,-1
 534 1997 l 1,25,26
 531 1987 531 1987 520 1969 c 0,27,28
 512 1955 512 1955 501 1942 c 0,29,30
 458 1892 458 1892 392.5 1861.5 c 128,-1,31
 327 1831 327 1831 261 1831 c 0,32,33
 233 1831 233 1831 215.5 1838 c 128,-1,34
 198 1845 198 1845 175 1862 c 1,35,-1
 175 1178 l 1,36,-1
 175 819 l 1,37,-1
 124 819 l 1,0,-1
470 2048 m 1,38,39
 507 2093 507 2093 507 2118 c 1,40,41
 501 2142 501 2142 468 2154 c 1,42,43
 429 2154 429 2154 390 2134 c 1,44,45
 341 2118 341 2118 290 2075 c 0,46,47
 282 2071 282 2071 273.5 2064.5 c 128,-1,48
 265 2058 265 2058 255 2048 c 1,49,-1
 470 2048 l 1,38,39
413 1991 m 0,50,51
 415 1993 415 1993 417 1994 c 128,-1,52
 419 1995 419 1995 421 1997 c 1,53,-1
 208 1997 l 1,54,55
 188 1974 188 1974 186 1954.5 c 128,-1,56
 184 1935 184 1935 184 1921 c 0,57,58
 184 1894 184 1894 214 1886 c 1,59,60
 253 1886 253 1886 298 1911.5 c 128,-1,61
 343 1937 343 1937 413 1991 c 0,50,51
EndSplineSet
EndChar

StartChar: o
Encoding: 111 111 82
Width: 480
GlyphClass: 1
Flags: W
LayerCount: 2
Fore
SplineSet
116 823 m 1024,0,-1
-8 811 m 1,1,2
 0 828 0 828 9 845 c 128,-1,3
 18 862 18 862 27 873 c 0,4,5
 82 928 82 928 136 952 c 0,6,7
 204 984 204 984 267 983 c 0,8,9
 296 982 296 982 312 976 c 0,10,11
 330 968 330 968 353 953 c 1,12,13
 353 953 353 953 353 1170 c 2,14,-1
 353 1579 l 1,15,-1
 353 2028 l 1,16,-1
 404 2028 l 1,17,-1
 404 1579 l 1,18,-1
 404 1170 l 1,19,-1
 404 811 l 1,20,-1
 395 781 l 2,21,22
 390 766 390 766 387 760 c 0,23,24
 384 756 384 756 376 743 c 0,25,26
 370 734 370 734 359 719 c 0,27,28
 320 672 320 672 254 637 c 0,29,30
 190 602 190 602 138 603 c 0,31,32
 86 602 86 602 52 615 c 0,33,34
 14 628 14 628 0 664 c 0,35,36
 -12 705 -12 705 -12 705 c 2,37,38
 -16 720 -16 720 -16 760 c 1,39,40
 -16 760 -16 760 -8 811 c 1,1,2
320 811 m 0,41,42
 340 834 340 834 342 856.5 c 128,-1,43
 344 879 344 879 344 893 c 0,44,45
 344 918 344 918 314 928 c 1,46,47
 275 928 275 928 230 902.5 c 128,-1,48
 185 877 185 877 115 824 c 0,49,50
 113 824 113 824 108 818.5 c 128,-1,51
 103 813 103 813 84 793 c 2,52,-1
 52 760 l 1,53,-1
 27 722 l 2,54,55
 21 707 21 707 21 697 c 0,56,57
 27 672 27 672 60 660 c 1,58,59
 99 660 99 660 138 680 c 0,60,61
 160 689 160 689 183.5 701 c 128,-1,62
 207 713 207 713 238 734 c 0,63,64
 246 738 246 738 253 745 c 128,-1,65
 260 752 260 752 271 760 c 2,66,-1
 297 783 l 2,67,68
 313 800 313 800 320 811 c 0,41,42
EndSplineSet
EndChar

StartChar: p
Encoding: 112 112 83
Width: 1082
GlyphClass: 1
Flags: W
LayerCount: 2
Fore
SplineSet
1098 -870 m 1,0,-1
 871 -870 l 1,1,2
 860 -928 860 -928 817 -961 c 0,3,4
 764 -1008 764 -1008 682 -1032 c 0,5,6
 641 -1044 641 -1044 602 -1049.5 c 128,-1,7
 563 -1055 563 -1055 529 -1055 c 0,8,9
 457 -1055 457 -1055 377 -1035.5 c 128,-1,10
 297 -1016 297 -1016 238 -967 c 0,11,12
 187 -924 187 -924 176 -870 c 1,13,-1
 -28 -870 l 1,14,-1
 -28 -819 l 1,15,-1
 176 -819 l 1,16,17
 187 -752 187 -752 238 -713 c 0,18,19
 297 -664 297 -664 371 -645 c 0,20,21
 402 -635 402 -635 442 -630 c 128,-1,22
 482 -625 482 -625 516 -625 c 0,23,24
 625 -625 625 -625 668 -645 c 1,25,26
 748 -662 748 -662 809 -713 c 1,27,28
 862 -752 862 -752 873 -819 c 1,29,-1
 1098 -819 l 1,30,-1
 1098 -870 l 1,0,-1
1098 -461 m 1,31,-1
 -28 -461 l 1,32,-1
 -28 -410 l 1,33,-1
 1098 -410 l 1,34,-1
 1098 -461 l 1,31,-1
387 -819 m 1,35,-1
 654 -819 l 1,36,-1
 645 -795 l 2,37,38
 639 -774 639 -774 628 -755.5 c 128,-1,39
 617 -737 617 -737 602 -721 c 0,40,41
 580 -690 580 -690 551.5 -679 c 128,-1,42
 523 -668 523 -668 484 -668 c 1,43,44
 436 -674 436 -674 411.5 -698.5 c 128,-1,45
 387 -723 387 -723 387 -803 c 2,46,-1
 387 -819 l 1,35,-1
393 -870 m 1,47,48
 396 -874 396 -874 397 -877.5 c 128,-1,49
 398 -881 398 -881 402 -889 c 0,50,51
 410 -905 410 -905 419 -922.5 c 128,-1,52
 428 -940 428 -940 443 -956 c 0,53,54
 467 -989 467 -989 497 -1000.5 c 128,-1,55
 527 -1012 527 -1012 561 -1012 c 0,56,57
 621 -1006 621 -1006 641 -979 c 0,58,59
 660 -952 660 -952 660 -874 c 2,60,-1
 660 -870 l 1,61,-1
 393 -870 l 1,47,48
EndSplineSet
EndChar

StartChar: q
Encoding: 113 113 84
Width: 1088
GlyphClass: 1
Flags: W
LayerCount: 2
Fore
SplineSet
1104 -412 m 1,0,-1
 1104 -461 l 1,1,-1
 725 -461 l 1,2,3
 774 -479 774 -479 815 -514 c 1,4,5
 879 -559 879 -559 879 -641 c 0,6,7
 879 -713 879 -713 823 -762 c 0,8,9
 770 -809 770 -809 688 -834 c 0,10,11
 647 -846 647 -846 608 -851 c 128,-1,12
 569 -856 569 -856 535 -856 c 0,13,14
 463 -856 463 -856 383 -836.5 c 128,-1,15
 303 -817 303 -817 244 -768 c 0,16,17
 182 -719 182 -719 182 -641 c 256,18,19
 182 -563 182 -563 244 -514 c 0,20,21
 289 -475 289 -475 332 -461 c 1,22,-1
 -22 -461 l 1,23,-1
 -22 -412 l 1,24,-1
 1104 -412 l 1,0,-1
393 -604 m 0,25,26
 393 -635 393 -635 395 -648.5 c 128,-1,27
 397 -662 397 -662 408 -690 c 0,28,29
 416 -707 416 -707 425 -724 c 128,-1,30
 434 -741 434 -741 449 -758 c 0,31,32
 473 -791 473 -791 504 -802 c 128,-1,33
 535 -813 535 -813 569 -813 c 0,34,35
 627 -807 627 -807 645 -782 c 0,36,37
 655 -768 655 -768 660.5 -742.5 c 128,-1,38
 666 -717 666 -717 666 -676 c 0,39,40
 666 -655 666 -655 662 -634.5 c 128,-1,41
 658 -614 658 -614 651 -596 c 0,42,43
 645 -575 645 -575 634 -557 c 128,-1,44
 623 -539 623 -539 608 -522 c 0,45,46
 561 -461 561 -461 486 -461 c 1,47,48
 438 -467 438 -467 415.5 -495.5 c 128,-1,49
 393 -524 393 -524 393 -604 c 0,25,26
EndSplineSet
EndChar

StartChar: r
Encoding: 114 114 85
Width: 1100
GlyphClass: 1
Flags: W
LayerCount: 2
Fore
SplineSet
1116 -461 m 1,0,-1
 889 -461 l 1,1,2
 878 -520 878 -520 835 -557 c 0,3,4
 782 -604 782 -604 700 -629 c 0,5,6
 659 -641 659 -641 620 -646 c 128,-1,7
 581 -651 581 -651 547 -651 c 0,8,9
 475 -651 475 -651 395 -631.5 c 128,-1,10
 315 -612 315 -612 256 -563 c 0,11,12
 205 -520 205 -520 194 -461 c 1,13,-1
 -10 -461 l 1,14,-1
 -10 -410 l 1,15,-1
 196 -410 l 1,16,17
 207 -344 207 -344 256 -309 c 1,18,19
 313 -260 313 -260 389 -242 c 0,20,21
 420 -231 420 -231 460 -226 c 128,-1,22
 500 -221 500 -221 534 -221 c 0,23,24
 639 -221 639 -221 686 -242 c 1,25,26
 766 -258 766 -258 827 -309 c 1,27,28
 880 -346 880 -346 889 -410 c 1,29,-1
 1116 -410 l 1,30,-1
 1116 -461 l 1,0,-1
409 -461 m 1,31,32
 411 -465 411 -465 413.5 -471 c 128,-1,33
 416 -477 416 -477 420 -485 c 0,34,35
 428 -502 428 -502 437 -519.5 c 128,-1,36
 446 -537 446 -537 461 -553 c 0,37,38
 485 -586 485 -586 516 -597 c 128,-1,39
 547 -608 547 -608 581 -608 c 0,40,41
 637 -602 637 -602 659 -573 c 0,42,43
 670 -559 670 -559 674 -535.5 c 128,-1,44
 678 -512 678 -512 678 -471 c 2,45,-1
 678 -461 l 1,46,-1
 409 -461 l 1,31,32
405 -410 m 1,47,-1
 670 -410 l 1,48,-1
 663 -391 l 2,49,50
 657 -371 657 -371 646 -352.5 c 128,-1,51
 635 -334 635 -334 620 -317 c 0,52,53
 598 -287 598 -287 569.5 -275.5 c 128,-1,54
 541 -264 541 -264 502 -264 c 1,55,56
 454 -270 454 -270 429.5 -294.5 c 128,-1,57
 405 -319 405 -319 405 -399 c 2,58,-1
 405 -410 l 1,47,-1
EndSplineSet
EndChar

StartChar: s
Encoding: 115 115 86
Width: 992
GlyphClass: 1
Flags: W
LayerCount: 2
Fore
SplineSet
629 -51 m 0,0,1
 671 -67 671 -67 719 -104 c 0,2,3
 783 -153 783 -153 783 -231 c 0,4,5
 783 -303 783 -303 727 -352 c 0,6,7
 674 -399 674 -399 592 -424 c 0,8,9
 551 -436 551 -436 512 -441 c 128,-1,10
 473 -446 473 -446 439 -446 c 0,11,12
 367 -446 367 -446 287 -427 c 0,13,14
 210 -409 210 -409 148 -358 c 128,-1,15
 86 -307 86 -307 86 -231 c 0,16,17
 86 -154 86 -154 148 -104 c 0,18,19
 190 -70 190 -70 236 -51 c 0,20,21
 336 -8 336 -8 422 -9 c 0,22,23
 533 -11 533 -11 629 -51 c 0,0,1
297 -195 m 0,24,25
 297 -225 297 -225 299 -238.5 c 128,-1,26
 301 -252 301 -252 312 -281 c 0,27,28
 320 -297 320 -297 329 -314.5 c 128,-1,29
 338 -332 338 -332 353 -348 c 0,30,31
 377 -381 377 -381 409 -392 c 128,-1,32
 441 -403 441 -403 476 -403 c 1,33,34
 504 -399 504 -399 521.5 -388 c 128,-1,35
 539 -377 539 -377 549 -362.5 c 128,-1,36
 559 -348 559 -348 564.5 -327.5 c 128,-1,37
 570 -307 570 -307 570 -266 c 0,38,39
 570 -246 570 -246 566 -225.5 c 128,-1,40
 562 -205 562 -205 555 -186 c 0,41,42
 549 -166 549 -166 538 -147.5 c 128,-1,43
 527 -129 527 -129 512 -113 c 0,44,45
 465 -51 465 -51 390 -51 c 1,46,47
 342 -57 342 -57 319.5 -86 c 128,-1,48
 297 -115 297 -115 297 -195 c 0,24,25
EndSplineSet
EndChar

StartChar: t
Encoding: 116 116 87
Width: 992
GlyphClass: 1
Flags: W
LayerCount: 2
Fore
SplineSet
626 156 m 0,0,1
 668 140 668 140 716 103 c 0,2,3
 780 54 780 54 780 -24 c 0,4,5
 780 -96 780 -96 724 -145 c 0,6,7
 671 -192 671 -192 589 -217 c 0,8,9
 548 -229 548 -229 509 -234 c 128,-1,10
 470 -239 470 -239 436 -239 c 0,11,12
 364 -239 364 -239 284 -220 c 0,13,14
 207 -202 207 -202 145 -151 c 128,-1,15
 83 -100 83 -100 83 -24 c 0,16,17
 83 53 83 53 145 103 c 0,18,19
 187 137 187 137 233 156 c 0,20,21
 333 199 333 199 419 198 c 0,22,23
 530 196 530 196 626 156 c 0,0,1
294 12 m 0,24,25
 294 -18 294 -18 296 -31.5 c 128,-1,26
 298 -45 298 -45 309 -74 c 0,27,28
 317 -90 317 -90 326 -107.5 c 128,-1,29
 335 -125 335 -125 350 -141 c 0,30,31
 374 -174 374 -174 406 -185 c 128,-1,32
 438 -196 438 -196 473 -196 c 1,33,34
 501 -192 501 -192 518.5 -181 c 128,-1,35
 536 -170 536 -170 546 -155.5 c 128,-1,36
 556 -141 556 -141 561.5 -120.5 c 128,-1,37
 567 -100 567 -100 567 -59 c 0,38,39
 567 -39 567 -39 563 -18.5 c 128,-1,40
 559 2 559 2 552 21 c 0,41,42
 546 41 546 41 535 59.5 c 128,-1,43
 524 78 524 78 509 94 c 0,44,45
 462 156 462 156 387 156 c 1,46,47
 339 150 339 150 316.5 121 c 128,-1,48
 294 92 294 92 294 12 c 0,24,25
EndSplineSet
EndChar

StartChar: u
Encoding: 117 117 88
Width: 992
GlyphClass: 1
Flags: W
LayerCount: 2
Fore
SplineSet
629 358 m 0,0,1
 671 342 671 342 719 305 c 0,2,3
 783 256 783 256 783 178 c 0,4,5
 783 106 783 106 727 57 c 0,6,7
 674 10 674 10 592 -15 c 0,8,9
 551 -27 551 -27 512 -32 c 128,-1,10
 473 -37 473 -37 439 -37 c 0,11,12
 367 -37 367 -37 287 -18 c 0,13,14
 210 0 210 0 148 51 c 128,-1,15
 86 102 86 102 86 178 c 0,16,17
 86 255 86 255 148 305 c 0,18,19
 190 339 190 339 236 358 c 0,20,21
 336 401 336 401 422 400 c 0,22,23
 533 398 533 398 629 358 c 0,0,1
297 214 m 0,24,25
 297 184 297 184 299 170.5 c 128,-1,26
 301 157 301 157 312 128 c 0,27,28
 320 112 320 112 329 94.5 c 128,-1,29
 338 77 338 77 353 61 c 0,30,31
 377 28 377 28 409 17 c 128,-1,32
 441 6 441 6 476 6 c 1,33,34
 504 10 504 10 521.5 21 c 128,-1,35
 539 32 539 32 549 46.5 c 128,-1,36
 559 61 559 61 564.5 81.5 c 128,-1,37
 570 102 570 102 570 143 c 0,38,39
 570 163 570 163 566 183.5 c 128,-1,40
 562 204 562 204 555 223 c 0,41,42
 549 243 549 243 538 261.5 c 128,-1,43
 527 280 527 280 512 296 c 0,44,45
 465 358 465 358 390 358 c 1,46,47
 342 352 342 352 319.5 323 c 128,-1,48
 297 294 297 294 297 214 c 0,24,25
EndSplineSet
EndChar

StartChar: v
Encoding: 118 118 89
Width: 992
GlyphClass: 1
Flags: W
LayerCount: 2
Fore
SplineSet
632 561 m 0,0,1
 674 545 674 545 722 508 c 0,2,3
 786 459 786 459 786 381 c 0,4,5
 786 309 786 309 730 260 c 0,6,7
 677 213 677 213 595 188 c 0,8,9
 554 176 554 176 515 171 c 128,-1,10
 476 166 476 166 442 166 c 0,11,12
 370 166 370 166 290 185 c 0,13,14
 213 203 213 203 151 254 c 128,-1,15
 89 305 89 305 89 381 c 0,16,17
 89 458 89 458 151 508 c 0,18,19
 193 542 193 542 239 561 c 0,20,21
 339 604 339 604 425 603 c 0,22,23
 536 601 536 601 632 561 c 0,0,1
300 417 m 0,24,25
 300 387 300 387 302 373.5 c 128,-1,26
 304 360 304 360 315 331 c 0,27,28
 323 315 323 315 332 297.5 c 128,-1,29
 341 280 341 280 356 264 c 0,30,31
 380 231 380 231 412 220 c 128,-1,32
 444 209 444 209 479 209 c 1,33,34
 507 213 507 213 524.5 224 c 128,-1,35
 542 235 542 235 552 249.5 c 128,-1,36
 562 264 562 264 567.5 284.5 c 128,-1,37
 573 305 573 305 573 346 c 0,38,39
 573 366 573 366 569 386.5 c 128,-1,40
 565 407 565 407 558 426 c 0,41,42
 552 446 552 446 541 464.5 c 128,-1,43
 530 483 530 483 515 499 c 0,44,45
 468 561 468 561 393 561 c 1,46,47
 345 555 345 555 322.5 526 c 128,-1,48
 300 497 300 497 300 417 c 0,24,25
EndSplineSet
EndChar

StartChar: w
Encoding: 119 119 90
Width: 992
GlyphClass: 1
Flags: W
LayerCount: 2
Fore
SplineSet
629 768 m 0,0,1
 671 752 671 752 719 715 c 0,2,3
 783 666 783 666 783 588 c 0,4,5
 783 516 783 516 727 467 c 0,6,7
 674 420 674 420 592 395 c 0,8,9
 551 383 551 383 512 378 c 128,-1,10
 473 373 473 373 439 373 c 0,11,12
 367 373 367 373 287 392 c 0,13,14
 210 410 210 410 148 461 c 128,-1,15
 86 512 86 512 86 588 c 0,16,17
 86 665 86 665 148 715 c 0,18,19
 190 749 190 749 236 768 c 0,20,21
 336 811 336 811 422 810 c 0,22,23
 533 808 533 808 629 768 c 0,0,1
297 624 m 0,24,25
 297 594 297 594 299 580.5 c 128,-1,26
 301 567 301 567 312 538 c 0,27,28
 320 522 320 522 329 504.5 c 128,-1,29
 338 487 338 487 353 471 c 0,30,31
 377 438 377 438 409 427 c 128,-1,32
 441 416 441 416 476 416 c 1,33,34
 504 420 504 420 521.5 431 c 128,-1,35
 539 442 539 442 549 456.5 c 128,-1,36
 559 471 559 471 564.5 491.5 c 128,-1,37
 570 512 570 512 570 553 c 0,38,39
 570 573 570 573 566 593.5 c 128,-1,40
 562 614 562 614 555 633 c 0,41,42
 549 653 549 653 538 671.5 c 128,-1,43
 527 690 527 690 512 706 c 0,44,45
 465 768 465 768 390 768 c 1,46,47
 342 762 342 762 319.5 733 c 128,-1,48
 297 704 297 704 297 624 c 0,24,25
EndSplineSet
EndChar

StartChar: x
Encoding: 120 120 91
Width: 992
GlyphClass: 1
Flags: W
LayerCount: 2
Fore
SplineSet
632 968 m 0,0,1
 674 952 674 952 722 915 c 0,2,3
 786 866 786 866 786 788 c 0,4,5
 786 716 786 716 730 667 c 0,6,7
 677 620 677 620 595 595 c 0,8,9
 554 583 554 583 515 578 c 128,-1,10
 476 573 476 573 442 573 c 0,11,12
 370 573 370 573 290 592 c 0,13,14
 213 610 213 610 151 661 c 128,-1,15
 89 712 89 712 89 788 c 0,16,17
 89 865 89 865 151 915 c 0,18,19
 193 949 193 949 239 968 c 0,20,21
 339 1011 339 1011 425 1010 c 0,22,23
 536 1008 536 1008 632 968 c 0,0,1
300 824 m 0,24,25
 300 794 300 794 302 780.5 c 128,-1,26
 304 767 304 767 315 738 c 0,27,28
 323 722 323 722 332 704.5 c 128,-1,29
 341 687 341 687 356 671 c 0,30,31
 380 638 380 638 412 627 c 128,-1,32
 444 616 444 616 479 616 c 1,33,34
 507 620 507 620 524.5 631 c 128,-1,35
 542 642 542 642 552 656.5 c 128,-1,36
 562 671 562 671 567.5 691.5 c 128,-1,37
 573 712 573 712 573 753 c 0,38,39
 573 773 573 773 569 793.5 c 128,-1,40
 565 814 565 814 558 833 c 0,41,42
 552 853 552 853 541 871.5 c 128,-1,43
 530 890 530 890 515 906 c 0,44,45
 468 968 468 968 393 968 c 1,46,47
 345 962 345 962 322.5 933 c 128,-1,48
 300 904 300 904 300 824 c 0,24,25
EndSplineSet
EndChar

StartChar: y
Encoding: 121 121 92
Width: 992
GlyphClass: 1
Flags: W
LayerCount: 2
Fore
SplineSet
629 1178 m 0,0,1
 671 1162 671 1162 719 1125 c 0,2,3
 783 1076 783 1076 783 998 c 0,4,5
 783 926 783 926 727 877 c 0,6,7
 674 830 674 830 592 805 c 0,8,9
 551 793 551 793 512 788 c 128,-1,10
 473 783 473 783 439 783 c 0,11,12
 367 783 367 783 287 802 c 0,13,14
 210 820 210 820 148 871 c 128,-1,15
 86 922 86 922 86 998 c 0,16,17
 86 1075 86 1075 148 1125 c 0,18,19
 190 1159 190 1159 236 1178 c 0,20,21
 336 1221 336 1221 422 1220 c 0,22,23
 533 1218 533 1218 629 1178 c 0,0,1
297 1034 m 0,24,25
 297 1004 297 1004 299 990.5 c 128,-1,26
 301 977 301 977 312 948 c 0,27,28
 320 932 320 932 329 914.5 c 128,-1,29
 338 897 338 897 353 881 c 0,30,31
 377 848 377 848 409 837 c 128,-1,32
 441 826 441 826 476 826 c 1,33,34
 504 830 504 830 521.5 841 c 128,-1,35
 539 852 539 852 549 866.5 c 128,-1,36
 559 881 559 881 564.5 901.5 c 128,-1,37
 570 922 570 922 570 963 c 0,38,39
 570 983 570 983 566 1003.5 c 128,-1,40
 562 1024 562 1024 555 1043 c 0,41,42
 549 1063 549 1063 538 1081.5 c 128,-1,43
 527 1100 527 1100 512 1116 c 0,44,45
 465 1178 465 1178 390 1178 c 1,46,47
 342 1172 342 1172 319.5 1143 c 128,-1,48
 297 1114 297 1114 297 1034 c 0,24,25
EndSplineSet
EndChar

StartChar: z
Encoding: 122 122 93
Width: 992
GlyphClass: 1
Flags: W
LayerCount: 2
Fore
SplineSet
632 1380 m 0,0,1
 674 1364 674 1364 722 1327 c 0,2,3
 786 1278 786 1278 786 1200 c 0,4,5
 786 1128 786 1128 730 1079 c 0,6,7
 677 1032 677 1032 595 1007 c 0,8,9
 554 995 554 995 515 990 c 128,-1,10
 476 985 476 985 442 985 c 0,11,12
 370 985 370 985 290 1004 c 0,13,14
 213 1022 213 1022 151 1073 c 128,-1,15
 89 1124 89 1124 89 1200 c 0,16,17
 89 1277 89 1277 151 1327 c 0,18,19
 193 1361 193 1361 239 1380 c 0,20,21
 339 1423 339 1423 425 1422 c 0,22,23
 536 1420 536 1420 632 1380 c 0,0,1
300 1236 m 0,24,25
 300 1206 300 1206 302 1192.5 c 128,-1,26
 304 1179 304 1179 315 1150 c 0,27,28
 323 1134 323 1134 332 1116.5 c 128,-1,29
 341 1099 341 1099 356 1083 c 0,30,31
 380 1050 380 1050 412 1039 c 128,-1,32
 444 1028 444 1028 479 1028 c 1,33,34
 507 1032 507 1032 524.5 1043 c 128,-1,35
 542 1054 542 1054 552 1068.5 c 128,-1,36
 562 1083 562 1083 567.5 1103.5 c 128,-1,37
 573 1124 573 1124 573 1165 c 0,38,39
 573 1185 573 1185 569 1205.5 c 128,-1,40
 565 1226 565 1226 558 1245 c 0,41,42
 552 1265 552 1265 541 1283.5 c 128,-1,43
 530 1302 530 1302 515 1318 c 0,44,45
 468 1380 468 1380 393 1380 c 1,46,47
 345 1374 345 1374 322.5 1345 c 128,-1,48
 300 1316 300 1316 300 1236 c 0,24,25
EndSplineSet
EndChar

StartChar: braceleft
Encoding: 123 123 94
Width: 992
GlyphClass: 1
Flags: W
LayerCount: 2
Fore
SplineSet
629 1587 m 0,0,1
 671 1571 671 1571 719 1534 c 0,2,3
 783 1485 783 1485 783 1407 c 0,4,5
 783 1335 783 1335 727 1286 c 0,6,7
 674 1239 674 1239 592 1214 c 0,8,9
 551 1202 551 1202 512 1197 c 128,-1,10
 473 1192 473 1192 439 1192 c 0,11,12
 367 1192 367 1192 287 1211 c 0,13,14
 210 1229 210 1229 148 1280 c 128,-1,15
 86 1331 86 1331 86 1407 c 0,16,17
 86 1484 86 1484 148 1534 c 0,18,19
 190 1568 190 1568 236 1587 c 0,20,21
 336 1630 336 1630 422 1629 c 0,22,23
 533 1627 533 1627 629 1587 c 0,0,1
297 1443 m 0,24,25
 297 1413 297 1413 299 1399.5 c 128,-1,26
 301 1386 301 1386 312 1357 c 0,27,28
 320 1341 320 1341 329 1323.5 c 128,-1,29
 338 1306 338 1306 353 1290 c 0,30,31
 377 1257 377 1257 409 1246 c 128,-1,32
 441 1235 441 1235 476 1235 c 1,33,34
 504 1239 504 1239 521.5 1250 c 128,-1,35
 539 1261 539 1261 549 1275.5 c 128,-1,36
 559 1290 559 1290 564.5 1310.5 c 128,-1,37
 570 1331 570 1331 570 1372 c 0,38,39
 570 1392 570 1392 566 1412.5 c 128,-1,40
 562 1433 562 1433 555 1452 c 0,41,42
 549 1472 549 1472 538 1490.5 c 128,-1,43
 527 1509 527 1509 512 1525 c 0,44,45
 465 1587 465 1587 390 1587 c 1,46,47
 342 1581 342 1581 319.5 1552 c 128,-1,48
 297 1523 297 1523 297 1443 c 0,24,25
EndSplineSet
EndChar

StartChar: bar
Encoding: 124 124 95
Width: 992
GlyphClass: 1
Flags: W
LayerCount: 2
Fore
SplineSet
626 1791 m 0,0,1
 668 1775 668 1775 716 1738 c 0,2,3
 780 1689 780 1689 780 1611 c 0,4,5
 780 1539 780 1539 724 1490 c 0,6,7
 671 1443 671 1443 589 1418 c 0,8,9
 548 1406 548 1406 509 1401 c 128,-1,10
 470 1396 470 1396 436 1396 c 0,11,12
 364 1396 364 1396 284 1415 c 0,13,14
 207 1433 207 1433 145 1484 c 128,-1,15
 83 1535 83 1535 83 1611 c 0,16,17
 83 1688 83 1688 145 1738 c 0,18,19
 187 1772 187 1772 233 1791 c 0,20,21
 333 1834 333 1834 419 1833 c 0,22,23
 530 1831 530 1831 626 1791 c 0,0,1
294 1647 m 0,24,25
 294 1617 294 1617 296 1603.5 c 128,-1,26
 298 1590 298 1590 309 1561 c 0,27,28
 317 1545 317 1545 326 1527.5 c 128,-1,29
 335 1510 335 1510 350 1494 c 0,30,31
 374 1461 374 1461 406 1450 c 128,-1,32
 438 1439 438 1439 473 1439 c 1,33,34
 501 1443 501 1443 518.5 1454 c 128,-1,35
 536 1465 536 1465 546 1479.5 c 128,-1,36
 556 1494 556 1494 561.5 1514.5 c 128,-1,37
 567 1535 567 1535 567 1576 c 0,38,39
 567 1596 567 1596 563 1616.5 c 128,-1,40
 559 1637 559 1637 552 1656 c 0,41,42
 546 1676 546 1676 535 1694.5 c 128,-1,43
 524 1713 524 1713 509 1729 c 0,44,45
 462 1791 462 1791 387 1791 c 1,46,47
 339 1785 339 1785 316.5 1756 c 128,-1,48
 294 1727 294 1727 294 1647 c 0,24,25
EndSplineSet
EndChar

StartChar: braceright
Encoding: 125 125 96
Width: 992
GlyphClass: 1
Flags: W
LayerCount: 2
Fore
SplineSet
632 1995 m 0,0,1
 674 1979 674 1979 722 1942 c 0,2,3
 786 1893 786 1893 786 1815 c 0,4,5
 786 1743 786 1743 730 1694 c 0,6,7
 677 1647 677 1647 595 1622 c 0,8,9
 554 1610 554 1610 515 1605 c 128,-1,10
 476 1600 476 1600 442 1600 c 0,11,12
 370 1600 370 1600 290 1619 c 0,13,14
 213 1637 213 1637 151 1688 c 128,-1,15
 89 1739 89 1739 89 1815 c 0,16,17
 89 1892 89 1892 151 1942 c 0,18,19
 193 1976 193 1976 239 1995 c 0,20,21
 339 2038 339 2038 425 2037 c 0,22,23
 536 2035 536 2035 632 1995 c 0,0,1
300 1851 m 0,24,25
 300 1821 300 1821 302 1807.5 c 128,-1,26
 304 1794 304 1794 315 1765 c 0,27,28
 323 1749 323 1749 332 1731.5 c 128,-1,29
 341 1714 341 1714 356 1698 c 0,30,31
 380 1665 380 1665 412 1654 c 128,-1,32
 444 1643 444 1643 479 1643 c 1,33,34
 507 1647 507 1647 524.5 1658 c 128,-1,35
 542 1669 542 1669 552 1683.5 c 128,-1,36
 562 1698 562 1698 567.5 1718.5 c 128,-1,37
 573 1739 573 1739 573 1780 c 0,38,39
 573 1800 573 1800 569 1820.5 c 128,-1,40
 565 1841 565 1841 558 1860 c 0,41,42
 552 1880 552 1880 541 1898.5 c 128,-1,43
 530 1917 530 1917 515 1933 c 0,44,45
 468 1995 468 1995 393 1995 c 1,46,47
 345 1989 345 1989 322.5 1960 c 128,-1,48
 300 1931 300 1931 300 1851 c 0,24,25
EndSplineSet
EndChar

StartChar: asciitilde
Encoding: 126 126 97
Width: 1088
GlyphClass: 1
Flags: W
LayerCount: 2
Fore
SplineSet
1104 1997 m 1,0,-1
 877 1997 l 1,1,2
 866 1937 866 1937 823 1901 c 0,3,4
 770 1853 770 1853 688 1829 c 0,5,6
 647 1817 647 1817 608 1811.5 c 128,-1,7
 569 1806 569 1806 535 1806 c 0,8,9
 463 1806 463 1806 383 1825.5 c 128,-1,10
 303 1845 303 1845 244 1894 c 0,11,12
 193 1933 193 1933 182 1997 c 1,13,-1
 -22 1997 l 1,14,-1
 -22 2048 l 1,15,-1
 184 2048 l 1,16,17
 195 2114 195 2114 244 2148 c 1,18,19
 301 2198 301 2198 377 2216 c 0,20,21
 408 2226 408 2226 448 2231 c 128,-1,22
 488 2236 488 2236 522 2236 c 0,23,24
 627 2236 627 2236 674 2216 c 1,25,26
 754 2200 754 2200 815 2148 c 0,27,28
 868 2107 868 2107 877 2048 c 1,29,-1
 1104 2048 l 1,30,-1
 1104 1997 l 1,0,-1
397 1997 m 1,31,32
 402 1985 402 1985 416 1956 c 128,-1,33
 430 1927 430 1927 449 1905 c 0,34,35
 498 1841 498 1841 569 1841 c 1,36,37
 625 1847 625 1847 647 1876 c 0,38,39
 666 1903 666 1903 666 1987 c 2,40,-1
 666 1997 l 1,41,-1
 397 1997 l 1,31,32
393 2048 m 1,42,-1
 658 2048 l 1,43,-1
 651 2066 l 2,44,45
 645 2087 645 2087 634 2105.5 c 128,-1,46
 623 2124 623 2124 608 2140 c 0,47,48
 586 2171 586 2171 557.5 2183 c 128,-1,49
 529 2195 529 2195 490 2195 c 1,50,51
 442 2189 442 2189 417.5 2163.5 c 128,-1,52
 393 2138 393 2138 393 2058 c 2,53,-1
 393 2048 l 1,42,-1
EndSplineSet
EndChar

StartChar: exclamdown
Encoding: 161 161 99
Width: 809
GlyphClass: 1
Flags: W
LayerCount: 2
Fore
SplineSet
70 1515 m 1,0,-1
 70 1677 l 1,1,-1
 -16 1663 l 1,2,-1
 -16 1775 l 1,3,-1
 70 1790 l 1,4,-1
 70 1964 l 1,5,-1
 119 1964 l 1,6,-1
 119 1800 l 1,7,-1
 230 1818 l 1,8,-1
 230 2042 l 1,9,-1
 279 2042 l 1,10,-1
 279 1827 l 1,11,-1
 357 1841 l 1,12,-1
 357 1730 l 1,13,-1
 279 1716 l 1,14,-1
 279 1552 l 1,15,-1
 357 1566 l 1,16,-1
 357 1450 l 1,17,-1
 279 1437 l 1,18,-1
 279 1265 l 1,19,-1
 230 1265 l 1,20,-1
 230 1429 l 1,21,-1
 119 1409 l 1,22,-1
 119 1192 l 1,23,-1
 70 1192 l 1,24,-1
 70 1399 l 1,25,-1
 -16 1384 l 1,26,-1
 -16 1501 l 1,27,-1
 70 1515 l 1,0,-1
230 1544 m 1,28,-1
 230 1706 l 1,29,-1
 119 1687 l 1,30,-1
 119 1525 l 1,31,-1
 230 1544 l 1,28,-1
EndSplineSet
EndChar

StartChar: cent
Encoding: 162 162 100
Width: 832
GlyphClass: 1
Flags: W
LayerCount: 2
Fore
SplineSet
70 1515 m 1,0,-1
 70 1677 l 1,1,-1
 -16 1663 l 1,2,-1
 -16 1775 l 1,3,-1
 70 1790 l 1,4,-1
 70 1964 l 1,5,-1
 119 1964 l 1,6,-1
 119 1800 l 1,7,-1
 230 1818 l 1,8,-1
 230 2042 l 1,9,-1
 279 2042 l 1,10,-1
 279 1827 l 1,11,-1
 357 1841 l 1,12,-1
 357 1730 l 1,13,-1
 279 1716 l 1,14,-1
 279 1552 l 1,15,-1
 357 1566 l 1,16,-1
 357 1450 l 1,17,-1
 279 1437 l 1,18,-1
 279 1265 l 1,19,-1
 230 1265 l 1,20,-1
 230 1429 l 1,21,-1
 119 1409 l 1,22,-1
 119 1192 l 1,23,-1
 70 1192 l 1,24,-1
 70 1399 l 1,25,-1
 -16 1384 l 1,26,-1
 -16 1501 l 1,27,-1
 70 1515 l 1,0,-1
230 1544 m 1,28,-1
 230 1706 l 1,29,-1
 119 1687 l 1,30,-1
 119 1525 l 1,31,-1
 230 1544 l 1,28,-1
445 901 m 1,32,-1
 445 1063 l 1,33,-1
 359 1049 l 1,34,-1
 359 1161 l 1,35,-1
 445 1176 l 1,36,-1
 445 1350 l 1,37,-1
 494 1350 l 1,38,-1
 494 1186 l 1,39,-1
 605 1204 l 1,40,-1
 605 1428 l 1,41,-1
 654 1428 l 1,42,-1
 654 1213 l 1,43,-1
 732 1227 l 1,44,-1
 732 1116 l 1,45,-1
 654 1102 l 1,46,-1
 654 938 l 1,47,-1
 732 952 l 1,48,-1
 732 836 l 1,49,-1
 654 823 l 1,50,-1
 654 651 l 1,51,-1
 605 651 l 1,52,-1
 605 815 l 1,53,-1
 494 795 l 1,54,-1
 494 578 l 1,55,-1
 445 578 l 1,56,-1
 445 785 l 1,57,-1
 359 770 l 1,58,-1
 359 887 l 1,59,-1
 445 901 l 1,32,-1
605 930 m 1,60,-1
 605 1092 l 1,61,-1
 494 1073 l 1,62,-1
 494 911 l 1,63,-1
 605 930 l 1,60,-1
EndSplineSet
EndChar

StartChar: sterling
Encoding: 163 163 101
Width: 1504
GlyphClass: 1
Flags: W
LayerCount: 2
Fore
SplineSet
70 1515 m 1,0,-1
 70 1677 l 1,1,-1
 -16 1663 l 1,2,-1
 -16 1775 l 1,3,-1
 70 1790 l 1,4,-1
 70 1964 l 1,5,-1
 119 1964 l 1,6,-1
 119 1800 l 1,7,-1
 230 1818 l 1,8,-1
 230 2042 l 1,9,-1
 279 2042 l 1,10,-1
 279 1827 l 1,11,-1
 357 1841 l 1,12,-1
 357 1730 l 1,13,-1
 279 1716 l 1,14,-1
 279 1552 l 1,15,-1
 357 1566 l 1,16,-1
 357 1450 l 1,17,-1
 279 1437 l 1,18,-1
 279 1265 l 1,19,-1
 230 1265 l 1,20,-1
 230 1429 l 1,21,-1
 119 1409 l 1,22,-1
 119 1192 l 1,23,-1
 70 1192 l 1,24,-1
 70 1399 l 1,25,-1
 -16 1384 l 1,26,-1
 -16 1501 l 1,27,-1
 70 1515 l 1,0,-1
230 1544 m 1,28,-1
 230 1706 l 1,29,-1
 119 1687 l 1,30,-1
 119 1525 l 1,31,-1
 230 1544 l 1,28,-1
445 901 m 1,32,-1
 445 1063 l 1,33,-1
 359 1049 l 1,34,-1
 359 1161 l 1,35,-1
 445 1176 l 1,36,-1
 445 1350 l 1,37,-1
 494 1350 l 1,38,-1
 494 1186 l 1,39,-1
 605 1204 l 1,40,-1
 605 1428 l 1,41,-1
 654 1428 l 1,42,-1
 654 1213 l 1,43,-1
 732 1227 l 1,44,-1
 732 1116 l 1,45,-1
 654 1102 l 1,46,-1
 654 938 l 1,47,-1
 732 952 l 1,48,-1
 732 836 l 1,49,-1
 654 823 l 1,50,-1
 654 651 l 1,51,-1
 605 651 l 1,52,-1
 605 815 l 1,53,-1
 494 795 l 1,54,-1
 494 578 l 1,55,-1
 445 578 l 1,56,-1
 445 785 l 1,57,-1
 359 770 l 1,58,-1
 359 887 l 1,59,-1
 445 901 l 1,32,-1
605 930 m 1,60,-1
 605 1092 l 1,61,-1
 494 1073 l 1,62,-1
 494 911 l 1,63,-1
 605 930 l 1,60,-1
824 1726 m 1,64,-1
 824 1888 l 1,65,-1
 738 1874 l 1,66,-1
 738 1986 l 1,67,-1
 824 2001 l 1,68,-1
 824 2175 l 1,69,-1
 873 2175 l 1,70,-1
 873 2011 l 1,71,-1
 984 2029 l 1,72,-1
 984 2253 l 1,73,-1
 1033 2253 l 1,74,-1
 1033 2038 l 1,75,-1
 1111 2052 l 1,76,-1
 1111 1941 l 1,77,-1
 1033 1927 l 1,78,-1
 1033 1763 l 1,79,-1
 1111 1777 l 1,80,-1
 1111 1661 l 1,81,-1
 1033 1648 l 1,82,-1
 1033 1476 l 1,83,-1
 984 1476 l 1,84,-1
 984 1640 l 1,85,-1
 873 1620 l 1,86,-1
 873 1403 l 1,87,-1
 824 1403 l 1,88,-1
 824 1610 l 1,89,-1
 738 1595 l 1,90,-1
 738 1712 l 1,91,-1
 824 1726 l 1,64,-1
984 1755 m 1,92,-1
 984 1917 l 1,93,-1
 873 1898 l 1,94,-1
 873 1736 l 1,95,-1
 984 1755 l 1,92,-1
EndSplineSet
EndChar

StartChar: currency
Encoding: 164 164 102
Width: 1504
GlyphClass: 1
Flags: W
LayerCount: 2
Fore
SplineSet
70 1515 m 1,0,-1
 70 1677 l 1,1,-1
 -16 1663 l 1,2,-1
 -16 1775 l 1,3,-1
 70 1790 l 1,4,-1
 70 1964 l 1,5,-1
 119 1964 l 1,6,-1
 119 1800 l 1,7,-1
 230 1818 l 1,8,-1
 230 2042 l 1,9,-1
 279 2042 l 1,10,-1
 279 1827 l 1,11,-1
 357 1841 l 1,12,-1
 357 1730 l 1,13,-1
 279 1716 l 1,14,-1
 279 1552 l 1,15,-1
 357 1566 l 1,16,-1
 357 1450 l 1,17,-1
 279 1437 l 1,18,-1
 279 1265 l 1,19,-1
 230 1265 l 1,20,-1
 230 1429 l 1,21,-1
 119 1409 l 1,22,-1
 119 1192 l 1,23,-1
 70 1192 l 1,24,-1
 70 1399 l 1,25,-1
 -16 1384 l 1,26,-1
 -16 1501 l 1,27,-1
 70 1515 l 1,0,-1
230 1544 m 1,28,-1
 230 1706 l 1,29,-1
 119 1687 l 1,30,-1
 119 1525 l 1,31,-1
 230 1544 l 1,28,-1
445 901 m 1,32,-1
 445 1063 l 1,33,-1
 359 1049 l 1,34,-1
 359 1161 l 1,35,-1
 445 1176 l 1,36,-1
 445 1350 l 1,37,-1
 494 1350 l 1,38,-1
 494 1186 l 1,39,-1
 605 1204 l 1,40,-1
 605 1428 l 1,41,-1
 654 1428 l 1,42,-1
 654 1213 l 1,43,-1
 732 1227 l 1,44,-1
 732 1116 l 1,45,-1
 654 1102 l 1,46,-1
 654 938 l 1,47,-1
 732 952 l 1,48,-1
 732 836 l 1,49,-1
 654 823 l 1,50,-1
 654 651 l 1,51,-1
 605 651 l 1,52,-1
 605 815 l 1,53,-1
 494 795 l 1,54,-1
 494 578 l 1,55,-1
 445 578 l 1,56,-1
 445 785 l 1,57,-1
 359 770 l 1,58,-1
 359 887 l 1,59,-1
 445 901 l 1,32,-1
605 930 m 1,60,-1
 605 1092 l 1,61,-1
 494 1073 l 1,62,-1
 494 911 l 1,63,-1
 605 930 l 1,60,-1
824 1726 m 1,64,-1
 824 1888 l 1,65,-1
 738 1874 l 1,66,-1
 738 1986 l 1,67,-1
 824 2001 l 1,68,-1
 824 2175 l 1,69,-1
 873 2175 l 1,70,-1
 873 2011 l 1,71,-1
 984 2029 l 1,72,-1
 984 2253 l 1,73,-1
 1033 2253 l 1,74,-1
 1033 2038 l 1,75,-1
 1111 2052 l 1,76,-1
 1111 1941 l 1,77,-1
 1033 1927 l 1,78,-1
 1033 1763 l 1,79,-1
 1111 1777 l 1,80,-1
 1111 1661 l 1,81,-1
 1033 1648 l 1,82,-1
 1033 1476 l 1,83,-1
 984 1476 l 1,84,-1
 984 1640 l 1,85,-1
 873 1620 l 1,86,-1
 873 1403 l 1,87,-1
 824 1403 l 1,88,-1
 824 1610 l 1,89,-1
 738 1595 l 1,90,-1
 738 1712 l 1,91,-1
 824 1726 l 1,64,-1
984 1755 m 1,92,-1
 984 1917 l 1,93,-1
 873 1898 l 1,94,-1
 873 1736 l 1,95,-1
 984 1755 l 1,92,-1
1194 1103 m 1,96,-1
 1194 1265 l 1,97,-1
 1108 1251 l 1,98,-1
 1108 1363 l 1,99,-1
 1194 1378 l 1,100,-1
 1194 1552 l 1,101,-1
 1243 1552 l 1,102,-1
 1243 1388 l 1,103,-1
 1354 1406 l 1,104,-1
 1354 1630 l 1,105,-1
 1403 1630 l 1,106,-1
 1403 1415 l 1,107,-1
 1481 1429 l 1,108,-1
 1481 1318 l 1,109,-1
 1403 1304 l 1,110,-1
 1403 1140 l 1,111,-1
 1481 1154 l 1,112,-1
 1481 1038 l 1,113,-1
 1403 1025 l 1,114,-1
 1403 853 l 1,115,-1
 1354 853 l 1,116,-1
 1354 1017 l 1,117,-1
 1243 997 l 1,118,-1
 1243 780 l 1,119,-1
 1194 780 l 1,120,-1
 1194 987 l 1,121,-1
 1108 972 l 1,122,-1
 1108 1089 l 1,123,-1
 1194 1103 l 1,96,-1
1354 1132 m 1,124,-1
 1354 1294 l 1,125,-1
 1243 1275 l 1,126,-1
 1243 1113 l 1,127,-1
 1354 1132 l 1,124,-1
EndSplineSet
EndChar

StartChar: yen
Encoding: 165 165 103
Width: 2016
GlyphClass: 1
Flags: W
LayerCount: 2
Fore
SplineSet
70 1515 m 1,0,-1
 70 1677 l 1,1,-1
 -16 1663 l 1,2,-1
 -16 1775 l 1,3,-1
 70 1790 l 1,4,-1
 70 1964 l 1,5,-1
 119 1964 l 1,6,-1
 119 1800 l 1,7,-1
 230 1818 l 1,8,-1
 230 2042 l 1,9,-1
 279 2042 l 1,10,-1
 279 1827 l 1,11,-1
 357 1841 l 1,12,-1
 357 1730 l 1,13,-1
 279 1716 l 1,14,-1
 279 1552 l 1,15,-1
 357 1566 l 1,16,-1
 357 1450 l 1,17,-1
 279 1437 l 1,18,-1
 279 1265 l 1,19,-1
 230 1265 l 1,20,-1
 230 1429 l 1,21,-1
 119 1409 l 1,22,-1
 119 1192 l 1,23,-1
 70 1192 l 1,24,-1
 70 1399 l 1,25,-1
 -16 1384 l 1,26,-1
 -16 1501 l 1,27,-1
 70 1515 l 1,0,-1
230 1544 m 1,28,-1
 230 1706 l 1,29,-1
 119 1687 l 1,30,-1
 119 1525 l 1,31,-1
 230 1544 l 1,28,-1
445 901 m 1,32,-1
 445 1063 l 1,33,-1
 359 1049 l 1,34,-1
 359 1161 l 1,35,-1
 445 1176 l 1,36,-1
 445 1350 l 1,37,-1
 494 1350 l 1,38,-1
 494 1186 l 1,39,-1
 605 1204 l 1,40,-1
 605 1428 l 1,41,-1
 654 1428 l 1,42,-1
 654 1213 l 1,43,-1
 732 1227 l 1,44,-1
 732 1116 l 1,45,-1
 654 1102 l 1,46,-1
 654 938 l 1,47,-1
 732 952 l 1,48,-1
 732 836 l 1,49,-1
 654 823 l 1,50,-1
 654 651 l 1,51,-1
 605 651 l 1,52,-1
 605 815 l 1,53,-1
 494 795 l 1,54,-1
 494 578 l 1,55,-1
 445 578 l 1,56,-1
 445 785 l 1,57,-1
 359 770 l 1,58,-1
 359 887 l 1,59,-1
 445 901 l 1,32,-1
605 930 m 1,60,-1
 605 1092 l 1,61,-1
 494 1073 l 1,62,-1
 494 911 l 1,63,-1
 605 930 l 1,60,-1
824 1726 m 1,64,-1
 824 1888 l 1,65,-1
 738 1874 l 1,66,-1
 738 1986 l 1,67,-1
 824 2001 l 1,68,-1
 824 2175 l 1,69,-1
 873 2175 l 1,70,-1
 873 2011 l 1,71,-1
 984 2029 l 1,72,-1
 984 2253 l 1,73,-1
 1033 2253 l 1,74,-1
 1033 2038 l 1,75,-1
 1111 2052 l 1,76,-1
 1111 1941 l 1,77,-1
 1033 1927 l 1,78,-1
 1033 1763 l 1,79,-1
 1111 1777 l 1,80,-1
 1111 1661 l 1,81,-1
 1033 1648 l 1,82,-1
 1033 1476 l 1,83,-1
 984 1476 l 1,84,-1
 984 1640 l 1,85,-1
 873 1620 l 1,86,-1
 873 1403 l 1,87,-1
 824 1403 l 1,88,-1
 824 1610 l 1,89,-1
 738 1595 l 1,90,-1
 738 1712 l 1,91,-1
 824 1726 l 1,64,-1
984 1755 m 1,92,-1
 984 1917 l 1,93,-1
 873 1898 l 1,94,-1
 873 1736 l 1,95,-1
 984 1755 l 1,92,-1
1194 1103 m 1,96,-1
 1194 1265 l 1,97,-1
 1108 1251 l 1,98,-1
 1108 1363 l 1,99,-1
 1194 1378 l 1,100,-1
 1194 1552 l 1,101,-1
 1243 1552 l 1,102,-1
 1243 1388 l 1,103,-1
 1354 1406 l 1,104,-1
 1354 1630 l 1,105,-1
 1403 1630 l 1,106,-1
 1403 1415 l 1,107,-1
 1481 1429 l 1,108,-1
 1481 1318 l 1,109,-1
 1403 1304 l 1,110,-1
 1403 1140 l 1,111,-1
 1481 1154 l 1,112,-1
 1481 1038 l 1,113,-1
 1403 1025 l 1,114,-1
 1403 853 l 1,115,-1
 1354 853 l 1,116,-1
 1354 1017 l 1,117,-1
 1243 997 l 1,118,-1
 1243 780 l 1,119,-1
 1194 780 l 1,120,-1
 1194 987 l 1,121,-1
 1108 972 l 1,122,-1
 1108 1089 l 1,123,-1
 1194 1103 l 1,96,-1
1354 1132 m 1,124,-1
 1354 1294 l 1,125,-1
 1243 1275 l 1,126,-1
 1243 1113 l 1,127,-1
 1354 1132 l 1,124,-1
1549 492 m 1,128,-1
 1549 654 l 1,129,-1
 1463 640 l 1,130,-1
 1463 752 l 1,131,-1
 1549 767 l 1,132,-1
 1549 941 l 1,133,-1
 1598 941 l 1,134,-1
 1598 777 l 1,135,-1
 1709 795 l 1,136,-1
 1709 1019 l 1,137,-1
 1758 1019 l 1,138,-1
 1758 804 l 1,139,-1
 1836 818 l 1,140,-1
 1836 707 l 1,141,-1
 1758 693 l 1,142,-1
 1758 529 l 1,143,-1
 1836 543 l 1,144,-1
 1836 427 l 1,145,-1
 1758 414 l 1,146,-1
 1758 242 l 1,147,-1
 1709 242 l 1,148,-1
 1709 406 l 1,149,-1
 1598 386 l 1,150,-1
 1598 169 l 1,151,-1
 1549 169 l 1,152,-1
 1549 376 l 1,153,-1
 1463 361 l 1,154,-1
 1463 478 l 1,155,-1
 1549 492 l 1,128,-1
1709 521 m 1,156,-1
 1709 683 l 1,157,-1
 1598 664 l 1,158,-1
 1598 502 l 1,159,-1
 1709 521 l 1,156,-1
EndSplineSet
EndChar

StartChar: brokenbar
Encoding: 166 166 104
Width: 2528
GlyphClass: 1
Flags: W
LayerCount: 2
Fore
SplineSet
70 1515 m 1,0,-1
 70 1677 l 1,1,-1
 -16 1663 l 1,2,-1
 -16 1775 l 1,3,-1
 70 1790 l 1,4,-1
 70 1964 l 1,5,-1
 119 1964 l 1,6,-1
 119 1800 l 1,7,-1
 230 1818 l 1,8,-1
 230 2042 l 1,9,-1
 279 2042 l 1,10,-1
 279 1827 l 1,11,-1
 357 1841 l 1,12,-1
 357 1730 l 1,13,-1
 279 1716 l 1,14,-1
 279 1552 l 1,15,-1
 357 1566 l 1,16,-1
 357 1450 l 1,17,-1
 279 1437 l 1,18,-1
 279 1265 l 1,19,-1
 230 1265 l 1,20,-1
 230 1429 l 1,21,-1
 119 1409 l 1,22,-1
 119 1192 l 1,23,-1
 70 1192 l 1,24,-1
 70 1399 l 1,25,-1
 -16 1384 l 1,26,-1
 -16 1501 l 1,27,-1
 70 1515 l 1,0,-1
230 1544 m 1,28,-1
 230 1706 l 1,29,-1
 119 1687 l 1,30,-1
 119 1525 l 1,31,-1
 230 1544 l 1,28,-1
445 901 m 1,32,-1
 445 1063 l 1,33,-1
 359 1049 l 1,34,-1
 359 1161 l 1,35,-1
 445 1176 l 1,36,-1
 445 1350 l 1,37,-1
 494 1350 l 1,38,-1
 494 1186 l 1,39,-1
 605 1204 l 1,40,-1
 605 1428 l 1,41,-1
 654 1428 l 1,42,-1
 654 1213 l 1,43,-1
 732 1227 l 1,44,-1
 732 1116 l 1,45,-1
 654 1102 l 1,46,-1
 654 938 l 1,47,-1
 732 952 l 1,48,-1
 732 836 l 1,49,-1
 654 823 l 1,50,-1
 654 651 l 1,51,-1
 605 651 l 1,52,-1
 605 815 l 1,53,-1
 494 795 l 1,54,-1
 494 578 l 1,55,-1
 445 578 l 1,56,-1
 445 785 l 1,57,-1
 359 770 l 1,58,-1
 359 887 l 1,59,-1
 445 901 l 1,32,-1
605 930 m 1,60,-1
 605 1092 l 1,61,-1
 494 1073 l 1,62,-1
 494 911 l 1,63,-1
 605 930 l 1,60,-1
824 1726 m 1,64,-1
 824 1888 l 1,65,-1
 738 1874 l 1,66,-1
 738 1986 l 1,67,-1
 824 2001 l 1,68,-1
 824 2175 l 1,69,-1
 873 2175 l 1,70,-1
 873 2011 l 1,71,-1
 984 2029 l 1,72,-1
 984 2253 l 1,73,-1
 1033 2253 l 1,74,-1
 1033 2038 l 1,75,-1
 1111 2052 l 1,76,-1
 1111 1941 l 1,77,-1
 1033 1927 l 1,78,-1
 1033 1763 l 1,79,-1
 1111 1777 l 1,80,-1
 1111 1661 l 1,81,-1
 1033 1648 l 1,82,-1
 1033 1476 l 1,83,-1
 984 1476 l 1,84,-1
 984 1640 l 1,85,-1
 873 1620 l 1,86,-1
 873 1403 l 1,87,-1
 824 1403 l 1,88,-1
 824 1610 l 1,89,-1
 738 1595 l 1,90,-1
 738 1712 l 1,91,-1
 824 1726 l 1,64,-1
984 1755 m 1,92,-1
 984 1917 l 1,93,-1
 873 1898 l 1,94,-1
 873 1736 l 1,95,-1
 984 1755 l 1,92,-1
1194 1103 m 1,96,-1
 1194 1265 l 1,97,-1
 1108 1251 l 1,98,-1
 1108 1363 l 1,99,-1
 1194 1378 l 1,100,-1
 1194 1552 l 1,101,-1
 1243 1552 l 1,102,-1
 1243 1388 l 1,103,-1
 1354 1406 l 1,104,-1
 1354 1630 l 1,105,-1
 1403 1630 l 1,106,-1
 1403 1415 l 1,107,-1
 1481 1429 l 1,108,-1
 1481 1318 l 1,109,-1
 1403 1304 l 1,110,-1
 1403 1140 l 1,111,-1
 1481 1154 l 1,112,-1
 1481 1038 l 1,113,-1
 1403 1025 l 1,114,-1
 1403 853 l 1,115,-1
 1354 853 l 1,116,-1
 1354 1017 l 1,117,-1
 1243 997 l 1,118,-1
 1243 780 l 1,119,-1
 1194 780 l 1,120,-1
 1194 987 l 1,121,-1
 1108 972 l 1,122,-1
 1108 1089 l 1,123,-1
 1194 1103 l 1,96,-1
1354 1132 m 1,124,-1
 1354 1294 l 1,125,-1
 1243 1275 l 1,126,-1
 1243 1113 l 1,127,-1
 1354 1132 l 1,124,-1
1549 492 m 1,128,-1
 1549 654 l 1,129,-1
 1463 640 l 1,130,-1
 1463 752 l 1,131,-1
 1549 767 l 1,132,-1
 1549 941 l 1,133,-1
 1598 941 l 1,134,-1
 1598 777 l 1,135,-1
 1709 795 l 1,136,-1
 1709 1019 l 1,137,-1
 1758 1019 l 1,138,-1
 1758 804 l 1,139,-1
 1836 818 l 1,140,-1
 1836 707 l 1,141,-1
 1758 693 l 1,142,-1
 1758 529 l 1,143,-1
 1836 543 l 1,144,-1
 1836 427 l 1,145,-1
 1758 414 l 1,146,-1
 1758 242 l 1,147,-1
 1709 242 l 1,148,-1
 1709 406 l 1,149,-1
 1598 386 l 1,150,-1
 1598 169 l 1,151,-1
 1549 169 l 1,152,-1
 1549 376 l 1,153,-1
 1463 361 l 1,154,-1
 1463 478 l 1,155,-1
 1549 492 l 1,128,-1
1709 521 m 1,156,-1
 1709 683 l 1,157,-1
 1598 664 l 1,158,-1
 1598 502 l 1,159,-1
 1709 521 l 1,156,-1
1909 1308 m 1,160,-1
 1909 1470 l 1,161,-1
 1823 1456 l 1,162,-1
 1823 1568 l 1,163,-1
 1909 1583 l 1,164,-1
 1909 1757 l 1,165,-1
 1958 1757 l 1,166,-1
 1958 1593 l 1,167,-1
 2069 1611 l 1,168,-1
 2069 1835 l 1,169,-1
 2118 1835 l 1,170,-1
 2118 1620 l 1,171,-1
 2196 1634 l 1,172,-1
 2196 1523 l 1,173,-1
 2118 1509 l 1,174,-1
 2118 1345 l 1,175,-1
 2196 1359 l 1,176,-1
 2196 1243 l 1,177,-1
 2118 1230 l 1,178,-1
 2118 1058 l 1,179,-1
 2069 1058 l 1,180,-1
 2069 1222 l 1,181,-1
 1958 1202 l 1,182,-1
 1958 985 l 1,183,-1
 1909 985 l 1,184,-1
 1909 1192 l 1,185,-1
 1823 1177 l 1,186,-1
 1823 1294 l 1,187,-1
 1909 1308 l 1,160,-1
2069 1337 m 1,188,-1
 2069 1499 l 1,189,-1
 1958 1480 l 1,190,-1
 1958 1318 l 1,191,-1
 2069 1337 l 1,188,-1
EndSplineSet
EndChar

StartChar: section
Encoding: 167 167 105
Width: 3040
GlyphClass: 1
Flags: W
LayerCount: 2
Fore
SplineSet
70 1515 m 1,0,-1
 70 1677 l 1,1,-1
 -16 1663 l 1,2,-1
 -16 1775 l 1,3,-1
 70 1790 l 1,4,-1
 70 1964 l 1,5,-1
 119 1964 l 1,6,-1
 119 1800 l 1,7,-1
 230 1818 l 1,8,-1
 230 2042 l 1,9,-1
 279 2042 l 1,10,-1
 279 1827 l 1,11,-1
 357 1841 l 1,12,-1
 357 1730 l 1,13,-1
 279 1716 l 1,14,-1
 279 1552 l 1,15,-1
 357 1566 l 1,16,-1
 357 1450 l 1,17,-1
 279 1437 l 1,18,-1
 279 1265 l 1,19,-1
 230 1265 l 1,20,-1
 230 1429 l 1,21,-1
 119 1409 l 1,22,-1
 119 1192 l 1,23,-1
 70 1192 l 1,24,-1
 70 1399 l 1,25,-1
 -16 1384 l 1,26,-1
 -16 1501 l 1,27,-1
 70 1515 l 1,0,-1
230 1544 m 1,28,-1
 230 1706 l 1,29,-1
 119 1687 l 1,30,-1
 119 1525 l 1,31,-1
 230 1544 l 1,28,-1
445 901 m 1,32,-1
 445 1063 l 1,33,-1
 359 1049 l 1,34,-1
 359 1161 l 1,35,-1
 445 1176 l 1,36,-1
 445 1350 l 1,37,-1
 494 1350 l 1,38,-1
 494 1186 l 1,39,-1
 605 1204 l 1,40,-1
 605 1428 l 1,41,-1
 654 1428 l 1,42,-1
 654 1213 l 1,43,-1
 732 1227 l 1,44,-1
 732 1116 l 1,45,-1
 654 1102 l 1,46,-1
 654 938 l 1,47,-1
 732 952 l 1,48,-1
 732 836 l 1,49,-1
 654 823 l 1,50,-1
 654 651 l 1,51,-1
 605 651 l 1,52,-1
 605 815 l 1,53,-1
 494 795 l 1,54,-1
 494 578 l 1,55,-1
 445 578 l 1,56,-1
 445 785 l 1,57,-1
 359 770 l 1,58,-1
 359 887 l 1,59,-1
 445 901 l 1,32,-1
605 930 m 1,60,-1
 605 1092 l 1,61,-1
 494 1073 l 1,62,-1
 494 911 l 1,63,-1
 605 930 l 1,60,-1
824 1726 m 1,64,-1
 824 1888 l 1,65,-1
 738 1874 l 1,66,-1
 738 1986 l 1,67,-1
 824 2001 l 1,68,-1
 824 2175 l 1,69,-1
 873 2175 l 1,70,-1
 873 2011 l 1,71,-1
 984 2029 l 1,72,-1
 984 2253 l 1,73,-1
 1033 2253 l 1,74,-1
 1033 2038 l 1,75,-1
 1111 2052 l 1,76,-1
 1111 1941 l 1,77,-1
 1033 1927 l 1,78,-1
 1033 1763 l 1,79,-1
 1111 1777 l 1,80,-1
 1111 1661 l 1,81,-1
 1033 1648 l 1,82,-1
 1033 1476 l 1,83,-1
 984 1476 l 1,84,-1
 984 1640 l 1,85,-1
 873 1620 l 1,86,-1
 873 1403 l 1,87,-1
 824 1403 l 1,88,-1
 824 1610 l 1,89,-1
 738 1595 l 1,90,-1
 738 1712 l 1,91,-1
 824 1726 l 1,64,-1
984 1755 m 1,92,-1
 984 1917 l 1,93,-1
 873 1898 l 1,94,-1
 873 1736 l 1,95,-1
 984 1755 l 1,92,-1
1194 1103 m 1,96,-1
 1194 1265 l 1,97,-1
 1108 1251 l 1,98,-1
 1108 1363 l 1,99,-1
 1194 1378 l 1,100,-1
 1194 1552 l 1,101,-1
 1243 1552 l 1,102,-1
 1243 1388 l 1,103,-1
 1354 1406 l 1,104,-1
 1354 1630 l 1,105,-1
 1403 1630 l 1,106,-1
 1403 1415 l 1,107,-1
 1481 1429 l 1,108,-1
 1481 1318 l 1,109,-1
 1403 1304 l 1,110,-1
 1403 1140 l 1,111,-1
 1481 1154 l 1,112,-1
 1481 1038 l 1,113,-1
 1403 1025 l 1,114,-1
 1403 853 l 1,115,-1
 1354 853 l 1,116,-1
 1354 1017 l 1,117,-1
 1243 997 l 1,118,-1
 1243 780 l 1,119,-1
 1194 780 l 1,120,-1
 1194 987 l 1,121,-1
 1108 972 l 1,122,-1
 1108 1089 l 1,123,-1
 1194 1103 l 1,96,-1
1354 1132 m 1,124,-1
 1354 1294 l 1,125,-1
 1243 1275 l 1,126,-1
 1243 1113 l 1,127,-1
 1354 1132 l 1,124,-1
1549 492 m 1,128,-1
 1549 654 l 1,129,-1
 1463 640 l 1,130,-1
 1463 752 l 1,131,-1
 1549 767 l 1,132,-1
 1549 941 l 1,133,-1
 1598 941 l 1,134,-1
 1598 777 l 1,135,-1
 1709 795 l 1,136,-1
 1709 1019 l 1,137,-1
 1758 1019 l 1,138,-1
 1758 804 l 1,139,-1
 1836 818 l 1,140,-1
 1836 707 l 1,141,-1
 1758 693 l 1,142,-1
 1758 529 l 1,143,-1
 1836 543 l 1,144,-1
 1836 427 l 1,145,-1
 1758 414 l 1,146,-1
 1758 242 l 1,147,-1
 1709 242 l 1,148,-1
 1709 406 l 1,149,-1
 1598 386 l 1,150,-1
 1598 169 l 1,151,-1
 1549 169 l 1,152,-1
 1549 376 l 1,153,-1
 1463 361 l 1,154,-1
 1463 478 l 1,155,-1
 1549 492 l 1,128,-1
1709 521 m 1,156,-1
 1709 683 l 1,157,-1
 1598 664 l 1,158,-1
 1598 502 l 1,159,-1
 1709 521 l 1,156,-1
1909 1308 m 1,160,-1
 1909 1470 l 1,161,-1
 1823 1456 l 1,162,-1
 1823 1568 l 1,163,-1
 1909 1583 l 1,164,-1
 1909 1757 l 1,165,-1
 1958 1757 l 1,166,-1
 1958 1593 l 1,167,-1
 2069 1611 l 1,168,-1
 2069 1835 l 1,169,-1
 2118 1835 l 1,170,-1
 2118 1620 l 1,171,-1
 2196 1634 l 1,172,-1
 2196 1523 l 1,173,-1
 2118 1509 l 1,174,-1
 2118 1345 l 1,175,-1
 2196 1359 l 1,176,-1
 2196 1243 l 1,177,-1
 2118 1230 l 1,178,-1
 2118 1058 l 1,179,-1
 2069 1058 l 1,180,-1
 2069 1222 l 1,181,-1
 1958 1202 l 1,182,-1
 1958 985 l 1,183,-1
 1909 985 l 1,184,-1
 1909 1192 l 1,185,-1
 1823 1177 l 1,186,-1
 1823 1294 l 1,187,-1
 1909 1308 l 1,160,-1
2069 1337 m 1,188,-1
 2069 1499 l 1,189,-1
 1958 1480 l 1,190,-1
 1958 1318 l 1,191,-1
 2069 1337 l 1,188,-1
2284 690 m 1,192,-1
 2284 852 l 1,193,-1
 2198 838 l 1,194,-1
 2198 950 l 1,195,-1
 2284 965 l 1,196,-1
 2284 1139 l 1,197,-1
 2333 1139 l 1,198,-1
 2333 975 l 1,199,-1
 2444 993 l 1,200,-1
 2444 1217 l 1,201,-1
 2493 1217 l 1,202,-1
 2493 1002 l 1,203,-1
 2571 1016 l 1,204,-1
 2571 905 l 1,205,-1
 2493 891 l 1,206,-1
 2493 727 l 1,207,-1
 2571 741 l 1,208,-1
 2571 625 l 1,209,-1
 2493 612 l 1,210,-1
 2493 440 l 1,211,-1
 2444 440 l 1,212,-1
 2444 604 l 1,213,-1
 2333 584 l 1,214,-1
 2333 367 l 1,215,-1
 2284 367 l 1,216,-1
 2284 574 l 1,217,-1
 2198 559 l 1,218,-1
 2198 676 l 1,219,-1
 2284 690 l 1,192,-1
2444 719 m 1,220,-1
 2444 881 l 1,221,-1
 2333 862 l 1,222,-1
 2333 700 l 1,223,-1
 2444 719 l 1,220,-1
EndSplineSet
EndChar

StartChar: dieresis
Encoding: 168 168 106
Width: 992
GlyphClass: 1
Flags: W
LayerCount: 2
Fore
SplineSet
-14 529 m 1,0,-1
 -14 1389 l 1,1,-1
 31 1389 l 1,2,-1
 31 890 l 1,3,4
 95 935 95 935 170 935 c 0,5,6
 222 935 222 935 262.5 906 c 128,-1,7
 303 877 303 877 303 828 c 0,8,9
 303 793 303 793 273 763 c 1,10,11
 260 744 260 744 237.5 725.5 c 128,-1,12
 215 707 215 707 185 685 c 2,13,-1
 78 607 l 2,14,15
 49 589 49 589 26.5 568.5 c 128,-1,16
 4 548 4 548 -14 529 c 1,0,-1
31 828 m 1,17,-1
 31 615 l 1,18,-1
 92 677 l 2,19,20
 109 693 109 693 122.5 705.5 c 128,-1,21
 136 718 136 718 144 730 c 0,22,23
 185 777 185 777 185 824 c 0,24,25
 185 841 185 841 178.5 852 c 128,-1,26
 172 863 172 863 164 873 c 0,27,28
 156 879 156 879 146 884.5 c 128,-1,29
 136 890 136 890 119 890 c 0,30,31
 62 890 62 890 31 828 c 1,17,-1
EndSplineSet
EndChar

StartChar: copyright
Encoding: 169 169 107
Width: 992
GlyphClass: 1
Flags: W
LayerCount: 2
Fore
SplineSet
-14 529 m 1,0,-1
 -14 1389 l 1,1,-1
 31 1389 l 1,2,-1
 31 890 l 1,3,4
 95 935 95 935 170 935 c 0,5,6
 222 935 222 935 262.5 906 c 128,-1,7
 303 877 303 877 303 828 c 0,8,9
 303 793 303 793 273 763 c 1,10,11
 260 744 260 744 237.5 725.5 c 128,-1,12
 215 707 215 707 185 685 c 2,13,-1
 78 607 l 2,14,15
 49 589 49 589 26.5 568.5 c 128,-1,16
 4 548 4 548 -14 529 c 1,0,-1
31 828 m 1,17,-1
 31 615 l 1,18,-1
 92 677 l 2,19,20
 109 693 109 693 122.5 705.5 c 128,-1,21
 136 718 136 718 144 730 c 0,22,23
 185 777 185 777 185 824 c 0,24,25
 185 841 185 841 178.5 852 c 128,-1,26
 172 863 172 863 164 873 c 0,27,28
 156 879 156 879 146 884.5 c 128,-1,29
 136 890 136 890 119 890 c 0,30,31
 62 890 62 890 31 828 c 1,17,-1
361 1188 m 1,32,-1
 361 2048 l 1,33,-1
 406 2048 l 1,34,-1
 406 1549 l 1,35,36
 470 1594 470 1594 545 1594 c 0,37,38
 597 1594 597 1594 637.5 1565 c 128,-1,39
 678 1536 678 1536 678 1487 c 0,40,41
 678 1452 678 1452 648 1422 c 1,42,43
 635 1403 635 1403 612.5 1384.5 c 128,-1,44
 590 1366 590 1366 560 1344 c 2,45,-1
 453 1266 l 2,46,47
 424 1248 424 1248 401.5 1227.5 c 128,-1,48
 379 1207 379 1207 361 1188 c 1,32,-1
406 1487 m 1,49,-1
 406 1274 l 1,50,-1
 467 1336 l 2,51,52
 484 1352 484 1352 497.5 1364.5 c 128,-1,53
 511 1377 511 1377 519 1389 c 0,54,55
 560 1436 560 1436 560 1483 c 0,56,57
 560 1500 560 1500 553.5 1511 c 128,-1,58
 547 1522 547 1522 539 1532 c 0,59,60
 531 1538 531 1538 521 1543.5 c 128,-1,61
 511 1549 511 1549 494 1549 c 0,62,63
 437 1549 437 1549 406 1487 c 1,49,-1
EndSplineSet
EndChar

StartChar: ordfeminine
Encoding: 170 170 108
Width: 1504
GlyphClass: 1
Flags: W
LayerCount: 2
Fore
SplineSet
-14 529 m 1,0,-1
 -14 1389 l 1,1,-1
 31 1389 l 1,2,-1
 31 890 l 1,3,4
 95 935 95 935 170 935 c 0,5,6
 222 935 222 935 262.5 906 c 128,-1,7
 303 877 303 877 303 828 c 0,8,9
 303 793 303 793 273 763 c 1,10,11
 260 744 260 744 237.5 725.5 c 128,-1,12
 215 707 215 707 185 685 c 2,13,-1
 78 607 l 2,14,15
 49 589 49 589 26.5 568.5 c 128,-1,16
 4 548 4 548 -14 529 c 1,0,-1
31 828 m 1,17,-1
 31 615 l 1,18,-1
 92 677 l 2,19,20
 109 693 109 693 122.5 705.5 c 128,-1,21
 136 718 136 718 144 730 c 0,22,23
 185 777 185 777 185 824 c 0,24,25
 185 841 185 841 178.5 852 c 128,-1,26
 172 863 172 863 164 873 c 0,27,28
 156 879 156 879 146 884.5 c 128,-1,29
 136 890 136 890 119 890 c 0,30,31
 62 890 62 890 31 828 c 1,17,-1
361 1188 m 1,32,-1
 361 2048 l 1,33,-1
 406 2048 l 1,34,-1
 406 1549 l 1,35,36
 470 1594 470 1594 545 1594 c 0,37,38
 597 1594 597 1594 637.5 1565 c 128,-1,39
 678 1536 678 1536 678 1487 c 0,40,41
 678 1452 678 1452 648 1422 c 1,42,43
 635 1403 635 1403 612.5 1384.5 c 128,-1,44
 590 1366 590 1366 560 1344 c 2,45,-1
 453 1266 l 2,46,47
 424 1248 424 1248 401.5 1227.5 c 128,-1,48
 379 1207 379 1207 361 1188 c 1,32,-1
406 1487 m 1,49,-1
 406 1274 l 1,50,-1
 467 1336 l 2,51,52
 484 1352 484 1352 497.5 1364.5 c 128,-1,53
 511 1377 511 1377 519 1389 c 0,54,55
 560 1436 560 1436 560 1483 c 0,56,57
 560 1500 560 1500 553.5 1511 c 128,-1,58
 547 1522 547 1522 539 1532 c 0,59,60
 531 1538 531 1538 521 1543.5 c 128,-1,61
 511 1549 511 1549 494 1549 c 0,62,63
 437 1549 437 1549 406 1487 c 1,49,-1
742 368 m 1,64,-1
 742 1228 l 1,65,-1
 787 1228 l 1,66,-1
 787 729 l 1,67,68
 851 774 851 774 926 774 c 0,69,70
 978 774 978 774 1018.5 745 c 128,-1,71
 1059 716 1059 716 1059 667 c 0,72,73
 1059 632 1059 632 1029 602 c 1,74,75
 1016 583 1016 583 993.5 564.5 c 128,-1,76
 971 546 971 546 941 524 c 2,77,-1
 834 446 l 2,78,79
 805 428 805 428 782.5 407.5 c 128,-1,80
 760 387 760 387 742 368 c 1,64,-1
787 667 m 1,81,-1
 787 454 l 1,82,-1
 848 516 l 2,83,84
 865 532 865 532 878.5 544.5 c 128,-1,85
 892 557 892 557 900 569 c 0,86,87
 941 616 941 616 941 663 c 0,88,89
 941 680 941 680 934.5 691 c 128,-1,90
 928 702 928 702 920 712 c 0,91,92
 912 718 912 718 902 723.5 c 128,-1,93
 892 729 892 729 875 729 c 0,94,95
 818 729 818 729 787 667 c 1,81,-1
EndSplineSet
EndChar

StartChar: guillemotleft
Encoding: 171 171 109
Width: 1504
GlyphClass: 1
Flags: W
LayerCount: 2
Fore
SplineSet
-14 529 m 1,0,-1
 -14 1389 l 1,1,-1
 31 1389 l 1,2,-1
 31 890 l 1,3,4
 95 935 95 935 170 935 c 0,5,6
 222 935 222 935 262.5 906 c 128,-1,7
 303 877 303 877 303 828 c 0,8,9
 303 793 303 793 273 763 c 1,10,11
 260 744 260 744 237.5 725.5 c 128,-1,12
 215 707 215 707 185 685 c 2,13,-1
 78 607 l 2,14,15
 49 589 49 589 26.5 568.5 c 128,-1,16
 4 548 4 548 -14 529 c 1,0,-1
31 828 m 1,17,-1
 31 615 l 1,18,-1
 92 677 l 2,19,20
 109 693 109 693 122.5 705.5 c 128,-1,21
 136 718 136 718 144 730 c 0,22,23
 185 777 185 777 185 824 c 0,24,25
 185 841 185 841 178.5 852 c 128,-1,26
 172 863 172 863 164 873 c 0,27,28
 156 879 156 879 146 884.5 c 128,-1,29
 136 890 136 890 119 890 c 0,30,31
 62 890 62 890 31 828 c 1,17,-1
361 1188 m 1,32,-1
 361 2048 l 1,33,-1
 406 2048 l 1,34,-1
 406 1549 l 1,35,36
 470 1594 470 1594 545 1594 c 0,37,38
 597 1594 597 1594 637.5 1565 c 128,-1,39
 678 1536 678 1536 678 1487 c 0,40,41
 678 1452 678 1452 648 1422 c 1,42,43
 635 1403 635 1403 612.5 1384.5 c 128,-1,44
 590 1366 590 1366 560 1344 c 2,45,-1
 453 1266 l 2,46,47
 424 1248 424 1248 401.5 1227.5 c 128,-1,48
 379 1207 379 1207 361 1188 c 1,32,-1
406 1487 m 1,49,-1
 406 1274 l 1,50,-1
 467 1336 l 2,51,52
 484 1352 484 1352 497.5 1364.5 c 128,-1,53
 511 1377 511 1377 519 1389 c 0,54,55
 560 1436 560 1436 560 1483 c 0,56,57
 560 1500 560 1500 553.5 1511 c 128,-1,58
 547 1522 547 1522 539 1532 c 0,59,60
 531 1538 531 1538 521 1543.5 c 128,-1,61
 511 1549 511 1549 494 1549 c 0,62,63
 437 1549 437 1549 406 1487 c 1,49,-1
742 368 m 1,64,-1
 742 1228 l 1,65,-1
 787 1228 l 1,66,-1
 787 729 l 1,67,68
 851 774 851 774 926 774 c 0,69,70
 978 774 978 774 1018.5 745 c 128,-1,71
 1059 716 1059 716 1059 667 c 0,72,73
 1059 632 1059 632 1029 602 c 1,74,75
 1016 583 1016 583 993.5 564.5 c 128,-1,76
 971 546 971 546 941 524 c 2,77,-1
 834 446 l 2,78,79
 805 428 805 428 782.5 407.5 c 128,-1,80
 760 387 760 387 742 368 c 1,64,-1
787 667 m 1,81,-1
 787 454 l 1,82,-1
 848 516 l 2,83,84
 865 532 865 532 878.5 544.5 c 128,-1,85
 892 557 892 557 900 569 c 0,86,87
 941 616 941 616 941 663 c 0,88,89
 941 680 941 680 934.5 691 c 128,-1,90
 928 702 928 702 920 712 c 0,91,92
 912 718 912 718 902 723.5 c 128,-1,93
 892 729 892 729 875 729 c 0,94,95
 818 729 818 729 787 667 c 1,81,-1
1094 942 m 1,96,-1
 1094 1802 l 1,97,-1
 1139 1802 l 1,98,-1
 1139 1303 l 1,99,100
 1203 1348 1203 1348 1278 1348 c 0,101,102
 1330 1348 1330 1348 1370.5 1319 c 128,-1,103
 1411 1290 1411 1290 1411 1241 c 0,104,105
 1411 1206 1411 1206 1381 1176 c 1,106,107
 1368 1157 1368 1157 1345.5 1138.5 c 128,-1,108
 1323 1120 1323 1120 1293 1098 c 2,109,-1
 1186 1020 l 2,110,111
 1157 1002 1157 1002 1134.5 981.5 c 128,-1,112
 1112 961 1112 961 1094 942 c 1,96,-1
1139 1241 m 1,113,-1
 1139 1028 l 1,114,-1
 1200 1090 l 2,115,116
 1217 1106 1217 1106 1230.5 1118.5 c 128,-1,117
 1244 1131 1244 1131 1252 1143 c 0,118,119
 1293 1190 1293 1190 1293 1237 c 0,120,121
 1293 1254 1293 1254 1286.5 1265 c 128,-1,122
 1280 1276 1280 1276 1272 1286 c 0,123,124
 1264 1292 1264 1292 1254 1297.5 c 128,-1,125
 1244 1303 1244 1303 1227 1303 c 0,126,127
 1170 1303 1170 1303 1139 1241 c 1,113,-1
EndSplineSet
EndChar

StartChar: logicalnot
Encoding: 172 172 110
Width: 2016
GlyphClass: 1
Flags: W
LayerCount: 2
Fore
SplineSet
-14 529 m 1,0,-1
 -14 1389 l 1,1,-1
 31 1389 l 1,2,-1
 31 890 l 1,3,4
 95 935 95 935 170 935 c 0,5,6
 222 935 222 935 262.5 906 c 128,-1,7
 303 877 303 877 303 828 c 0,8,9
 303 793 303 793 273 763 c 1,10,11
 260 744 260 744 237.5 725.5 c 128,-1,12
 215 707 215 707 185 685 c 2,13,-1
 78 607 l 2,14,15
 49 589 49 589 26.5 568.5 c 128,-1,16
 4 548 4 548 -14 529 c 1,0,-1
31 828 m 1,17,-1
 31 615 l 1,18,-1
 92 677 l 2,19,20
 109 693 109 693 122.5 705.5 c 128,-1,21
 136 718 136 718 144 730 c 0,22,23
 185 777 185 777 185 824 c 0,24,25
 185 841 185 841 178.5 852 c 128,-1,26
 172 863 172 863 164 873 c 0,27,28
 156 879 156 879 146 884.5 c 128,-1,29
 136 890 136 890 119 890 c 0,30,31
 62 890 62 890 31 828 c 1,17,-1
361 1188 m 1,32,-1
 361 2048 l 1,33,-1
 406 2048 l 1,34,-1
 406 1549 l 1,35,36
 470 1594 470 1594 545 1594 c 0,37,38
 597 1594 597 1594 637.5 1565 c 128,-1,39
 678 1536 678 1536 678 1487 c 0,40,41
 678 1452 678 1452 648 1422 c 1,42,43
 635 1403 635 1403 612.5 1384.5 c 128,-1,44
 590 1366 590 1366 560 1344 c 2,45,-1
 453 1266 l 2,46,47
 424 1248 424 1248 401.5 1227.5 c 128,-1,48
 379 1207 379 1207 361 1188 c 1,32,-1
406 1487 m 1,49,-1
 406 1274 l 1,50,-1
 467 1336 l 2,51,52
 484 1352 484 1352 497.5 1364.5 c 128,-1,53
 511 1377 511 1377 519 1389 c 0,54,55
 560 1436 560 1436 560 1483 c 0,56,57
 560 1500 560 1500 553.5 1511 c 128,-1,58
 547 1522 547 1522 539 1532 c 0,59,60
 531 1538 531 1538 521 1543.5 c 128,-1,61
 511 1549 511 1549 494 1549 c 0,62,63
 437 1549 437 1549 406 1487 c 1,49,-1
742 368 m 1,64,-1
 742 1228 l 1,65,-1
 787 1228 l 1,66,-1
 787 729 l 1,67,68
 851 774 851 774 926 774 c 0,69,70
 978 774 978 774 1018.5 745 c 128,-1,71
 1059 716 1059 716 1059 667 c 0,72,73
 1059 632 1059 632 1029 602 c 1,74,75
 1016 583 1016 583 993.5 564.5 c 128,-1,76
 971 546 971 546 941 524 c 2,77,-1
 834 446 l 2,78,79
 805 428 805 428 782.5 407.5 c 128,-1,80
 760 387 760 387 742 368 c 1,64,-1
787 667 m 1,81,-1
 787 454 l 1,82,-1
 848 516 l 2,83,84
 865 532 865 532 878.5 544.5 c 128,-1,85
 892 557 892 557 900 569 c 0,86,87
 941 616 941 616 941 663 c 0,88,89
 941 680 941 680 934.5 691 c 128,-1,90
 928 702 928 702 920 712 c 0,91,92
 912 718 912 718 902 723.5 c 128,-1,93
 892 729 892 729 875 729 c 0,94,95
 818 729 818 729 787 667 c 1,81,-1
1094 942 m 1,96,-1
 1094 1802 l 1,97,-1
 1139 1802 l 1,98,-1
 1139 1303 l 1,99,100
 1203 1348 1203 1348 1278 1348 c 0,101,102
 1330 1348 1330 1348 1370.5 1319 c 128,-1,103
 1411 1290 1411 1290 1411 1241 c 0,104,105
 1411 1206 1411 1206 1381 1176 c 1,106,107
 1368 1157 1368 1157 1345.5 1138.5 c 128,-1,108
 1323 1120 1323 1120 1293 1098 c 2,109,-1
 1186 1020 l 2,110,111
 1157 1002 1157 1002 1134.5 981.5 c 128,-1,112
 1112 961 1112 961 1094 942 c 1,96,-1
1139 1241 m 1,113,-1
 1139 1028 l 1,114,-1
 1200 1090 l 2,115,116
 1217 1106 1217 1106 1230.5 1118.5 c 128,-1,117
 1244 1131 1244 1131 1252 1143 c 0,118,119
 1293 1190 1293 1190 1293 1237 c 0,120,121
 1293 1254 1293 1254 1286.5 1265 c 128,-1,122
 1280 1276 1280 1276 1272 1286 c 0,123,124
 1264 1292 1264 1292 1254 1297.5 c 128,-1,125
 1244 1303 1244 1303 1227 1303 c 0,126,127
 1170 1303 1170 1303 1139 1241 c 1,113,-1
1446 125 m 1,128,-1
 1446 985 l 1,129,-1
 1491 985 l 1,130,-1
 1491 486 l 1,131,132
 1555 531 1555 531 1630 531 c 0,133,134
 1682 531 1682 531 1722.5 502 c 128,-1,135
 1763 473 1763 473 1763 424 c 0,136,137
 1763 389 1763 389 1733 359 c 1,138,139
 1720 340 1720 340 1697.5 321.5 c 128,-1,140
 1675 303 1675 303 1645 281 c 2,141,-1
 1538 203 l 2,142,143
 1509 185 1509 185 1486.5 164.5 c 128,-1,144
 1464 144 1464 144 1446 125 c 1,128,-1
1491 424 m 1,145,-1
 1491 211 l 1,146,-1
 1552 273 l 2,147,148
 1569 289 1569 289 1582.5 301.5 c 128,-1,149
 1596 314 1596 314 1604 326 c 0,150,151
 1645 373 1645 373 1645 420 c 0,152,153
 1645 437 1645 437 1638.5 448 c 128,-1,154
 1632 459 1632 459 1624 469 c 0,155,156
 1616 475 1616 475 1606 480.5 c 128,-1,157
 1596 486 1596 486 1579 486 c 0,158,159
 1522 486 1522 486 1491 424 c 1,145,-1
EndSplineSet
EndChar

StartChar: registered
Encoding: 174 174 112
Width: 3040
GlyphClass: 1
Flags: W
LayerCount: 2
Fore
SplineSet
-14 529 m 1,0,-1
 -14 1389 l 1,1,-1
 31 1389 l 1,2,-1
 31 890 l 1,3,4
 95 935 95 935 170 935 c 0,5,6
 222 935 222 935 262.5 906 c 128,-1,7
 303 877 303 877 303 828 c 0,8,9
 303 793 303 793 273 763 c 1,10,11
 260 744 260 744 237.5 725.5 c 128,-1,12
 215 707 215 707 185 685 c 2,13,-1
 78 607 l 2,14,15
 49 589 49 589 26.5 568.5 c 128,-1,16
 4 548 4 548 -14 529 c 1,0,-1
31 828 m 1,17,-1
 31 615 l 1,18,-1
 92 677 l 2,19,20
 109 693 109 693 122.5 705.5 c 128,-1,21
 136 718 136 718 144 730 c 0,22,23
 185 777 185 777 185 824 c 0,24,25
 185 841 185 841 178.5 852 c 128,-1,26
 172 863 172 863 164 873 c 0,27,28
 156 879 156 879 146 884.5 c 128,-1,29
 136 890 136 890 119 890 c 0,30,31
 62 890 62 890 31 828 c 1,17,-1
361 1188 m 1,32,-1
 361 2048 l 1,33,-1
 406 2048 l 1,34,-1
 406 1549 l 1,35,36
 470 1594 470 1594 545 1594 c 0,37,38
 597 1594 597 1594 637.5 1565 c 128,-1,39
 678 1536 678 1536 678 1487 c 0,40,41
 678 1452 678 1452 648 1422 c 1,42,43
 635 1403 635 1403 612.5 1384.5 c 128,-1,44
 590 1366 590 1366 560 1344 c 2,45,-1
 453 1266 l 2,46,47
 424 1248 424 1248 401.5 1227.5 c 128,-1,48
 379 1207 379 1207 361 1188 c 1,32,-1
406 1487 m 1,49,-1
 406 1274 l 1,50,-1
 467 1336 l 2,51,52
 484 1352 484 1352 497.5 1364.5 c 128,-1,53
 511 1377 511 1377 519 1389 c 0,54,55
 560 1436 560 1436 560 1483 c 0,56,57
 560 1500 560 1500 553.5 1511 c 128,-1,58
 547 1522 547 1522 539 1532 c 0,59,60
 531 1538 531 1538 521 1543.5 c 128,-1,61
 511 1549 511 1549 494 1549 c 0,62,63
 437 1549 437 1549 406 1487 c 1,49,-1
742 368 m 1,64,-1
 742 1228 l 1,65,-1
 787 1228 l 1,66,-1
 787 729 l 1,67,68
 851 774 851 774 926 774 c 0,69,70
 978 774 978 774 1018.5 745 c 128,-1,71
 1059 716 1059 716 1059 667 c 0,72,73
 1059 632 1059 632 1029 602 c 1,74,75
 1016 583 1016 583 993.5 564.5 c 128,-1,76
 971 546 971 546 941 524 c 2,77,-1
 834 446 l 2,78,79
 805 428 805 428 782.5 407.5 c 128,-1,80
 760 387 760 387 742 368 c 1,64,-1
787 667 m 1,81,-1
 787 454 l 1,82,-1
 848 516 l 2,83,84
 865 532 865 532 878.5 544.5 c 128,-1,85
 892 557 892 557 900 569 c 0,86,87
 941 616 941 616 941 663 c 0,88,89
 941 680 941 680 934.5 691 c 128,-1,90
 928 702 928 702 920 712 c 0,91,92
 912 718 912 718 902 723.5 c 128,-1,93
 892 729 892 729 875 729 c 0,94,95
 818 729 818 729 787 667 c 1,81,-1
1094 942 m 1,96,-1
 1094 1802 l 1,97,-1
 1139 1802 l 1,98,-1
 1139 1303 l 1,99,100
 1203 1348 1203 1348 1278 1348 c 0,101,102
 1330 1348 1330 1348 1370.5 1319 c 128,-1,103
 1411 1290 1411 1290 1411 1241 c 0,104,105
 1411 1206 1411 1206 1381 1176 c 1,106,107
 1368 1157 1368 1157 1345.5 1138.5 c 128,-1,108
 1323 1120 1323 1120 1293 1098 c 2,109,-1
 1186 1020 l 2,110,111
 1157 1002 1157 1002 1134.5 981.5 c 128,-1,112
 1112 961 1112 961 1094 942 c 1,96,-1
1139 1241 m 1,113,-1
 1139 1028 l 1,114,-1
 1200 1090 l 2,115,116
 1217 1106 1217 1106 1230.5 1118.5 c 128,-1,117
 1244 1131 1244 1131 1252 1143 c 0,118,119
 1293 1190 1293 1190 1293 1237 c 0,120,121
 1293 1254 1293 1254 1286.5 1265 c 128,-1,122
 1280 1276 1280 1276 1272 1286 c 0,123,124
 1264 1292 1264 1292 1254 1297.5 c 128,-1,125
 1244 1303 1244 1303 1227 1303 c 0,126,127
 1170 1303 1170 1303 1139 1241 c 1,113,-1
1446 125 m 1,128,-1
 1446 985 l 1,129,-1
 1491 985 l 1,130,-1
 1491 486 l 1,131,132
 1555 531 1555 531 1630 531 c 0,133,134
 1682 531 1682 531 1722.5 502 c 128,-1,135
 1763 473 1763 473 1763 424 c 0,136,137
 1763 389 1763 389 1733 359 c 1,138,139
 1720 340 1720 340 1697.5 321.5 c 128,-1,140
 1675 303 1675 303 1645 281 c 2,141,-1
 1538 203 l 2,142,143
 1509 185 1509 185 1486.5 164.5 c 128,-1,144
 1464 144 1464 144 1446 125 c 1,128,-1
1491 424 m 1,145,-1
 1491 211 l 1,146,-1
 1552 273 l 2,147,148
 1569 289 1569 289 1582.5 301.5 c 128,-1,149
 1596 314 1596 314 1604 326 c 0,150,151
 1645 373 1645 373 1645 420 c 0,152,153
 1645 437 1645 437 1638.5 448 c 128,-1,154
 1632 459 1632 459 1624 469 c 0,155,156
 1616 475 1616 475 1606 480.5 c 128,-1,157
 1596 486 1596 486 1579 486 c 0,158,159
 1522 486 1522 486 1491 424 c 1,145,-1
2176 -40 m 1,160,-1
 2176 820 l 1,161,-1
 2221 820 l 1,162,-1
 2221 321 l 1,163,164
 2285 366 2285 366 2360 366 c 0,165,166
 2412 366 2412 366 2452.5 337 c 128,-1,167
 2493 308 2493 308 2493 259 c 0,168,169
 2493 224 2493 224 2463 194 c 1,170,171
 2450 175 2450 175 2427.5 156.5 c 128,-1,172
 2405 138 2405 138 2375 116 c 2,173,-1
 2268 38 l 2,174,175
 2239 20 2239 20 2216.5 -0.5 c 128,-1,176
 2194 -21 2194 -21 2176 -40 c 1,160,-1
2221 259 m 1,177,-1
 2221 46 l 1,178,-1
 2282 108 l 2,179,180
 2299 124 2299 124 2312.5 136.5 c 128,-1,181
 2326 149 2326 149 2334 161 c 0,182,183
 2375 208 2375 208 2375 255 c 0,184,185
 2375 272 2375 272 2368.5 283 c 128,-1,186
 2362 294 2362 294 2354 304 c 0,187,188
 2346 310 2346 310 2336 315.5 c 128,-1,189
 2326 321 2326 321 2309 321 c 0,190,191
 2252 321 2252 321 2221 259 c 1,177,-1
EndSplineSet
EndChar

StartChar: macron
Encoding: 175 175 113
Width: 992
GlyphClass: 1
Flags: W
LayerCount: 2
Fore
SplineSet
340 1198 m 1,0,1
 340 1198 340 1198 334 1178 c 0,2,3
 330 1163 330 1163 328 1161 c 0,4,5
 303 1120 303 1120 279 1106 c 0,6,7
 240 1085 240 1085 203 1085 c 0,8,9
 131 1085 131 1085 82 1135 c 1,10,11
 62 1149 62 1149 50 1178 c 2,12,-1
 43 1191 l 1,13,-1
 36 1209 l 1,14,-1
 33 1229 l 2,15,16
 31 1231 31 1231 31 1262 c 0,17,18
 31 1329 31 1329 58.5 1386.5 c 128,-1,19
 86 1444 86 1444 131.5 1487 c 128,-1,20
 177 1530 177 1530 234 1555.5 c 128,-1,21
 291 1581 291 1581 353 1587 c 2,22,-1
 388 1589 l 1,23,-1
 426 1587 l 1,24,25
 506 1575 506 1575 578 1528 c 0,26,27
 654 1477 654 1477 702 1399 c 128,-1,28
 750 1321 750 1321 760 1229 c 2,29,-1
 763 1196 l 1,30,-1
 764 1184 l 1,31,-1
 764 1178 l 2,32,33
 764 941 764 941 652 829 c 0,34,35
 650 827 650 827 649.5 825.5 c 128,-1,36
 649 824 649 824 644 820 c 2,37,-1
 640 814 l 1,38,-1
 636 809 l 1,39,-1
 605 768 l 2,40,41
 598 760 598 760 595 756 c 128,-1,42
 592 752 592 752 567.5 724 c 128,-1,43
 543 696 543 696 525 676 c 0,44,45
 492 641 492 641 453 608 c 0,46,47
 386 552 386 552 369 541 c 0,48,49
 331 518 331 518 310 502 c 0,50,51
 305 498 305 498 222 449 c 2,52,-1
 156 410 l 1,53,-1
 153 408 l 1,54,-1
 148 405 l 1,55,-1
 70 358 l 1,56,-1
 4 319 l 1,57,-1
 -4 354 l 1,58,-1
 0 358 l 1,59,-1
 26 378 l 1,60,-1
 42 390 l 1,61,-1
 68 410 l 1,62,-1
 205 516 l 2,63,64
 230 537 230 537 241 545 c 0,65,66
 255 555 255 555 277 578 c 2,67,-1
 349 653 l 1,68,69
 371 682 371 682 396.5 709.5 c 128,-1,70
 422 737 422 737 445 768 c 2,71,-1
 468 800 l 1,72,-1
 480 819 l 2,73,74
 482 823 482 823 484 825 c 128,-1,75
 486 827 486 827 488 831 c 0,76,77
 508 868 508 868 522.5 897 c 128,-1,78
 537 926 537 926 557 979 c 1,79,-1
 578 1077 l 2,80,81
 579 1084 579 1084 585 1124 c 0,82,83
 590 1156 590 1156 588 1167 c 2,84,-1
 586 1178 l 1,85,-1
 584 1194 l 1,86,87
 584 1194 584 1194 582 1229 c 2,88,-1
 582 1249 l 2,89,90
 582 1292 582 1292 566 1327 c 1,91,92
 555 1366 555 1366 530.5 1412 c 128,-1,93
 506 1458 506 1458 482 1487 c 1,94,95
 428 1536 428 1536 355 1536 c 0,96,97
 276 1536 276 1536 215 1505 c 0,98,99
 152 1473 152 1473 121 1395 c 1,100,-1
 115 1376 l 1,101,102
 115 1360 115 1360 127 1352 c 1,103,-1
 156 1343 l 1,104,-1
 183 1348 l 1,105,-1
 224 1354 l 2,106,107
 243 1357 243 1357 270 1346 c 0,108,109
 287 1338 287 1338 310 1315 c 0,110,111
 346 1278 346 1278 346 1229 c 1,112,-1
 340 1198 l 1,0,1
822 1030 m 0,113,114
 822 1061 822 1061 844 1090 c 1,115,116
 869 1116 869 1116 902 1116 c 0,117,118
 926 1116 926 1116 953 1090 c 0,119,120
 963 1075 963 1075 970 1063 c 128,-1,121
 977 1051 977 1051 977 1030 c 0,122,123
 977 944 977 944 902 944 c 0,124,125
 867 944 867 944 844.5 966.5 c 128,-1,126
 822 989 822 989 822 1030 c 0,113,114
822 1378 m 0,127,128
 822 1413 822 1413 846.5 1437.5 c 128,-1,129
 871 1462 871 1462 902 1462 c 0,130,131
 924 1462 924 1462 955 1438 c 1,132,133
 977 1409 977 1409 977 1376 c 256,134,135
 977 1343 977 1343 955 1315 c 1,136,137
 928 1288 928 1288 899 1288 c 0,138,139
 871 1288 871 1288 844 1315 c 1,140,141
 822 1350 822 1350 822 1378 c 0,127,128
EndSplineSet
EndChar

StartChar: degree
Encoding: 176 176 114
Width: 480
GlyphClass: 1
Flags: W
LayerCount: 2
Fore
SplineSet
338 -662 m 0,0,1
 338 -709 338 -709 306.5 -741.5 c 128,-1,2
 275 -774 275 -774 228 -774 c 256,3,4
 181 -774 181 -774 148 -741.5 c 128,-1,5
 115 -709 115 -709 115 -662 c 0,6,7
 115 -614 115 -614 148 -582.5 c 128,-1,8
 181 -551 181 -551 228 -551 c 256,9,10
 275 -551 275 -551 306.5 -582.5 c 128,-1,11
 338 -614 338 -614 338 -662 c 0,0,1
EndSplineSet
EndChar

StartChar: plusminus
Encoding: 177 177 115
Width: 480
GlyphClass: 1
Flags: W
LayerCount: 2
Fore
SplineSet
338 -605 m 0,0,1
 338 -652 338 -652 306.5 -684.5 c 128,-1,2
 275 -717 275 -717 228 -717 c 256,3,4
 181 -717 181 -717 148 -684.5 c 128,-1,5
 115 -652 115 -652 115 -605 c 0,6,7
 115 -557 115 -557 148 -525.5 c 128,-1,8
 181 -494 181 -494 228 -494 c 256,9,10
 275 -494 275 -494 306.5 -525.5 c 128,-1,11
 338 -557 338 -557 338 -605 c 0,0,1
EndSplineSet
EndChar

StartChar: twosuperior
Encoding: 178 178 116
Width: 480
GlyphClass: 1
Flags: W
LayerCount: 2
Fore
SplineSet
338 -252 m 0,0,1
 338 -299 338 -299 306.5 -331.5 c 128,-1,2
 275 -364 275 -364 228 -364 c 256,3,4
 181 -364 181 -364 148 -331.5 c 128,-1,5
 115 -299 115 -299 115 -252 c 0,6,7
 115 -204 115 -204 148 -172.5 c 128,-1,8
 181 -141 181 -141 228 -141 c 256,9,10
 275 -141 275 -141 306.5 -172.5 c 128,-1,11
 338 -204 338 -204 338 -252 c 0,0,1
EndSplineSet
EndChar

StartChar: threesuperior
Encoding: 179 179 117
Width: 480
GlyphClass: 1
Flags: W
LayerCount: 2
Fore
SplineSet
338 -195 m 0,0,1
 338 -242 338 -242 306.5 -274.5 c 128,-1,2
 275 -307 275 -307 228 -307 c 256,3,4
 181 -307 181 -307 148 -274.5 c 128,-1,5
 115 -242 115 -242 115 -195 c 0,6,7
 115 -147 115 -147 148 -115.5 c 128,-1,8
 181 -84 181 -84 228 -84 c 256,9,10
 275 -84 275 -84 306.5 -115.5 c 128,-1,11
 338 -147 338 -147 338 -195 c 0,0,1
EndSplineSet
EndChar

StartChar: acute
Encoding: 180 180 118
Width: 480
GlyphClass: 1
Flags: W
LayerCount: 2
Fore
SplineSet
338 147 m 0,0,1
 338 100 338 100 306.5 67.5 c 128,-1,2
 275 35 275 35 228 35 c 256,3,4
 181 35 181 35 148 67.5 c 128,-1,5
 115 100 115 100 115 147 c 0,6,7
 115 195 115 195 148 226.5 c 128,-1,8
 181 258 181 258 228 258 c 256,9,10
 275 258 275 258 306.5 226.5 c 128,-1,11
 338 195 338 195 338 147 c 0,0,1
EndSplineSet
EndChar

StartChar: mu
Encoding: 181 181 119
Width: 480
GlyphClass: 1
Flags: W
LayerCount: 2
Fore
SplineSet
338 215 m 256,0,1
 338 168 338 168 306.5 135 c 128,-1,2
 275 102 275 102 228 102 c 256,3,4
 181 102 181 102 148 135 c 128,-1,5
 115 168 115 168 115 215 c 256,6,7
 115 262 115 262 148 294 c 128,-1,8
 181 326 181 326 228 326 c 256,9,10
 275 326 275 326 306.5 294 c 128,-1,11
 338 262 338 262 338 215 c 256,0,1
EndSplineSet
EndChar

StartChar: paragraph
Encoding: 182 182 120
Width: 480
GlyphClass: 1
Flags: W
LayerCount: 2
Fore
SplineSet
338 557 m 256,0,1
 338 510 338 510 306.5 477 c 128,-1,2
 275 444 275 444 228 444 c 256,3,4
 181 444 181 444 148 477 c 128,-1,5
 115 510 115 510 115 557 c 256,6,7
 115 604 115 604 148 636 c 128,-1,8
 181 668 181 668 228 668 c 256,9,10
 275 668 275 668 306.5 636 c 128,-1,11
 338 604 338 604 338 557 c 256,0,1
EndSplineSet
EndChar

StartChar: periodcentered
Encoding: 183 183 121
Width: 480
GlyphClass: 1
Flags: W
LayerCount: 2
Fore
SplineSet
340 625 m 256,0,1
 340 578 340 578 308.5 545 c 128,-1,2
 277 512 277 512 230 512 c 256,3,4
 183 512 183 512 150 545 c 128,-1,5
 117 578 117 578 117 625 c 256,6,7
 117 672 117 672 150 703.5 c 128,-1,8
 183 735 183 735 230 735 c 256,9,10
 277 735 277 735 308.5 703.5 c 128,-1,11
 340 672 340 672 340 625 c 256,0,1
EndSplineSet
EndChar

StartChar: cedilla
Encoding: 184 184 122
Width: 480
GlyphClass: 1
Flags: W
LayerCount: 2
Fore
SplineSet
338 967 m 256,0,1
 338 920 338 920 306.5 887 c 128,-1,2
 275 854 275 854 228 854 c 256,3,4
 181 854 181 854 148 887 c 128,-1,5
 115 920 115 920 115 967 c 256,6,7
 115 1014 115 1014 148 1045.5 c 128,-1,8
 181 1077 181 1077 228 1077 c 256,9,10
 275 1077 275 1077 306.5 1045.5 c 128,-1,11
 338 1014 338 1014 338 967 c 256,0,1
EndSplineSet
EndChar

StartChar: onesuperior
Encoding: 185 185 123
Width: 480
GlyphClass: 1
Flags: W
LayerCount: 2
Fore
SplineSet
340 1034 m 256,0,1
 340 987 340 987 308.5 954.5 c 128,-1,2
 277 922 277 922 230 922 c 256,3,4
 183 922 183 922 150 954.5 c 128,-1,5
 117 987 117 987 117 1034 c 256,6,7
 117 1081 117 1081 150 1113 c 128,-1,8
 183 1145 183 1145 230 1145 c 256,9,10
 277 1145 277 1145 308.5 1113 c 128,-1,11
 340 1081 340 1081 340 1034 c 256,0,1
EndSplineSet
EndChar

StartChar: ordmasculine
Encoding: 186 186 124
Width: 480
GlyphClass: 1
Flags: W
LayerCount: 2
Fore
SplineSet
338 1376 m 256,0,1
 338 1329 338 1329 306.5 1296.5 c 128,-1,2
 275 1264 275 1264 228 1264 c 256,3,4
 181 1264 181 1264 148 1296.5 c 128,-1,5
 115 1329 115 1329 115 1376 c 256,6,7
 115 1423 115 1423 148 1455 c 128,-1,8
 181 1487 181 1487 228 1487 c 256,9,10
 275 1487 275 1487 306.5 1455 c 128,-1,11
 338 1423 338 1423 338 1376 c 256,0,1
EndSplineSet
EndChar

StartChar: guillemotright
Encoding: 187 187 125
Width: 480
GlyphClass: 1
Flags: W
LayerCount: 2
Fore
SplineSet
336 1444 m 256,0,1
 336 1397 336 1397 304.5 1364 c 128,-1,2
 273 1331 273 1331 226 1331 c 256,3,4
 179 1331 179 1331 146 1364 c 128,-1,5
 113 1397 113 1397 113 1444 c 256,6,7
 113 1491 113 1491 146 1522.5 c 128,-1,8
 179 1554 179 1554 226 1554 c 256,9,10
 273 1554 273 1554 304.5 1522.5 c 128,-1,11
 336 1491 336 1491 336 1444 c 256,0,1
EndSplineSet
EndChar

StartChar: onequarter
Encoding: 188 188 126
Width: 480
GlyphClass: 1
Flags: W
LayerCount: 2
Fore
SplineSet
338 1786 m 256,0,1
 338 1739 338 1739 306.5 1706 c 128,-1,2
 275 1673 275 1673 228 1673 c 256,3,4
 181 1673 181 1673 148 1706 c 128,-1,5
 115 1739 115 1739 115 1786 c 256,6,7
 115 1833 115 1833 148 1864.5 c 128,-1,8
 181 1896 181 1896 228 1896 c 256,9,10
 275 1896 275 1896 306.5 1864.5 c 128,-1,11
 338 1833 338 1833 338 1786 c 256,0,1
EndSplineSet
EndChar

StartChar: onehalf
Encoding: 189 189 127
Width: 480
GlyphClass: 1
Flags: W
LayerCount: 2
Fore
SplineSet
340 1853 m 0,0,1
 340 1806 340 1806 308.5 1773.5 c 128,-1,2
 277 1741 277 1741 230 1741 c 256,3,4
 183 1741 183 1741 150 1773.5 c 128,-1,5
 117 1806 117 1806 117 1853 c 0,6,7
 117 1901 117 1901 150 1932.5 c 128,-1,8
 183 1964 183 1964 230 1964 c 256,9,10
 277 1964 277 1964 308.5 1932.5 c 128,-1,11
 340 1901 340 1901 340 1853 c 0,0,1
EndSplineSet
EndChar

StartChar: threequarters
Encoding: 190 190 128
Width: 480
GlyphClass: 1
Flags: W
LayerCount: 2
Fore
SplineSet
338 2195 m 0,0,1
 338 2148 338 2148 306.5 2115.5 c 128,-1,2
 275 2083 275 2083 228 2083 c 256,3,4
 181 2083 181 2083 148 2115.5 c 128,-1,5
 115 2148 115 2148 115 2195 c 0,6,7
 115 2243 115 2243 148 2274.5 c 128,-1,8
 181 2306 181 2306 228 2306 c 256,9,10
 275 2306 275 2306 306.5 2274.5 c 128,-1,11
 338 2243 338 2243 338 2195 c 0,0,1
EndSplineSet
EndChar

StartChar: questiondown
Encoding: 191 191 129
Width: 480
GlyphClass: 1
Flags: W
LayerCount: 2
Fore
SplineSet
338 967 m 256,0,1
 338 920 338 920 306.5 887 c 128,-1,2
 275 854 275 854 228 854 c 256,3,4
 181 854 181 854 148 887 c 128,-1,5
 115 920 115 920 115 967 c 256,6,7
 115 1014 115 1014 148 1045.5 c 128,-1,8
 181 1077 181 1077 228 1077 c 256,9,10
 275 1077 275 1077 306.5 1045.5 c 128,-1,11
 338 1014 338 1014 338 967 c 256,0,1
EndSplineSet
EndChar

StartChar: Agrave
Encoding: 192 192 130
Width: 1504
GlyphClass: 1
Flags: W
LayerCount: 2
Fore
SplineSet
1520 410 m 1,0,-1
 1520 358 l 1,1,-1
 1244 358 l 1,2,-1
 1244 0 l 1,3,-1
 1520 0 l 1,4,-1
 1520 -51 l 1,5,-1
 1244 -51 l 1,6,-1
 1244 -410 l 1,7,-1
 1395 -410 l 1,8,-1
 1395 -461 l 1,9,-1
 1244 -461 l 1,10,-1
 1244 -793 l 2,11,12
 1244 -799 1244 -799 1242.5 -806 c 128,-1,13
 1241 -813 1241 -813 1241 -819 c 1,14,-1
 1395 -819 l 1,15,-1
 1395 -870 l 1,16,-1
 1225 -870 l 1,17,18
 1221 -881 1221 -881 1215 -889 c 128,-1,19
 1209 -897 1209 -897 1203 -907 c 0,20,21
 1162 -963 1162 -963 1094 -993.5 c 128,-1,22
 1026 -1024 1026 -1024 963 -1024 c 0,23,24
 908 -1024 908 -1024 863 -991 c 128,-1,25
 818 -958 818 -958 818 -903 c 0,26,27
 818 -872 818 -872 820 -870 c 1,28,-1
 666 -870 l 1,29,-1
 666 -819 l 1,30,-1
 840 -819 l 1,31,32
 844 -811 844 -811 849 -804 c 128,-1,33
 854 -797 854 -797 863 -788 c 0,34,35
 902 -737 902 -737 973 -696 c 1,36,37
 1010 -680 1010 -680 1040.5 -673 c 128,-1,38
 1071 -666 1071 -666 1100 -666 c 0,39,40
 1162 -666 1162 -666 1209 -700 c 1,41,-1
 1209 -461 l 1,42,-1
 666 -461 l 1,43,-1
 666 -410 l 1,44,-1
 1209 -410 l 1,45,-1
 1209 -51 l 1,46,-1
 410 -51 l 1,47,-1
 410 -410 l 1,48,-1
 562 -410 l 1,49,-1
 562 -461 l 1,50,-1
 410 -461 l 1,51,-1
 410 -793 l 2,52,53
 410 -799 410 -799 409 -806 c 128,-1,54
 408 -813 408 -813 408 -819 c 1,55,-1
 562 -819 l 1,56,-1
 562 -870 l 1,57,-1
 392 -870 l 1,58,59
 387 -881 387 -881 381 -889 c 128,-1,60
 375 -897 375 -897 369 -907 c 0,61,62
 328 -963 328 -963 260.5 -993.5 c 128,-1,63
 193 -1024 193 -1024 129 -1024 c 0,64,65
 72 -1024 72 -1024 27 -991 c 0,66,67
 -16 -958 -16 -958 -16 -903 c 2,68,-1
 -16 -870 l 1,69,-1
 -166 -870 l 1,70,-1
 -166 -819 l 1,71,-1
 7 -819 l 1,72,73
 11 -811 11 -811 16 -804 c 128,-1,74
 21 -797 21 -797 27 -788 c 0,75,76
 47 -766 47 -766 76 -742.5 c 128,-1,77
 105 -719 105 -719 140 -696 c 1,78,79
 174 -680 174 -680 206 -673 c 128,-1,80
 238 -666 238 -666 267 -666 c 0,81,82
 328 -666 328 -666 375 -700 c 1,83,-1
 375 -461 l 1,84,-1
 -166 -461 l 1,85,-1
 -166 -410 l 1,86,-1
 375 -410 l 1,87,-1
 375 -51 l 1,88,-1
 -16 -51 l 1,89,-1
 -16 0 l 1,90,-1
 375 0 l 1,91,-1
 375 358 l 1,92,-1
 -16 358 l 1,93,-1
 -16 410 l 1,94,-1
 1520 410 l 1,0,-1
410 0 m 1,95,-1
 1209 0 l 1,96,-1
 1209 221 l 1,97,-1
 410 221 l 1,98,-1
 410 0 l 1,95,-1
1520 819 m 1,99,-1
 1520 768 l 1,100,-1
 -16 768 l 1,101,-1
 -16 819 l 1,102,-1
 1520 819 l 1,99,-1
1520 1638 m 1,103,-1
 1520 1587 l 1,104,-1
 -16 1587 l 1,105,-1
 -16 1638 l 1,106,-1
 1520 1638 l 1,103,-1
1520 1229 m 1,107,-1
 1520 1178 l 1,108,-1
 -16 1178 l 1,109,-1
 -16 1229 l 1,110,-1
 1520 1229 l 1,107,-1
EndSplineSet
EndChar

StartChar: Aacute
Encoding: 193 193 131
Width: 1504
GlyphClass: 1
Flags: W
LayerCount: 2
Fore
SplineSet
1520 410 m 1,0,-1
 1520 358 l 1,1,-1
 1244 358 l 1,2,-1
 1244 0 l 1,3,-1
 1520 0 l 1,4,-1
 1520 -51 l 1,5,-1
 1244 -51 l 1,6,-1
 1244 -410 l 1,7,-1
 1395 -410 l 1,8,-1
 1395 -461 l 1,9,-1
 1244 -461 l 1,10,-1
 1244 -588 l 2,11,12
 1244 -649 1244 -649 1203 -702 c 0,13,14
 1162 -758 1162 -758 1094 -788.5 c 128,-1,15
 1026 -819 1026 -819 963 -819 c 0,16,17
 908 -819 908 -819 863 -786.5 c 128,-1,18
 818 -754 818 -754 818 -698 c 0,19,20
 818 -635 818 -635 863 -584 c 1,21,22
 902 -532 902 -532 973 -492 c 0,23,24
 1002 -475 1002 -475 1026.5 -469 c 128,-1,25
 1051 -463 1051 -463 1074 -461 c 1,26,-1
 666 -461 l 1,27,-1
 666 -410 l 1,28,-1
 1209 -410 l 1,29,-1
 1209 -51 l 1,30,-1
 410 -51 l 1,31,-1
 410 -410 l 1,32,-1
 562 -410 l 1,33,-1
 562 -461 l 1,34,-1
 410 -461 l 1,35,-1
 410 -588 l 2,36,37
 410 -649 410 -649 369 -702 c 0,38,39
 328 -758 328 -758 260.5 -788.5 c 128,-1,40
 193 -819 193 -819 129 -819 c 0,41,42
 72 -819 72 -819 27 -786 c 0,43,44
 -16 -754 -16 -754 -16 -698 c 0,45,46
 -16 -639 -16 -639 27 -584 c 0,47,48
 47 -561 47 -561 76 -537.5 c 128,-1,49
 105 -514 105 -514 140 -492 c 0,50,51
 168 -475 168 -475 192.5 -469 c 128,-1,52
 217 -463 217 -463 240 -461 c 1,53,-1
 -166 -461 l 1,54,-1
 -166 -410 l 1,55,-1
 375 -410 l 1,56,-1
 375 -51 l 1,57,-1
 -16 -51 l 1,58,-1
 -16 0 l 1,59,-1
 375 0 l 1,60,-1
 375 358 l 1,61,-1
 -16 358 l 1,62,-1
 -16 410 l 1,63,-1
 375 410 l 1,64,-1
 375 768 l 1,65,-1
 -16 768 l 1,66,-1
 -16 819 l 1,67,-1
 1520 819 l 1,68,-1
 1520 768 l 1,69,-1
 1244 768 l 1,70,-1
 1244 410 l 1,71,-1
 1520 410 l 1,0,-1
1209 358 m 1,72,-1
 410 358 l 1,73,-1
 410 0 l 1,74,-1
 1209 0 l 1,75,-1
 1209 358 l 1,72,-1
410 410 m 1,76,-1
 1209 410 l 1,77,-1
 1209 633 l 1,78,-1
 410 633 l 1,79,-1
 410 410 l 1,76,-1
1520 1229 m 1,80,-1
 1520 1178 l 1,81,-1
 -16 1178 l 1,82,-1
 -16 1229 l 1,83,-1
 1520 1229 l 1,80,-1
1520 1638 m 1,84,-1
 1520 1587 l 1,85,-1
 -16 1587 l 1,86,-1
 -16 1638 l 1,87,-1
 1520 1638 l 1,84,-1
1209 -461 m 1,88,-1
 1121 -461 l 1,89,90
 1168 -465 1168 -465 1209 -496 c 1,91,-1
 1209 -461 l 1,88,-1
375 -461 m 1,92,-1
 287 -461 l 1,93,94
 330 -463 330 -463 375 -496 c 1,95,-1
 375 -461 l 1,92,-1
EndSplineSet
EndChar

StartChar: Acircumflex
Encoding: 194 194 132
Width: 1504
GlyphClass: 1
Flags: W
LayerCount: 2
Fore
SplineSet
1520 410 m 1,0,-1
 1520 358 l 1,1,-1
 1244 358 l 1,2,-1
 1244 0 l 1,3,-1
 1520 0 l 1,4,-1
 1520 -51 l 1,5,-1
 1244 -51 l 1,6,-1
 1244 -383 l 2,7,8
 1244 -389 1244 -389 1242.5 -396 c 128,-1,9
 1241 -403 1241 -403 1241 -410 c 1,10,-1
 1395 -410 l 1,11,-1
 1395 -461 l 1,12,-1
 1225 -461 l 1,13,14
 1221 -471 1221 -471 1215 -479 c 128,-1,15
 1209 -487 1209 -487 1203 -498 c 0,16,17
 1162 -553 1162 -553 1094 -583.5 c 128,-1,18
 1026 -614 1026 -614 963 -614 c 0,19,20
 908 -614 908 -614 863 -581.5 c 128,-1,21
 818 -549 818 -549 818 -494 c 0,22,23
 818 -463 818 -463 820 -461 c 1,24,-1
 666 -461 l 1,25,-1
 666 -410 l 1,26,-1
 840 -410 l 1,27,28
 844 -401 844 -401 849 -394 c 128,-1,29
 854 -387 854 -387 863 -379 c 0,30,31
 902 -328 902 -328 973 -287 c 0,32,33
 1010 -270 1010 -270 1040.5 -263 c 128,-1,34
 1071 -256 1071 -256 1100 -256 c 0,35,36
 1162 -256 1162 -256 1209 -291 c 1,37,-1
 1209 -51 l 1,38,-1
 410 -51 l 1,39,-1
 410 -383 l 2,40,41
 410 -389 410 -389 409 -396 c 128,-1,42
 408 -403 408 -403 408 -410 c 1,43,-1
 562 -410 l 1,44,-1
 562 -461 l 1,45,-1
 392 -461 l 1,46,47
 387 -471 387 -471 381 -479 c 128,-1,48
 375 -487 375 -487 369 -498 c 0,49,50
 328 -553 328 -553 260.5 -583.5 c 128,-1,51
 193 -614 193 -614 129 -614 c 0,52,53
 72 -614 72 -614 27 -582 c 0,54,55
 -16 -549 -16 -549 -16 -494 c 2,56,-1
 -16 -461 l 1,57,-1
 -166 -461 l 1,58,-1
 -166 -410 l 1,59,-1
 7 -410 l 1,60,61
 11 -401 11 -401 16 -394 c 128,-1,62
 21 -387 21 -387 27 -379 c 0,63,64
 47 -356 47 -356 76 -332.5 c 128,-1,65
 105 -309 105 -309 140 -287 c 0,66,67
 174 -270 174 -270 206 -263 c 128,-1,68
 238 -256 238 -256 267 -256 c 0,69,70
 328 -256 328 -256 375 -291 c 1,71,-1
 375 -51 l 1,72,-1
 -16 -51 l 1,73,-1
 -16 0 l 1,74,-1
 375 0 l 1,75,-1
 375 358 l 1,76,-1
 -16 358 l 1,77,-1
 -16 410 l 1,78,-1
 375 410 l 1,79,-1
 375 768 l 1,80,-1
 -16 768 l 1,81,-1
 -16 819 l 1,82,-1
 1520 819 l 1,83,-1
 1520 768 l 1,84,-1
 1244 768 l 1,85,-1
 1244 410 l 1,86,-1
 1520 410 l 1,0,-1
1209 358 m 1,87,-1
 410 358 l 1,88,-1
 410 0 l 1,89,-1
 1209 0 l 1,90,-1
 1209 358 l 1,87,-1
410 410 m 1,91,-1
 1209 410 l 1,92,-1
 1209 633 l 1,93,-1
 410 633 l 1,94,-1
 410 410 l 1,91,-1
1520 1229 m 1,95,-1
 1520 1178 l 1,96,-1
 -16 1178 l 1,97,-1
 -16 1229 l 1,98,-1
 1520 1229 l 1,95,-1
1520 1638 m 1,99,-1
 1520 1587 l 1,100,-1
 -16 1587 l 1,101,-1
 -16 1638 l 1,102,-1
 1520 1638 l 1,99,-1
EndSplineSet
EndChar

StartChar: Atilde
Encoding: 195 195 133
Width: 1504
GlyphClass: 1
Flags: W
LayerCount: 2
Fore
SplineSet
1520 1229 m 1,0,-1
 1520 1178 l 1,1,-1
 1244 1178 l 1,2,-1
 1244 819 l 1,3,-1
 1520 819 l 1,4,-1
 1520 768 l 1,5,-1
 1244 768 l 1,6,-1
 1244 410 l 1,7,-1
 1520 410 l 1,8,-1
 1520 358 l 1,9,-1
 1244 358 l 1,10,-1
 1244 0 l 1,11,-1
 1520 0 l 1,12,-1
 1520 -51 l 1,13,-1
 1244 -51 l 1,14,-1
 1244 -178 l 2,15,16
 1244 -240 1244 -240 1203 -293 c 0,17,18
 1162 -348 1162 -348 1094 -379 c 128,-1,19
 1026 -410 1026 -410 963 -410 c 0,20,21
 908 -410 908 -410 863 -377 c 128,-1,22
 818 -344 818 -344 818 -289 c 0,23,24
 818 -225 818 -225 863 -174 c 0,25,26
 883 -147 883 -147 910.5 -121.5 c 128,-1,27
 938 -96 938 -96 973 -76 c 0,28,29
 1004 -59 1004 -59 1030.5 -56 c 128,-1,30
 1057 -53 1057 -53 1082 -51 c 1,31,-1
 410 -51 l 1,32,-1
 410 -178 l 2,33,34
 410 -240 410 -240 369 -293 c 0,35,36
 328 -348 328 -348 260.5 -379 c 128,-1,37
 193 -410 193 -410 129 -410 c 0,38,39
 72 -410 72 -410 27 -377 c 0,40,41
 -16 -344 -16 -344 -16 -289 c 0,42,43
 -16 -229 -16 -229 27 -174 c 0,44,45
 47 -152 47 -152 76 -125 c 128,-1,46
 105 -98 105 -98 140 -76 c 0,47,48
 168 -59 168 -59 194 -56 c 128,-1,49
 220 -53 220 -53 244 -51 c 1,50,-1
 -16 -51 l 1,51,-1
 -16 0 l 1,52,-1
 375 0 l 1,53,-1
 375 358 l 1,54,-1
 -16 358 l 1,55,-1
 -16 410 l 1,56,-1
 375 410 l 1,57,-1
 375 768 l 1,58,-1
 -16 768 l 1,59,-1
 -16 819 l 1,60,-1
 375 819 l 1,61,-1
 375 1178 l 1,62,-1
 -16 1178 l 1,63,-1
 -16 1229 l 1,64,-1
 1520 1229 l 1,0,-1
1209 358 m 1,65,-1
 410 358 l 1,66,-1
 410 0 l 1,67,-1
 1209 0 l 1,68,-1
 1209 358 l 1,65,-1
1209 768 m 1,69,-1
 410 768 l 1,70,-1
 410 410 l 1,71,-1
 1209 410 l 1,72,-1
 1209 768 l 1,69,-1
410 819 m 1,73,-1
 1209 819 l 1,74,-1
 1209 1038 l 1,75,-1
 410 1038 l 1,76,-1
 410 819 l 1,73,-1
1520 1638 m 1,77,-1
 1520 1587 l 1,78,-1
 -16 1587 l 1,79,-1
 -16 1638 l 1,80,-1
 1520 1638 l 1,77,-1
1209 -51 m 1,81,-1
 1125 -51 l 1,82,83
 1147 -53 1147 -53 1166.5 -58 c 128,-1,84
 1186 -63 1186 -63 1209 -80 c 1,85,-1
 1209 -51 l 1,81,-1
375 -51 m 1,86,-1
 291 -51 l 1,87,88
 314 -53 314 -53 333.5 -58 c 128,-1,89
 353 -63 353 -63 375 -80 c 1,90,-1
 375 -51 l 1,86,-1
EndSplineSet
EndChar

StartChar: Adieresis
Encoding: 196 196 134
Width: 1504
GlyphClass: 1
Flags: W
LayerCount: 2
Fore
SplineSet
1520 410 m 1,0,-1
 1520 358 l 1,1,-1
 1244 358 l 1,2,-1
 1244 27 l 2,3,4
 1244 18 1244 18 1242.5 12 c 128,-1,5
 1241 6 1241 6 1241 0 c 1,6,-1
 1520 0 l 1,7,-1
 1520 -51 l 1,8,-1
 1223 -51 l 1,9,10
 1215 -61 1215 -61 1212 -66.5 c 128,-1,11
 1209 -72 1209 -72 1203 -82 c 0,12,13
 1162 -137 1162 -137 1094 -171 c 128,-1,14
 1026 -205 1026 -205 963 -205 c 0,15,16
 908 -205 908 -205 863 -169 c 128,-1,17
 818 -133 818 -133 818 -78 c 0,18,19
 818 -55 818 -55 822 -51 c 1,20,-1
 394 -51 l 1,21,22
 387 -61 387 -61 381 -66.5 c 128,-1,23
 375 -72 375 -72 369 -82 c 0,24,25
 328 -137 328 -137 260.5 -171 c 128,-1,26
 193 -205 193 -205 129 -205 c 0,27,28
 72 -205 72 -205 27 -172 c 0,29,30
 4 -156 4 -156 -6 -131 c 128,-1,31
 -16 -106 -16 -106 -16 -78 c 2,32,-1
 -16 0 l 1,33,-1
 7 0 l 1,34,35
 11 8 11 8 16 15.5 c 128,-1,36
 21 23 21 23 27 31 c 0,37,38
 47 53 47 53 76 76.5 c 128,-1,39
 105 100 105 100 140 123 c 1,40,41
 174 139 174 139 206 146.5 c 128,-1,42
 238 154 238 154 267 154 c 0,43,44
 328 154 328 154 375 119 c 1,45,-1
 375 358 l 1,46,-1
 -16 358 l 1,47,-1
 -16 410 l 1,48,-1
 375 410 l 1,49,-1
 375 768 l 1,50,-1
 -16 768 l 1,51,-1
 -16 819 l 1,52,-1
 375 819 l 1,53,-1
 375 1178 l 1,54,-1
 -16 1178 l 1,55,-1
 -16 1229 l 1,56,-1
 1520 1229 l 1,57,-1
 1520 1178 l 1,58,-1
 1244 1178 l 1,59,-1
 1244 819 l 1,60,-1
 1520 819 l 1,61,-1
 1520 768 l 1,62,-1
 1244 768 l 1,63,-1
 1244 410 l 1,64,-1
 1520 410 l 1,0,-1
1209 768 m 1,65,-1
 410 768 l 1,66,-1
 410 410 l 1,67,-1
 1209 410 l 1,68,-1
 1209 768 l 1,65,-1
408 0 m 1,69,-1
 840 0 l 1,70,71
 844 8 844 8 849 15.5 c 128,-1,72
 854 23 854 23 863 31 c 0,73,74
 902 82 902 82 973 123 c 1,75,76
 1010 139 1010 139 1040.5 146.5 c 128,-1,77
 1071 154 1071 154 1100 154 c 0,78,79
 1162 154 1162 154 1209 119 c 1,80,-1
 1209 358 l 1,81,-1
 410 358 l 1,82,-1
 410 27 l 2,83,84
 410 18 410 18 409 12 c 128,-1,85
 408 6 408 6 408 0 c 1,69,-1
410 819 m 1,86,-1
 1209 819 l 1,87,-1
 1209 1038 l 1,88,-1
 410 1038 l 1,89,-1
 410 819 l 1,86,-1
1520 1638 m 1,90,-1
 1520 1587 l 1,91,-1
 -16 1587 l 1,92,-1
 -16 1638 l 1,93,-1
 1520 1638 l 1,90,-1
EndSplineSet
EndChar

StartChar: Aring
Encoding: 197 197 135
Width: 1504
GlyphClass: 1
Flags: W
LayerCount: 2
Fore
SplineSet
1520 410 m 1,0,-1
 1520 358 l 1,1,-1
 1246 358 l 1,2,-1
 1246 231 l 2,3,4
 1246 182 1246 182 1221 141 c 128,-1,5
 1196 100 1196 100 1157.5 69.5 c 128,-1,6
 1119 39 1119 39 1070.5 20.5 c 128,-1,7
 1022 2 1022 2 977 0 c 1,8,-1
 1520 0 l 1,9,-1
 1520 -51 l 1,10,-1
 -16 -51 l 1,11,-1
 -16 0 l 1,12,-1
 113 0 l 1,13,14
 72 2 72 2 29 33 c 0,15,16
 -14 66 -14 66 -14 121 c 0,17,18
 -14 180 -14 180 29 236 c 0,19,20
 50 258 50 258 78.5 281.5 c 128,-1,21
 107 305 107 305 142 328 c 1,22,23
 199 352 199 352 248 358 c 1,24,-1
 -16 358 l 1,25,-1
 -16 410 l 1,26,-1
 377 410 l 1,27,-1
 377 768 l 1,28,-1
 -16 768 l 1,29,-1
 -16 819 l 1,30,-1
 377 819 l 1,31,-1
 377 1178 l 1,32,-1
 -16 1178 l 1,33,-1
 -16 1229 l 1,34,-1
 377 1229 l 1,35,-1
 377 1587 l 1,36,-1
 -16 1587 l 1,37,-1
 -16 1638 l 1,38,-1
 1520 1638 l 1,39,-1
 1520 1587 l 1,40,-1
 1246 1587 l 1,41,-1
 1246 1229 l 1,42,-1
 1520 1229 l 1,43,-1
 1520 1178 l 1,44,-1
 1246 1178 l 1,45,-1
 1246 819 l 1,46,-1
 1520 819 l 1,47,-1
 1520 768 l 1,48,-1
 1246 768 l 1,49,-1
 1246 410 l 1,50,-1
 1520 410 l 1,0,-1
1211 768 m 1,51,-1
 412 768 l 1,52,-1
 412 410 l 1,53,-1
 1211 410 l 1,54,-1
 1211 768 l 1,51,-1
1211 1178 m 1,55,-1
 412 1178 l 1,56,-1
 412 819 l 1,57,-1
 1211 819 l 1,58,-1
 1211 1178 l 1,55,-1
144 0 m 1,59,-1
 953 0 l 1,60,61
 899 4 899 4 859.5 36 c 128,-1,62
 820 68 820 68 820 121 c 0,63,64
 820 184 820 184 865 236 c 0,65,66
 904 287 904 287 975 328 c 1,67,68
 1037 352 1037 352 1082 358 c 1,69,-1
 412 358 l 1,70,-1
 412 231 l 2,71,72
 412 182 412 182 387.5 141 c 128,-1,73
 363 100 363 100 324 69.5 c 128,-1,74
 285 39 285 39 237 20.5 c 128,-1,75
 189 2 189 2 144 0 c 1,59,-1
412 1229 m 1,76,-1
 1211 1229 l 1,77,-1
 1211 1450 l 1,78,-1
 412 1450 l 1,79,-1
 412 1229 l 1,76,-1
1211 358 m 1,80,-1
 1119 358 l 1,81,82
 1162 352 1162 352 1211 324 c 1,83,-1
 1211 358 l 1,80,-1
377 358 m 1,84,-1
 285 358 l 1,85,86
 328 352 328 352 377 324 c 1,87,-1
 377 358 l 1,84,-1
EndSplineSet
EndChar

StartChar: AE
Encoding: 198 198 136
Width: 1504
GlyphClass: 1
Flags: W
LayerCount: 2
Fore
SplineSet
1520 819 m 1,0,-1
 1520 768 l 1,1,-1
 1244 768 l 1,2,-1
 1244 436 l 2,3,4
 1244 428 1244 428 1242.5 422 c 128,-1,5
 1241 416 1241 416 1241 410 c 1,6,-1
 1520 410 l 1,7,-1
 1520 358 l 1,8,-1
 1225 358 l 1,9,10
 1221 348 1221 348 1215 340 c 128,-1,11
 1209 332 1209 332 1203 322 c 0,12,13
 1162 266 1162 266 1094 235.5 c 128,-1,14
 1026 205 1026 205 963 205 c 0,15,16
 908 205 908 205 863 237.5 c 128,-1,17
 818 270 818 270 818 326 c 2,18,-1
 818 342 l 2,19,20
 818 356 818 356 820 358 c 1,21,-1
 392 358 l 1,22,23
 387 348 387 348 381 340 c 128,-1,24
 375 332 375 332 369 322 c 0,25,26
 328 266 328 266 260.5 235.5 c 128,-1,27
 193 205 193 205 129 205 c 0,28,29
 72 205 72 205 27 238 c 0,30,31
 -16 270 -16 270 -16 326 c 2,32,-1
 -16 340 l 2,33,34
 -16 356 -16 356 -14 358 c 1,35,-1
 -16 358 l 1,36,-1
 -16 410 l 1,37,-1
 7 410 l 1,38,39
 11 418 11 418 16 425 c 128,-1,40
 21 432 21 432 27 440 c 0,41,42
 47 463 47 463 76 486.5 c 128,-1,43
 105 510 105 510 140 532 c 0,44,45
 174 549 174 549 206 556 c 128,-1,46
 238 563 238 563 267 563 c 0,47,48
 328 563 328 563 375 528 c 1,49,-1
 375 768 l 1,50,-1
 -16 768 l 1,51,-1
 -16 819 l 1,52,-1
 375 819 l 1,53,-1
 375 1178 l 1,54,-1
 -16 1178 l 1,55,-1
 -16 1229 l 1,56,-1
 375 1229 l 1,57,-1
 375 1587 l 1,58,-1
 -16 1587 l 1,59,-1
 -16 1638 l 1,60,-1
 1520 1638 l 1,61,-1
 1520 1587 l 1,62,-1
 1244 1587 l 1,63,-1
 1244 1229 l 1,64,-1
 1520 1229 l 1,65,-1
 1520 1178 l 1,66,-1
 1244 1178 l 1,67,-1
 1244 819 l 1,68,-1
 1520 819 l 1,0,-1
1209 1178 m 1,69,-1
 410 1178 l 1,70,-1
 410 819 l 1,71,-1
 1209 819 l 1,72,-1
 1209 1178 l 1,69,-1
408 410 m 1,73,-1
 840 410 l 1,74,75
 844 418 844 418 849 425 c 128,-1,76
 854 432 854 432 863 440 c 0,77,78
 902 492 902 492 973 532 c 0,79,80
 1010 549 1010 549 1040.5 556 c 128,-1,81
 1071 563 1071 563 1100 563 c 0,82,83
 1162 563 1162 563 1209 528 c 1,84,-1
 1209 768 l 1,85,-1
 410 768 l 1,86,-1
 410 436 l 2,87,88
 410 428 410 428 409 422 c 128,-1,89
 408 416 408 416 408 410 c 1,73,-1
410 1229 m 1,90,-1
 1209 1229 l 1,91,-1
 1209 1450 l 1,92,-1
 410 1450 l 1,93,-1
 410 1229 l 1,90,-1
1520 0 m 1,94,-1
 1520 -51 l 1,95,-1
 -16 -51 l 1,96,-1
 -16 0 l 1,97,-1
 1520 0 l 1,94,-1
EndSplineSet
EndChar

